<mxfile host="app.diagrams.net" modified="2022-06-10T11:17:22.933Z" agent="5.0 (Macintosh; Intel Mac OS X 10_15_7) AppleWebKit/537.36 (KHTML, like Gecko) Chrome/102.0.5005.61 Safari/537.36" etag="JumfnvlrfSBONBSAoBDn" version="19.0.3" type="github" pages="2">
  <diagram id="SUyYBRM5Ereph7z5FHVE" name="Page-1">
    <mxGraphModel dx="2705" dy="656" grid="1" gridSize="10" guides="1" tooltips="1" connect="1" arrows="1" fold="1" page="1" pageScale="1" pageWidth="827" pageHeight="1169" math="0" shadow="0">
      <root>
        <mxCell id="0" />
        <mxCell id="1" parent="0" />
        <mxCell id="hF8GJbH4QlHRkwEJSHVu-4" style="edgeStyle=orthogonalEdgeStyle;rounded=0;orthogonalLoop=1;jettySize=auto;html=1;exitX=0.5;exitY=1;exitDx=0;exitDy=0;entryX=0.5;entryY=0;entryDx=0;entryDy=0;" parent="1" source="hF8GJbH4QlHRkwEJSHVu-1" target="hF8GJbH4QlHRkwEJSHVu-2" edge="1">
          <mxGeometry relative="1" as="geometry" />
        </mxCell>
        <mxCell id="hF8GJbH4QlHRkwEJSHVu-1" value="render" style="rounded=0;whiteSpace=wrap;html=1;" parent="1" vertex="1">
          <mxGeometry x="320" y="40" width="120" height="60" as="geometry" />
        </mxCell>
        <mxCell id="hF8GJbH4QlHRkwEJSHVu-39" style="edgeStyle=orthogonalEdgeStyle;rounded=0;orthogonalLoop=1;jettySize=auto;html=1;exitX=1;exitY=0.5;exitDx=0;exitDy=0;" parent="1" source="hF8GJbH4QlHRkwEJSHVu-2" edge="1">
          <mxGeometry relative="1" as="geometry">
            <mxPoint x="690" y="230" as="targetPoint" />
          </mxGeometry>
        </mxCell>
        <mxCell id="hF8GJbH4QlHRkwEJSHVu-43" style="edgeStyle=orthogonalEdgeStyle;rounded=0;orthogonalLoop=1;jettySize=auto;html=1;exitX=0;exitY=0.5;exitDx=0;exitDy=0;entryX=0.5;entryY=0;entryDx=0;entryDy=0;" parent="1" source="hF8GJbH4QlHRkwEJSHVu-2" target="hF8GJbH4QlHRkwEJSHVu-7" edge="1">
          <mxGeometry relative="1" as="geometry" />
        </mxCell>
        <mxCell id="hF8GJbH4QlHRkwEJSHVu-2" value="legacyRenderSubtreeIntoContainer" style="rounded=0;whiteSpace=wrap;html=1;" parent="1" vertex="1">
          <mxGeometry x="270" y="140" width="220" height="60" as="geometry" />
        </mxCell>
        <mxCell id="hF8GJbH4QlHRkwEJSHVu-10" style="edgeStyle=orthogonalEdgeStyle;rounded=0;orthogonalLoop=1;jettySize=auto;html=1;exitX=0.5;exitY=1;exitDx=0;exitDy=0;entryX=0.5;entryY=0;entryDx=0;entryDy=0;" parent="1" source="hF8GJbH4QlHRkwEJSHVu-7" target="hF8GJbH4QlHRkwEJSHVu-8" edge="1">
          <mxGeometry relative="1" as="geometry" />
        </mxCell>
        <mxCell id="hF8GJbH4QlHRkwEJSHVu-7" value="createLegacyRoot" style="rounded=0;whiteSpace=wrap;html=1;" parent="1" vertex="1">
          <mxGeometry x="70" y="220" width="120" height="60" as="geometry" />
        </mxCell>
        <mxCell id="hF8GJbH4QlHRkwEJSHVu-8" value="createRootImpl" style="rounded=0;whiteSpace=wrap;html=1;" parent="1" vertex="1">
          <mxGeometry x="70" y="320" width="120" height="60" as="geometry" />
        </mxCell>
        <mxCell id="hF8GJbH4QlHRkwEJSHVu-11" value="" style="endArrow=classic;html=1;exitX=0.5;exitY=1;exitDx=0;exitDy=0;" parent="1" source="hF8GJbH4QlHRkwEJSHVu-8" target="hF8GJbH4QlHRkwEJSHVu-12" edge="1">
          <mxGeometry width="50" height="50" relative="1" as="geometry">
            <mxPoint x="270" y="370" as="sourcePoint" />
            <mxPoint x="170" y="350" as="targetPoint" />
            <Array as="points" />
          </mxGeometry>
        </mxCell>
        <mxCell id="hF8GJbH4QlHRkwEJSHVu-12" value="createContainer" style="rounded=0;whiteSpace=wrap;html=1;" parent="1" vertex="1">
          <mxGeometry x="70" y="410" width="120" height="60" as="geometry" />
        </mxCell>
        <mxCell id="hF8GJbH4QlHRkwEJSHVu-20" style="edgeStyle=orthogonalEdgeStyle;rounded=0;orthogonalLoop=1;jettySize=auto;html=1;exitX=0;exitY=0.5;exitDx=0;exitDy=0;entryX=0.5;entryY=0;entryDx=0;entryDy=0;" parent="1" source="hF8GJbH4QlHRkwEJSHVu-13" target="hF8GJbH4QlHRkwEJSHVu-19" edge="1">
          <mxGeometry relative="1" as="geometry" />
        </mxCell>
        <mxCell id="hF8GJbH4QlHRkwEJSHVu-44" style="edgeStyle=orthogonalEdgeStyle;rounded=0;orthogonalLoop=1;jettySize=auto;html=1;exitX=0.5;exitY=1;exitDx=0;exitDy=0;entryX=0.5;entryY=0;entryDx=0;entryDy=0;startArrow=none;" parent="1" source="hF8GJbH4QlHRkwEJSHVu-23" target="hF8GJbH4QlHRkwEJSHVu-21" edge="1">
          <mxGeometry relative="1" as="geometry" />
        </mxCell>
        <mxCell id="hF8GJbH4QlHRkwEJSHVu-48" style="edgeStyle=orthogonalEdgeStyle;rounded=0;orthogonalLoop=1;jettySize=auto;html=1;exitX=1;exitY=0.5;exitDx=0;exitDy=0;entryX=0.5;entryY=0;entryDx=0;entryDy=0;" parent="1" source="hF8GJbH4QlHRkwEJSHVu-13" target="hF8GJbH4QlHRkwEJSHVu-37" edge="1">
          <mxGeometry relative="1" as="geometry" />
        </mxCell>
        <mxCell id="hF8GJbH4QlHRkwEJSHVu-13" value="createFiberRoot" style="rounded=0;whiteSpace=wrap;html=1;" parent="1" vertex="1">
          <mxGeometry x="70" y="500" width="120" height="60" as="geometry" />
        </mxCell>
        <mxCell id="hF8GJbH4QlHRkwEJSHVu-14" value="" style="endArrow=classic;html=1;entryX=0.5;entryY=0;entryDx=0;entryDy=0;exitX=0.5;exitY=1;exitDx=0;exitDy=0;" parent="1" source="hF8GJbH4QlHRkwEJSHVu-12" target="hF8GJbH4QlHRkwEJSHVu-13" edge="1">
          <mxGeometry width="50" height="50" relative="1" as="geometry">
            <mxPoint x="180" y="510" as="sourcePoint" />
            <mxPoint x="230" y="460" as="targetPoint" />
          </mxGeometry>
        </mxCell>
        <mxCell id="hF8GJbH4QlHRkwEJSHVu-15" value="创建FiberRootNode&lt;br&gt;" style="text;html=1;strokeColor=none;fillColor=none;align=center;verticalAlign=middle;whiteSpace=wrap;rounded=0;" parent="1" vertex="1">
          <mxGeometry x="-170" y="540" width="130" height="20" as="geometry" />
        </mxCell>
        <mxCell id="hF8GJbH4QlHRkwEJSHVu-19" value="FiberRootNode" style="rounded=0;whiteSpace=wrap;html=1;" parent="1" vertex="1">
          <mxGeometry x="-170" y="600" width="120" height="60" as="geometry" />
        </mxCell>
        <mxCell id="hF8GJbH4QlHRkwEJSHVu-25" style="edgeStyle=orthogonalEdgeStyle;rounded=0;orthogonalLoop=1;jettySize=auto;html=1;exitX=0.5;exitY=1;exitDx=0;exitDy=0;entryX=0.5;entryY=0;entryDx=0;entryDy=0;" parent="1" source="hF8GJbH4QlHRkwEJSHVu-21" target="hF8GJbH4QlHRkwEJSHVu-24" edge="1">
          <mxGeometry relative="1" as="geometry" />
        </mxCell>
        <mxCell id="hF8GJbH4QlHRkwEJSHVu-21" value="createHostRootFiber" style="rounded=0;whiteSpace=wrap;html=1;" parent="1" vertex="1">
          <mxGeometry x="70" y="600" width="120" height="60" as="geometry" />
        </mxCell>
        <mxCell id="hF8GJbH4QlHRkwEJSHVu-27" style="edgeStyle=orthogonalEdgeStyle;rounded=0;orthogonalLoop=1;jettySize=auto;html=1;exitX=0.5;exitY=1;exitDx=0;exitDy=0;entryX=0.5;entryY=0;entryDx=0;entryDy=0;" parent="1" source="hF8GJbH4QlHRkwEJSHVu-24" target="hF8GJbH4QlHRkwEJSHVu-26" edge="1">
          <mxGeometry relative="1" as="geometry" />
        </mxCell>
        <mxCell id="hF8GJbH4QlHRkwEJSHVu-24" value="createFiber" style="rounded=0;whiteSpace=wrap;html=1;" parent="1" vertex="1">
          <mxGeometry x="70" y="680" width="120" height="60" as="geometry" />
        </mxCell>
        <mxCell id="hF8GJbH4QlHRkwEJSHVu-26" value="FiberNode" style="rounded=0;whiteSpace=wrap;html=1;" parent="1" vertex="1">
          <mxGeometry x="70" y="780" width="120" height="60" as="geometry" />
        </mxCell>
        <mxCell id="hF8GJbH4QlHRkwEJSHVu-30" value="" style="endArrow=classic;html=1;entryX=0;entryY=1;entryDx=0;entryDy=0;exitX=1;exitY=0.75;exitDx=0;exitDy=0;" parent="1" source="hF8GJbH4QlHRkwEJSHVu-19" target="hF8GJbH4QlHRkwEJSHVu-26" edge="1">
          <mxGeometry width="50" height="50" relative="1" as="geometry">
            <mxPoint x="300" y="630" as="sourcePoint" />
            <mxPoint x="350" y="580" as="targetPoint" />
          </mxGeometry>
        </mxCell>
        <mxCell id="hF8GJbH4QlHRkwEJSHVu-32" value="" style="endArrow=classic;html=1;exitX=0;exitY=0.5;exitDx=0;exitDy=0;entryX=1;entryY=0.25;entryDx=0;entryDy=0;" parent="1" source="hF8GJbH4QlHRkwEJSHVu-26" target="hF8GJbH4QlHRkwEJSHVu-19" edge="1">
          <mxGeometry width="50" height="50" relative="1" as="geometry">
            <mxPoint x="300" y="630" as="sourcePoint" />
            <mxPoint x="350" y="580" as="targetPoint" />
          </mxGeometry>
        </mxCell>
        <mxCell id="hF8GJbH4QlHRkwEJSHVu-33" value="stateNode" style="text;html=1;strokeColor=none;fillColor=none;align=center;verticalAlign=middle;whiteSpace=wrap;rounded=0;" parent="1" vertex="1">
          <mxGeometry x="-10" y="660" width="60" height="20" as="geometry" />
        </mxCell>
        <mxCell id="hF8GJbH4QlHRkwEJSHVu-34" value="current" style="text;html=1;strokeColor=none;fillColor=none;align=center;verticalAlign=middle;whiteSpace=wrap;rounded=0;" parent="1" vertex="1">
          <mxGeometry x="-50" y="720" width="40" height="20" as="geometry" />
        </mxCell>
        <mxCell id="hF8GJbH4QlHRkwEJSHVu-37" value="initializeUpdateQueue" style="rounded=0;whiteSpace=wrap;html=1;" parent="1" vertex="1">
          <mxGeometry x="300" y="600" width="140" height="40" as="geometry" />
        </mxCell>
        <mxCell id="hF8GJbH4QlHRkwEJSHVu-38" value="初始化更新队列" style="text;html=1;strokeColor=none;fillColor=none;align=center;verticalAlign=middle;whiteSpace=wrap;rounded=0;" parent="1" vertex="1">
          <mxGeometry x="335" y="550" width="90" height="20" as="geometry" />
        </mxCell>
        <mxCell id="hF8GJbH4QlHRkwEJSHVu-42" style="edgeStyle=orthogonalEdgeStyle;rounded=0;orthogonalLoop=1;jettySize=auto;html=1;exitX=0.5;exitY=1;exitDx=0;exitDy=0;entryX=0.5;entryY=0;entryDx=0;entryDy=0;" parent="1" source="hF8GJbH4QlHRkwEJSHVu-40" target="hF8GJbH4QlHRkwEJSHVu-41" edge="1">
          <mxGeometry relative="1" as="geometry" />
        </mxCell>
        <mxCell id="hF8GJbH4QlHRkwEJSHVu-40" value="unbatchedUpdates" style="rounded=0;whiteSpace=wrap;html=1;" parent="1" vertex="1">
          <mxGeometry x="630" y="230" width="120" height="60" as="geometry" />
        </mxCell>
        <mxCell id="hF8GJbH4QlHRkwEJSHVu-50" style="edgeStyle=orthogonalEdgeStyle;rounded=0;orthogonalLoop=1;jettySize=auto;html=1;exitX=0.5;exitY=1;exitDx=0;exitDy=0;entryX=0.5;entryY=0;entryDx=0;entryDy=0;" parent="1" source="hF8GJbH4QlHRkwEJSHVu-41" target="hF8GJbH4QlHRkwEJSHVu-49" edge="1">
          <mxGeometry relative="1" as="geometry" />
        </mxCell>
        <mxCell id="hF8GJbH4QlHRkwEJSHVu-41" value="updateContainer" style="rounded=0;whiteSpace=wrap;html=1;" parent="1" vertex="1">
          <mxGeometry x="630" y="320" width="120" height="60" as="geometry" />
        </mxCell>
        <mxCell id="hF8GJbH4QlHRkwEJSHVu-23" value="创建rootFiber" style="text;html=1;strokeColor=none;fillColor=none;align=center;verticalAlign=middle;whiteSpace=wrap;rounded=0;" parent="1" vertex="1">
          <mxGeometry x="65" y="565" width="130" height="20" as="geometry" />
        </mxCell>
        <mxCell id="hF8GJbH4QlHRkwEJSHVu-45" value="" style="edgeStyle=orthogonalEdgeStyle;rounded=0;orthogonalLoop=1;jettySize=auto;html=1;exitX=0.5;exitY=1;exitDx=0;exitDy=0;entryX=0.5;entryY=0;entryDx=0;entryDy=0;endArrow=none;" parent="1" source="hF8GJbH4QlHRkwEJSHVu-13" target="hF8GJbH4QlHRkwEJSHVu-23" edge="1">
          <mxGeometry relative="1" as="geometry">
            <mxPoint x="130" y="560" as="sourcePoint" />
            <mxPoint x="130" y="585" as="targetPoint" />
          </mxGeometry>
        </mxCell>
        <mxCell id="hF8GJbH4QlHRkwEJSHVu-52" style="edgeStyle=orthogonalEdgeStyle;rounded=0;orthogonalLoop=1;jettySize=auto;html=1;exitX=0.5;exitY=1;exitDx=0;exitDy=0;entryX=0.5;entryY=0;entryDx=0;entryDy=0;" parent="1" source="hF8GJbH4QlHRkwEJSHVu-49" target="hF8GJbH4QlHRkwEJSHVu-51" edge="1">
          <mxGeometry relative="1" as="geometry" />
        </mxCell>
        <mxCell id="hF8GJbH4QlHRkwEJSHVu-49" value="createUpdate" style="rounded=0;whiteSpace=wrap;html=1;" parent="1" vertex="1">
          <mxGeometry x="630" y="410" width="120" height="60" as="geometry" />
        </mxCell>
        <mxCell id="hF8GJbH4QlHRkwEJSHVu-54" style="edgeStyle=orthogonalEdgeStyle;rounded=0;orthogonalLoop=1;jettySize=auto;html=1;exitX=0.5;exitY=1;exitDx=0;exitDy=0;entryX=0.5;entryY=0;entryDx=0;entryDy=0;" parent="1" source="hF8GJbH4QlHRkwEJSHVu-51" target="hF8GJbH4QlHRkwEJSHVu-53" edge="1">
          <mxGeometry relative="1" as="geometry" />
        </mxCell>
        <mxCell id="hF8GJbH4QlHRkwEJSHVu-51" value="enqueueUpdate" style="rounded=0;whiteSpace=wrap;html=1;" parent="1" vertex="1">
          <mxGeometry x="630" y="500" width="120" height="60" as="geometry" />
        </mxCell>
        <mxCell id="hF8GJbH4QlHRkwEJSHVu-56" style="edgeStyle=orthogonalEdgeStyle;rounded=0;orthogonalLoop=1;jettySize=auto;html=1;exitX=0.5;exitY=1;exitDx=0;exitDy=0;entryX=0.5;entryY=0;entryDx=0;entryDy=0;" parent="1" source="hF8GJbH4QlHRkwEJSHVu-53" target="hF8GJbH4QlHRkwEJSHVu-55" edge="1">
          <mxGeometry relative="1" as="geometry" />
        </mxCell>
        <mxCell id="hF8GJbH4QlHRkwEJSHVu-53" value="scheduleUpdateOnFiber" style="rounded=0;whiteSpace=wrap;html=1;" parent="1" vertex="1">
          <mxGeometry x="615" y="600" width="150" height="60" as="geometry" />
        </mxCell>
        <mxCell id="hF8GJbH4QlHRkwEJSHVu-61" style="edgeStyle=orthogonalEdgeStyle;rounded=0;orthogonalLoop=1;jettySize=auto;html=1;exitX=0;exitY=0.5;exitDx=0;exitDy=0;entryX=0.5;entryY=0;entryDx=0;entryDy=0;" parent="1" source="hF8GJbH4QlHRkwEJSHVu-55" target="hF8GJbH4QlHRkwEJSHVu-59" edge="1">
          <mxGeometry relative="1" as="geometry" />
        </mxCell>
        <mxCell id="hF8GJbH4QlHRkwEJSHVu-242" value="true" style="edgeLabel;html=1;align=center;verticalAlign=middle;resizable=0;points=[];" parent="hF8GJbH4QlHRkwEJSHVu-61" vertex="1" connectable="0">
          <mxGeometry x="0.6168" y="-4" relative="1" as="geometry">
            <mxPoint as="offset" />
          </mxGeometry>
        </mxCell>
        <mxCell id="hF8GJbH4QlHRkwEJSHVu-70" style="edgeStyle=orthogonalEdgeStyle;rounded=0;orthogonalLoop=1;jettySize=auto;html=1;exitX=1;exitY=0.5;exitDx=0;exitDy=0;" parent="1" source="hF8GJbH4QlHRkwEJSHVu-55" target="hF8GJbH4QlHRkwEJSHVu-68" edge="1">
          <mxGeometry relative="1" as="geometry" />
        </mxCell>
        <mxCell id="hF8GJbH4QlHRkwEJSHVu-241" value="false" style="edgeLabel;html=1;align=center;verticalAlign=middle;resizable=0;points=[];" parent="hF8GJbH4QlHRkwEJSHVu-70" vertex="1" connectable="0">
          <mxGeometry x="-0.5472" relative="1" as="geometry">
            <mxPoint as="offset" />
          </mxGeometry>
        </mxCell>
        <mxCell id="hF8GJbH4QlHRkwEJSHVu-55" value="lane === SyncLane" style="rhombus;whiteSpace=wrap;html=1;" parent="1" vertex="1">
          <mxGeometry x="610" y="690" width="160" height="60" as="geometry" />
        </mxCell>
        <mxCell id="hF8GJbH4QlHRkwEJSHVu-75" style="edgeStyle=orthogonalEdgeStyle;rounded=0;orthogonalLoop=1;jettySize=auto;html=1;exitX=0;exitY=0.5;exitDx=0;exitDy=0;entryX=0.5;entryY=0;entryDx=0;entryDy=0;" parent="1" source="hF8GJbH4QlHRkwEJSHVu-59" target="hF8GJbH4QlHRkwEJSHVu-72" edge="1">
          <mxGeometry relative="1" as="geometry" />
        </mxCell>
        <mxCell id="5I4GJiklxZvYFQcEl-Lj-18" style="edgeStyle=orthogonalEdgeStyle;rounded=0;orthogonalLoop=1;jettySize=auto;html=1;exitX=0.5;exitY=1;exitDx=0;exitDy=0;entryX=0.5;entryY=0;entryDx=0;entryDy=0;" parent="1" source="hF8GJbH4QlHRkwEJSHVu-59" target="hF8GJbH4QlHRkwEJSHVu-68" edge="1">
          <mxGeometry relative="1" as="geometry">
            <mxPoint x="1210" y="870" as="targetPoint" />
            <Array as="points">
              <mxPoint x="470" y="815" />
              <mxPoint x="2090" y="815" />
            </Array>
          </mxGeometry>
        </mxCell>
        <mxCell id="hF8GJbH4QlHRkwEJSHVu-59" value="performSyncWorkOnRoot" style="rounded=0;whiteSpace=wrap;html=1;" parent="1" vertex="1">
          <mxGeometry x="390" y="800" width="160" height="30" as="geometry" />
        </mxCell>
        <mxCell id="5I4GJiklxZvYFQcEl-Lj-20" style="edgeStyle=orthogonalEdgeStyle;rounded=0;orthogonalLoop=1;jettySize=auto;html=1;exitX=0.5;exitY=1;exitDx=0;exitDy=0;" parent="1" source="hF8GJbH4QlHRkwEJSHVu-68" target="5I4GJiklxZvYFQcEl-Lj-21" edge="1">
          <mxGeometry relative="1" as="geometry">
            <mxPoint x="2089.4705882352946" y="970" as="targetPoint" />
          </mxGeometry>
        </mxCell>
        <mxCell id="hF8GJbH4QlHRkwEJSHVu-68" value="ensureRootIsScheduled" style="rounded=0;whiteSpace=wrap;html=1;" parent="1" vertex="1">
          <mxGeometry x="2010" y="900" width="160" height="30" as="geometry" />
        </mxCell>
        <mxCell id="hF8GJbH4QlHRkwEJSHVu-74" style="edgeStyle=orthogonalEdgeStyle;rounded=0;orthogonalLoop=1;jettySize=auto;html=1;exitX=0.5;exitY=1;exitDx=0;exitDy=0;" parent="1" source="hF8GJbH4QlHRkwEJSHVu-72" edge="1">
          <mxGeometry relative="1" as="geometry">
            <mxPoint x="325" y="940" as="targetPoint" />
          </mxGeometry>
        </mxCell>
        <mxCell id="hF8GJbH4QlHRkwEJSHVu-247" style="edgeStyle=orthogonalEdgeStyle;rounded=0;orthogonalLoop=1;jettySize=auto;html=1;exitX=1;exitY=0.5;exitDx=0;exitDy=0;" parent="1" source="hF8GJbH4QlHRkwEJSHVu-72" target="hF8GJbH4QlHRkwEJSHVu-244" edge="1">
          <mxGeometry relative="1" as="geometry" />
        </mxCell>
        <mxCell id="hF8GJbH4QlHRkwEJSHVu-72" value="renderRootSync" style="rounded=0;whiteSpace=wrap;html=1;" parent="1" vertex="1">
          <mxGeometry x="270" y="860" width="110" height="30" as="geometry" />
        </mxCell>
        <mxCell id="hF8GJbH4QlHRkwEJSHVu-79" style="edgeStyle=orthogonalEdgeStyle;rounded=0;orthogonalLoop=1;jettySize=auto;html=1;exitX=0.5;exitY=1;exitDx=0;exitDy=0;entryX=0.5;entryY=0;entryDx=0;entryDy=0;" parent="1" source="hF8GJbH4QlHRkwEJSHVu-76" target="hF8GJbH4QlHRkwEJSHVu-78" edge="1">
          <mxGeometry relative="1" as="geometry" />
        </mxCell>
        <mxCell id="hF8GJbH4QlHRkwEJSHVu-76" value="prepareFreshStack" style="rounded=0;whiteSpace=wrap;html=1;" parent="1" vertex="1">
          <mxGeometry x="265" y="940" width="120" height="30" as="geometry" />
        </mxCell>
        <mxCell id="hF8GJbH4QlHRkwEJSHVu-81" style="edgeStyle=orthogonalEdgeStyle;rounded=0;orthogonalLoop=1;jettySize=auto;html=1;exitX=0.5;exitY=1;exitDx=0;exitDy=0;entryX=0.5;entryY=0;entryDx=0;entryDy=0;" parent="1" source="hF8GJbH4QlHRkwEJSHVu-78" target="hF8GJbH4QlHRkwEJSHVu-80" edge="1">
          <mxGeometry relative="1" as="geometry" />
        </mxCell>
        <mxCell id="hF8GJbH4QlHRkwEJSHVu-78" value="workLoopSync" style="rounded=0;whiteSpace=wrap;html=1;" parent="1" vertex="1">
          <mxGeometry x="265" y="1010" width="120" height="30" as="geometry" />
        </mxCell>
        <mxCell id="hF8GJbH4QlHRkwEJSHVu-86" style="edgeStyle=orthogonalEdgeStyle;rounded=0;orthogonalLoop=1;jettySize=auto;html=1;exitX=0;exitY=0.5;exitDx=0;exitDy=0;entryX=0.5;entryY=0;entryDx=0;entryDy=0;" parent="1" source="hF8GJbH4QlHRkwEJSHVu-80" target="hF8GJbH4QlHRkwEJSHVu-82" edge="1">
          <mxGeometry relative="1" as="geometry" />
        </mxCell>
        <mxCell id="hF8GJbH4QlHRkwEJSHVu-88" style="edgeStyle=orthogonalEdgeStyle;rounded=0;orthogonalLoop=1;jettySize=auto;html=1;exitX=1;exitY=0.5;exitDx=0;exitDy=0;entryX=0.5;entryY=0;entryDx=0;entryDy=0;" parent="1" source="hF8GJbH4QlHRkwEJSHVu-80" target="hF8GJbH4QlHRkwEJSHVu-87" edge="1">
          <mxGeometry relative="1" as="geometry" />
        </mxCell>
        <mxCell id="hF8GJbH4QlHRkwEJSHVu-80" value="performUnitOfWork" style="rounded=0;whiteSpace=wrap;html=1;" parent="1" vertex="1">
          <mxGeometry x="265" y="1080" width="120" height="30" as="geometry" />
        </mxCell>
        <mxCell id="hF8GJbH4QlHRkwEJSHVu-92" style="edgeStyle=orthogonalEdgeStyle;rounded=0;orthogonalLoop=1;jettySize=auto;html=1;exitX=0.5;exitY=1;exitDx=0;exitDy=0;entryX=0.5;entryY=0;entryDx=0;entryDy=0;" parent="1" source="hF8GJbH4QlHRkwEJSHVu-82" target="hF8GJbH4QlHRkwEJSHVu-90" edge="1">
          <mxGeometry relative="1" as="geometry" />
        </mxCell>
        <mxCell id="hF8GJbH4QlHRkwEJSHVu-206" style="edgeStyle=orthogonalEdgeStyle;rounded=0;orthogonalLoop=1;jettySize=auto;html=1;exitX=1;exitY=0.5;exitDx=0;exitDy=0;entryX=0;entryY=0.5;entryDx=0;entryDy=0;" parent="1" source="hF8GJbH4QlHRkwEJSHVu-82" target="hF8GJbH4QlHRkwEJSHVu-87" edge="1">
          <mxGeometry relative="1" as="geometry" />
        </mxCell>
        <mxCell id="hF8GJbH4QlHRkwEJSHVu-207" value="next === null" style="edgeLabel;html=1;align=center;verticalAlign=middle;resizable=0;points=[];" parent="hF8GJbH4QlHRkwEJSHVu-206" vertex="1" connectable="0">
          <mxGeometry x="-0.1437" y="-1" relative="1" as="geometry">
            <mxPoint as="offset" />
          </mxGeometry>
        </mxCell>
        <mxCell id="hF8GJbH4QlHRkwEJSHVu-82" value="beforeWork" style="rounded=0;whiteSpace=wrap;html=1;" parent="1" vertex="1">
          <mxGeometry x="-30" y="1130" width="120" height="30" as="geometry" />
        </mxCell>
        <mxCell id="hF8GJbH4QlHRkwEJSHVu-210" style="edgeStyle=orthogonalEdgeStyle;rounded=0;orthogonalLoop=1;jettySize=auto;html=1;exitX=0.5;exitY=1;exitDx=0;exitDy=0;entryX=0.5;entryY=0;entryDx=0;entryDy=0;" parent="1" source="hF8GJbH4QlHRkwEJSHVu-87" target="hF8GJbH4QlHRkwEJSHVu-209" edge="1">
          <mxGeometry relative="1" as="geometry" />
        </mxCell>
        <mxCell id="hF8GJbH4QlHRkwEJSHVu-87" value="completeWork" style="rounded=0;whiteSpace=wrap;html=1;" parent="1" vertex="1">
          <mxGeometry x="570" y="1130" width="120" height="30" as="geometry" />
        </mxCell>
        <mxCell id="hF8GJbH4QlHRkwEJSHVu-95" style="edgeStyle=orthogonalEdgeStyle;rounded=0;orthogonalLoop=1;jettySize=auto;html=1;exitX=0;exitY=0.5;exitDx=0;exitDy=0;" parent="1" source="hF8GJbH4QlHRkwEJSHVu-90" edge="1">
          <mxGeometry relative="1" as="geometry">
            <mxPoint x="-160" y="1320" as="targetPoint" />
          </mxGeometry>
        </mxCell>
        <mxCell id="hF8GJbH4QlHRkwEJSHVu-113" value="&lt;span style=&quot;font-size: 12px ; background-color: rgb(248 , 249 , 250)&quot;&gt;update更新&lt;/span&gt;" style="edgeLabel;html=1;align=center;verticalAlign=middle;resizable=0;points=[];" parent="hF8GJbH4QlHRkwEJSHVu-95" vertex="1" connectable="0">
          <mxGeometry x="0.5385" y="-2" relative="1" as="geometry">
            <mxPoint as="offset" />
          </mxGeometry>
        </mxCell>
        <mxCell id="hF8GJbH4QlHRkwEJSHVu-96" style="edgeStyle=orthogonalEdgeStyle;rounded=0;orthogonalLoop=1;jettySize=auto;html=1;exitX=1;exitY=0.5;exitDx=0;exitDy=0;entryX=0.5;entryY=0;entryDx=0;entryDy=0;" parent="1" source="hF8GJbH4QlHRkwEJSHVu-90" target="hF8GJbH4QlHRkwEJSHVu-94" edge="1">
          <mxGeometry relative="1" as="geometry" />
        </mxCell>
        <mxCell id="hF8GJbH4QlHRkwEJSHVu-114" value="&lt;span style=&quot;font-size: 12px ; background-color: rgb(248 , 249 , 250)&quot;&gt;mount创建&lt;/span&gt;" style="edgeLabel;html=1;align=center;verticalAlign=middle;resizable=0;points=[];" parent="hF8GJbH4QlHRkwEJSHVu-96" vertex="1" connectable="0">
          <mxGeometry x="0.5569" relative="1" as="geometry">
            <mxPoint y="1" as="offset" />
          </mxGeometry>
        </mxCell>
        <mxCell id="hF8GJbH4QlHRkwEJSHVu-90" value="current !== null" style="rhombus;whiteSpace=wrap;html=1;" parent="1" vertex="1">
          <mxGeometry x="-35" y="1210" width="130" height="80" as="geometry" />
        </mxCell>
        <mxCell id="5I4GJiklxZvYFQcEl-Lj-56" style="edgeStyle=orthogonalEdgeStyle;rounded=0;orthogonalLoop=1;jettySize=auto;html=1;exitX=0.5;exitY=1;exitDx=0;exitDy=0;fontColor=#1F5AFF;entryX=1;entryY=0.5;entryDx=0;entryDy=0;" parent="1" source="hF8GJbH4QlHRkwEJSHVu-94" target="hF8GJbH4QlHRkwEJSHVu-121" edge="1">
          <mxGeometry relative="1" as="geometry">
            <mxPoint x="-150" y="1640" as="targetPoint" />
            <Array as="points">
              <mxPoint x="188" y="1640" />
            </Array>
          </mxGeometry>
        </mxCell>
        <mxCell id="hF8GJbH4QlHRkwEJSHVu-94" value="didReceiveUpdate = false" style="rounded=0;whiteSpace=wrap;html=1;" parent="1" vertex="1">
          <mxGeometry x="110" y="1320" width="155" height="40" as="geometry" />
        </mxCell>
        <mxCell id="hF8GJbH4QlHRkwEJSHVu-106" style="edgeStyle=orthogonalEdgeStyle;rounded=0;orthogonalLoop=1;jettySize=auto;html=1;exitX=0;exitY=0.5;exitDx=0;exitDy=0;" parent="1" source="hF8GJbH4QlHRkwEJSHVu-105" target="hF8GJbH4QlHRkwEJSHVu-109" edge="1">
          <mxGeometry relative="1" as="geometry">
            <mxPoint x="-320" y="1420" as="targetPoint" />
          </mxGeometry>
        </mxCell>
        <mxCell id="hF8GJbH4QlHRkwEJSHVu-111" value="true" style="edgeLabel;html=1;align=center;verticalAlign=middle;resizable=0;points=[];" parent="hF8GJbH4QlHRkwEJSHVu-106" vertex="1" connectable="0">
          <mxGeometry x="0.4667" y="-1" relative="1" as="geometry">
            <mxPoint as="offset" />
          </mxGeometry>
        </mxCell>
        <mxCell id="hF8GJbH4QlHRkwEJSHVu-107" style="edgeStyle=orthogonalEdgeStyle;rounded=0;orthogonalLoop=1;jettySize=auto;html=1;exitX=1;exitY=0.5;exitDx=0;exitDy=0;" parent="1" source="hF8GJbH4QlHRkwEJSHVu-105" target="hF8GJbH4QlHRkwEJSHVu-108" edge="1">
          <mxGeometry relative="1" as="geometry">
            <mxPoint x="-20" y="1430" as="targetPoint" />
          </mxGeometry>
        </mxCell>
        <mxCell id="hF8GJbH4QlHRkwEJSHVu-112" value="false" style="edgeLabel;html=1;align=center;verticalAlign=middle;resizable=0;points=[];" parent="hF8GJbH4QlHRkwEJSHVu-107" vertex="1" connectable="0">
          <mxGeometry x="0.42" relative="1" as="geometry">
            <mxPoint as="offset" />
          </mxGeometry>
        </mxCell>
        <mxCell id="hF8GJbH4QlHRkwEJSHVu-105" value="&lt;span style=&quot;color: rgb(0 , 0 , 0) ; font-family: &amp;#34;helvetica&amp;#34; ; font-size: 12px ; font-style: normal ; font-weight: 400 ; letter-spacing: normal ; text-align: center ; text-indent: 0px ; text-transform: none ; word-spacing: 0px ; background-color: rgb(248 , 249 , 250) ; display: inline ; float: none&quot;&gt;didReceiveUpdate&lt;/span&gt;" style="rhombus;whiteSpace=wrap;html=1;" parent="1" vertex="1">
          <mxGeometry x="-250" y="1320" width="180" height="60" as="geometry" />
        </mxCell>
        <mxCell id="hF8GJbH4QlHRkwEJSHVu-117" style="edgeStyle=orthogonalEdgeStyle;rounded=0;orthogonalLoop=1;jettySize=auto;html=1;exitX=0.5;exitY=1;exitDx=0;exitDy=0;entryX=0.5;entryY=0;entryDx=0;entryDy=0;" parent="1" source="hF8GJbH4QlHRkwEJSHVu-108" target="hF8GJbH4QlHRkwEJSHVu-116" edge="1">
          <mxGeometry relative="1" as="geometry" />
        </mxCell>
        <mxCell id="hF8GJbH4QlHRkwEJSHVu-108" value="!includesSomeLane(renderLanes, updateLanes)" style="rounded=0;whiteSpace=wrap;html=1;" parent="1" vertex="1">
          <mxGeometry x="-100" y="1410" width="190" height="30" as="geometry" />
        </mxCell>
        <mxCell id="hF8GJbH4QlHRkwEJSHVu-122" style="edgeStyle=orthogonalEdgeStyle;rounded=0;orthogonalLoop=1;jettySize=auto;html=1;exitX=0.5;exitY=1;exitDx=0;exitDy=0;entryX=0;entryY=0.5;entryDx=0;entryDy=0;" parent="1" source="hF8GJbH4QlHRkwEJSHVu-109" target="hF8GJbH4QlHRkwEJSHVu-121" edge="1">
          <mxGeometry relative="1" as="geometry" />
        </mxCell>
        <mxCell id="hF8GJbH4QlHRkwEJSHVu-109" value="oldProps !== newProps || wip.type !== current.type" style="rounded=0;whiteSpace=wrap;html=1;" parent="1" vertex="1">
          <mxGeometry x="-370" y="1410" width="190" height="30" as="geometry" />
        </mxCell>
        <mxCell id="hF8GJbH4QlHRkwEJSHVu-115" style="edgeStyle=orthogonalEdgeStyle;rounded=0;orthogonalLoop=1;jettySize=auto;html=1;exitX=0.5;exitY=1;exitDx=0;exitDy=0;" parent="1" source="hF8GJbH4QlHRkwEJSHVu-109" target="hF8GJbH4QlHRkwEJSHVu-109" edge="1">
          <mxGeometry relative="1" as="geometry" />
        </mxCell>
        <mxCell id="hF8GJbH4QlHRkwEJSHVu-119" style="edgeStyle=orthogonalEdgeStyle;rounded=0;orthogonalLoop=1;jettySize=auto;html=1;exitX=0.5;exitY=1;exitDx=0;exitDy=0;entryX=0.5;entryY=0;entryDx=0;entryDy=0;" parent="1" source="hF8GJbH4QlHRkwEJSHVu-116" target="hF8GJbH4QlHRkwEJSHVu-118" edge="1">
          <mxGeometry relative="1" as="geometry" />
        </mxCell>
        <mxCell id="hF8GJbH4QlHRkwEJSHVu-116" value="bailoutOnAlreadyFinishedWork" style="rounded=0;whiteSpace=wrap;html=1;" parent="1" vertex="1">
          <mxGeometry x="-90" y="1480" width="170" height="30" as="geometry" />
        </mxCell>
        <mxCell id="hF8GJbH4QlHRkwEJSHVu-123" style="edgeStyle=orthogonalEdgeStyle;rounded=0;orthogonalLoop=1;jettySize=auto;html=1;exitX=0.5;exitY=1;exitDx=0;exitDy=0;entryX=1;entryY=0.5;entryDx=0;entryDy=0;" parent="1" source="hF8GJbH4QlHRkwEJSHVu-118" target="hF8GJbH4QlHRkwEJSHVu-121" edge="1">
          <mxGeometry relative="1" as="geometry" />
        </mxCell>
        <mxCell id="hF8GJbH4QlHRkwEJSHVu-118" value="&lt;div style=&quot;line-height: 18px&quot;&gt;&lt;span style=&quot;background-color: rgb(255 , 255 , 255)&quot;&gt;cloneChildFibers&lt;/span&gt;&lt;br&gt;&lt;/div&gt;" style="rounded=0;whiteSpace=wrap;html=1;" parent="1" vertex="1">
          <mxGeometry x="-90" y="1540" width="170" height="30" as="geometry" />
        </mxCell>
        <mxCell id="hF8GJbH4QlHRkwEJSHVu-124" style="edgeStyle=orthogonalEdgeStyle;rounded=0;orthogonalLoop=1;jettySize=auto;html=1;exitX=0.5;exitY=1;exitDx=0;exitDy=0;" parent="1" source="hF8GJbH4QlHRkwEJSHVu-121" target="hF8GJbH4QlHRkwEJSHVu-125" edge="1">
          <mxGeometry relative="1" as="geometry">
            <mxPoint x="-330" y="1730" as="targetPoint" />
          </mxGeometry>
        </mxCell>
        <mxCell id="hF8GJbH4QlHRkwEJSHVu-128" style="edgeStyle=orthogonalEdgeStyle;rounded=0;orthogonalLoop=1;jettySize=auto;html=1;exitX=0.5;exitY=1;exitDx=0;exitDy=0;entryX=0.5;entryY=0;entryDx=0;entryDy=0;" parent="1" source="hF8GJbH4QlHRkwEJSHVu-121" target="hF8GJbH4QlHRkwEJSHVu-129" edge="1">
          <mxGeometry relative="1" as="geometry">
            <mxPoint x="10" y="1710" as="targetPoint" />
          </mxGeometry>
        </mxCell>
        <mxCell id="hF8GJbH4QlHRkwEJSHVu-135" style="edgeStyle=orthogonalEdgeStyle;rounded=0;orthogonalLoop=1;jettySize=auto;html=1;exitX=0.5;exitY=1;exitDx=0;exitDy=0;entryX=0.5;entryY=0;entryDx=0;entryDy=0;" parent="1" source="hF8GJbH4QlHRkwEJSHVu-121" target="hF8GJbH4QlHRkwEJSHVu-127" edge="1">
          <mxGeometry relative="1" as="geometry" />
        </mxCell>
        <mxCell id="hF8GJbH4QlHRkwEJSHVu-121" value="workInProgress.tag" style="rhombus;whiteSpace=wrap;html=1;" parent="1" vertex="1">
          <mxGeometry x="-305" y="1610" width="150" height="60" as="geometry" />
        </mxCell>
        <mxCell id="hF8GJbH4QlHRkwEJSHVu-132" style="edgeStyle=orthogonalEdgeStyle;rounded=0;orthogonalLoop=1;jettySize=auto;html=1;exitX=0.5;exitY=1;exitDx=0;exitDy=0;entryX=0.5;entryY=0;entryDx=0;entryDy=0;" parent="1" source="hF8GJbH4QlHRkwEJSHVu-125" target="hF8GJbH4QlHRkwEJSHVu-131" edge="1">
          <mxGeometry relative="1" as="geometry" />
        </mxCell>
        <mxCell id="hF8GJbH4QlHRkwEJSHVu-125" value="FunctionComponent" style="rounded=0;whiteSpace=wrap;html=1;" parent="1" vertex="1">
          <mxGeometry x="-490" y="1710" width="120" height="30" as="geometry" />
        </mxCell>
        <mxCell id="hF8GJbH4QlHRkwEJSHVu-134" style="edgeStyle=orthogonalEdgeStyle;rounded=0;orthogonalLoop=1;jettySize=auto;html=1;exitX=0.5;exitY=1;exitDx=0;exitDy=0;entryX=0.5;entryY=0;entryDx=0;entryDy=0;" parent="1" source="hF8GJbH4QlHRkwEJSHVu-127" target="hF8GJbH4QlHRkwEJSHVu-133" edge="1">
          <mxGeometry relative="1" as="geometry" />
        </mxCell>
        <mxCell id="hF8GJbH4QlHRkwEJSHVu-127" value="ClassComponent" style="rounded=0;whiteSpace=wrap;html=1;" parent="1" vertex="1">
          <mxGeometry x="-290" y="1710" width="120" height="30" as="geometry" />
        </mxCell>
        <mxCell id="hF8GJbH4QlHRkwEJSHVu-137" style="edgeStyle=orthogonalEdgeStyle;rounded=0;orthogonalLoop=1;jettySize=auto;html=1;exitX=0.5;exitY=1;exitDx=0;exitDy=0;" parent="1" source="hF8GJbH4QlHRkwEJSHVu-129" target="hF8GJbH4QlHRkwEJSHVu-136" edge="1">
          <mxGeometry relative="1" as="geometry" />
        </mxCell>
        <mxCell id="hF8GJbH4QlHRkwEJSHVu-129" value="HostComponent" style="rounded=0;whiteSpace=wrap;html=1;" parent="1" vertex="1">
          <mxGeometry x="-100" y="1710" width="120" height="30" as="geometry" />
        </mxCell>
        <mxCell id="hF8GJbH4QlHRkwEJSHVu-144" style="edgeStyle=orthogonalEdgeStyle;rounded=0;orthogonalLoop=1;jettySize=auto;html=1;exitX=0.5;exitY=1;exitDx=0;exitDy=0;entryX=0.5;entryY=0;entryDx=0;entryDy=0;" parent="1" source="hF8GJbH4QlHRkwEJSHVu-131" target="hF8GJbH4QlHRkwEJSHVu-143" edge="1">
          <mxGeometry relative="1" as="geometry" />
        </mxCell>
        <mxCell id="hF8GJbH4QlHRkwEJSHVu-131" value="updateFunctionComponent" style="rounded=0;whiteSpace=wrap;html=1;" parent="1" vertex="1">
          <mxGeometry x="-500" y="1770" width="145" height="30" as="geometry" />
        </mxCell>
        <mxCell id="5I4GJiklxZvYFQcEl-Lj-92" style="edgeStyle=orthogonalEdgeStyle;rounded=0;orthogonalLoop=1;jettySize=auto;html=1;exitX=0.5;exitY=1;exitDx=0;exitDy=0;entryX=0.5;entryY=0;entryDx=0;entryDy=0;fontColor=#000000;" parent="1" source="hF8GJbH4QlHRkwEJSHVu-133" target="hF8GJbH4QlHRkwEJSHVu-138" edge="1">
          <mxGeometry relative="1" as="geometry" />
        </mxCell>
        <mxCell id="5I4GJiklxZvYFQcEl-Lj-99" style="edgeStyle=orthogonalEdgeStyle;rounded=0;orthogonalLoop=1;jettySize=auto;html=1;exitX=0.75;exitY=1;exitDx=0;exitDy=0;entryX=0.5;entryY=0;entryDx=0;entryDy=0;fontColor=#000000;" parent="1" source="hF8GJbH4QlHRkwEJSHVu-133" target="5I4GJiklxZvYFQcEl-Lj-98" edge="1">
          <mxGeometry relative="1" as="geometry" />
        </mxCell>
        <mxCell id="hF8GJbH4QlHRkwEJSHVu-133" value="updateClassComponent" style="rounded=0;whiteSpace=wrap;html=1;" parent="1" vertex="1">
          <mxGeometry x="-297.5" y="1770" width="135" height="30" as="geometry" />
        </mxCell>
        <mxCell id="hF8GJbH4QlHRkwEJSHVu-139" style="edgeStyle=orthogonalEdgeStyle;rounded=0;orthogonalLoop=1;jettySize=auto;html=1;exitX=0.5;exitY=1;exitDx=0;exitDy=0;entryX=0.5;entryY=0;entryDx=0;entryDy=0;" parent="1" source="hF8GJbH4QlHRkwEJSHVu-136" target="hF8GJbH4QlHRkwEJSHVu-138" edge="1">
          <mxGeometry relative="1" as="geometry">
            <Array as="points">
              <mxPoint x="-40" y="1900" />
              <mxPoint x="-230" y="1900" />
            </Array>
          </mxGeometry>
        </mxCell>
        <mxCell id="5I4GJiklxZvYFQcEl-Lj-100" style="edgeStyle=orthogonalEdgeStyle;rounded=0;orthogonalLoop=1;jettySize=auto;html=1;exitX=1;exitY=0.5;exitDx=0;exitDy=0;fontColor=#000000;" parent="1" source="hF8GJbH4QlHRkwEJSHVu-136" edge="1">
          <mxGeometry relative="1" as="geometry">
            <mxPoint x="160" y="1850" as="targetPoint" />
            <Array as="points">
              <mxPoint x="160" y="1785" />
            </Array>
          </mxGeometry>
        </mxCell>
        <mxCell id="hF8GJbH4QlHRkwEJSHVu-136" value="updateHostComponent" style="rounded=0;whiteSpace=wrap;html=1;" parent="1" vertex="1">
          <mxGeometry x="-107.5" y="1770" width="135" height="30" as="geometry" />
        </mxCell>
        <mxCell id="hF8GJbH4QlHRkwEJSHVu-147" style="edgeStyle=orthogonalEdgeStyle;rounded=0;orthogonalLoop=1;jettySize=auto;html=1;exitX=0.5;exitY=1;exitDx=0;exitDy=0;entryX=0.5;entryY=0;entryDx=0;entryDy=0;" parent="1" source="hF8GJbH4QlHRkwEJSHVu-138" target="hF8GJbH4QlHRkwEJSHVu-146" edge="1">
          <mxGeometry relative="1" as="geometry" />
        </mxCell>
        <mxCell id="hF8GJbH4QlHRkwEJSHVu-138" value="reconcileChildren" style="rounded=0;whiteSpace=wrap;html=1;" parent="1" vertex="1">
          <mxGeometry x="-302.5" y="1930" width="145" height="30" as="geometry" />
        </mxCell>
        <mxCell id="hF8GJbH4QlHRkwEJSHVu-145" style="edgeStyle=orthogonalEdgeStyle;rounded=0;orthogonalLoop=1;jettySize=auto;html=1;exitX=0.5;exitY=1;exitDx=0;exitDy=0;entryX=0.5;entryY=0;entryDx=0;entryDy=0;" parent="1" source="hF8GJbH4QlHRkwEJSHVu-143" target="hF8GJbH4QlHRkwEJSHVu-138" edge="1">
          <mxGeometry relative="1" as="geometry" />
        </mxCell>
        <mxCell id="hF8GJbH4QlHRkwEJSHVu-143" value="renderWithHooks" style="rounded=0;whiteSpace=wrap;html=1;" parent="1" vertex="1">
          <mxGeometry x="-500" y="1840" width="145" height="30" as="geometry" />
        </mxCell>
        <mxCell id="hF8GJbH4QlHRkwEJSHVu-148" style="edgeStyle=orthogonalEdgeStyle;rounded=0;orthogonalLoop=1;jettySize=auto;html=1;exitX=0;exitY=0.5;exitDx=0;exitDy=0;" parent="1" source="hF8GJbH4QlHRkwEJSHVu-146" target="hF8GJbH4QlHRkwEJSHVu-151" edge="1">
          <mxGeometry relative="1" as="geometry">
            <mxPoint x="-380" y="2080" as="targetPoint" />
          </mxGeometry>
        </mxCell>
        <mxCell id="hF8GJbH4QlHRkwEJSHVu-152" value="true" style="edgeLabel;html=1;align=center;verticalAlign=middle;resizable=0;points=[];" parent="hF8GJbH4QlHRkwEJSHVu-148" vertex="1" connectable="0">
          <mxGeometry x="0.4286" y="-1" relative="1" as="geometry">
            <mxPoint as="offset" />
          </mxGeometry>
        </mxCell>
        <mxCell id="hF8GJbH4QlHRkwEJSHVu-149" style="edgeStyle=orthogonalEdgeStyle;rounded=0;orthogonalLoop=1;jettySize=auto;html=1;exitX=1;exitY=0.5;exitDx=0;exitDy=0;" parent="1" source="hF8GJbH4QlHRkwEJSHVu-146" target="hF8GJbH4QlHRkwEJSHVu-150" edge="1">
          <mxGeometry relative="1" as="geometry">
            <mxPoint x="-110" y="2080" as="targetPoint" />
          </mxGeometry>
        </mxCell>
        <mxCell id="hF8GJbH4QlHRkwEJSHVu-153" value="false" style="edgeLabel;html=1;align=center;verticalAlign=middle;resizable=0;points=[];" parent="hF8GJbH4QlHRkwEJSHVu-149" vertex="1" connectable="0">
          <mxGeometry x="-0.0133" y="-2" relative="1" as="geometry">
            <mxPoint as="offset" />
          </mxGeometry>
        </mxCell>
        <mxCell id="hF8GJbH4QlHRkwEJSHVu-146" value="current !== null" style="rhombus;whiteSpace=wrap;html=1;" parent="1" vertex="1">
          <mxGeometry x="-310" y="1990" width="160" height="50" as="geometry" />
        </mxCell>
        <mxCell id="hF8GJbH4QlHRkwEJSHVu-156" style="edgeStyle=orthogonalEdgeStyle;rounded=0;orthogonalLoop=1;jettySize=auto;html=1;exitX=0.5;exitY=1;exitDx=0;exitDy=0;" parent="1" source="hF8GJbH4QlHRkwEJSHVu-150" target="hF8GJbH4QlHRkwEJSHVu-157" edge="1">
          <mxGeometry relative="1" as="geometry">
            <mxPoint x="-230" y="2150" as="targetPoint" />
          </mxGeometry>
        </mxCell>
        <mxCell id="hF8GJbH4QlHRkwEJSHVu-150" value="mountChildFibers" style="rounded=0;whiteSpace=wrap;html=1;" parent="1" vertex="1">
          <mxGeometry x="-170" y="2050" width="120" height="40" as="geometry" />
        </mxCell>
        <mxCell id="hF8GJbH4QlHRkwEJSHVu-155" style="edgeStyle=orthogonalEdgeStyle;rounded=0;orthogonalLoop=1;jettySize=auto;html=1;exitX=0.5;exitY=1;exitDx=0;exitDy=0;" parent="1" source="hF8GJbH4QlHRkwEJSHVu-151" edge="1">
          <mxGeometry relative="1" as="geometry">
            <mxPoint x="-230" y="2150" as="targetPoint" />
          </mxGeometry>
        </mxCell>
        <mxCell id="hF8GJbH4QlHRkwEJSHVu-151" value="reconcileChildFibers" style="rounded=0;whiteSpace=wrap;html=1;" parent="1" vertex="1">
          <mxGeometry x="-440" y="2050" width="120" height="40" as="geometry" />
        </mxCell>
        <mxCell id="hF8GJbH4QlHRkwEJSHVu-159" style="edgeStyle=orthogonalEdgeStyle;rounded=0;orthogonalLoop=1;jettySize=auto;html=1;exitX=0.5;exitY=1;exitDx=0;exitDy=0;" parent="1" source="hF8GJbH4QlHRkwEJSHVu-157" target="hF8GJbH4QlHRkwEJSHVu-160" edge="1">
          <mxGeometry relative="1" as="geometry">
            <mxPoint x="-450" y="2240" as="targetPoint" />
          </mxGeometry>
        </mxCell>
        <mxCell id="hF8GJbH4QlHRkwEJSHVu-162" style="edgeStyle=orthogonalEdgeStyle;rounded=0;orthogonalLoop=1;jettySize=auto;html=1;exitX=0.5;exitY=1;exitDx=0;exitDy=0;entryX=0.5;entryY=0;entryDx=0;entryDy=0;" parent="1" source="hF8GJbH4QlHRkwEJSHVu-157" target="hF8GJbH4QlHRkwEJSHVu-161" edge="1">
          <mxGeometry relative="1" as="geometry" />
        </mxCell>
        <mxCell id="hF8GJbH4QlHRkwEJSHVu-157" value="ChildReconciler" style="rounded=0;whiteSpace=wrap;html=1;" parent="1" vertex="1">
          <mxGeometry x="-290" y="2150" width="120" height="40" as="geometry" />
        </mxCell>
        <mxCell id="hF8GJbH4QlHRkwEJSHVu-163" style="edgeStyle=orthogonalEdgeStyle;rounded=0;orthogonalLoop=1;jettySize=auto;html=1;exitX=0.5;exitY=1;exitDx=0;exitDy=0;" parent="1" source="hF8GJbH4QlHRkwEJSHVu-160" target="hF8GJbH4QlHRkwEJSHVu-164" edge="1">
          <mxGeometry relative="1" as="geometry">
            <mxPoint x="-430" y="2300" as="targetPoint" />
          </mxGeometry>
        </mxCell>
        <mxCell id="hF8GJbH4QlHRkwEJSHVu-160" value="isObject" style="rounded=0;whiteSpace=wrap;html=1;" parent="1" vertex="1">
          <mxGeometry x="-490" y="2240" width="120" height="30" as="geometry" />
        </mxCell>
        <mxCell id="hF8GJbH4QlHRkwEJSHVu-165" style="edgeStyle=orthogonalEdgeStyle;rounded=0;orthogonalLoop=1;jettySize=auto;html=1;exitX=0.5;exitY=1;exitDx=0;exitDy=0;" parent="1" source="hF8GJbH4QlHRkwEJSHVu-161" target="hF8GJbH4QlHRkwEJSHVu-166" edge="1">
          <mxGeometry relative="1" as="geometry">
            <mxPoint x="-47" y="2310" as="targetPoint" />
          </mxGeometry>
        </mxCell>
        <mxCell id="hF8GJbH4QlHRkwEJSHVu-161" value="isArray" style="rounded=0;whiteSpace=wrap;html=1;" parent="1" vertex="1">
          <mxGeometry x="-107.5" y="2240" width="120" height="30" as="geometry" />
        </mxCell>
        <mxCell id="hF8GJbH4QlHRkwEJSHVu-167" style="edgeStyle=orthogonalEdgeStyle;rounded=0;orthogonalLoop=1;jettySize=auto;html=1;exitX=0.5;exitY=1;exitDx=0;exitDy=0;" parent="1" source="hF8GJbH4QlHRkwEJSHVu-164" target="hF8GJbH4QlHRkwEJSHVu-168" edge="1">
          <mxGeometry relative="1" as="geometry">
            <mxPoint x="-430" y="2370" as="targetPoint" />
          </mxGeometry>
        </mxCell>
        <mxCell id="hF8GJbH4QlHRkwEJSHVu-164" value="reconcileSingleElement" style="rounded=0;whiteSpace=wrap;html=1;" parent="1" vertex="1">
          <mxGeometry x="-500" y="2300" width="140" height="30" as="geometry" />
        </mxCell>
        <mxCell id="hF8GJbH4QlHRkwEJSHVu-166" value="reconcileChildrenArray" style="rounded=0;whiteSpace=wrap;html=1;" parent="1" vertex="1">
          <mxGeometry x="-114" y="2300" width="133" height="30" as="geometry" />
        </mxCell>
        <mxCell id="hF8GJbH4QlHRkwEJSHVu-170" style="edgeStyle=orthogonalEdgeStyle;rounded=0;orthogonalLoop=1;jettySize=auto;html=1;exitX=1;exitY=0.5;exitDx=0;exitDy=0;entryX=0.5;entryY=0;entryDx=0;entryDy=0;" parent="1" source="hF8GJbH4QlHRkwEJSHVu-168" target="hF8GJbH4QlHRkwEJSHVu-201" edge="1">
          <mxGeometry relative="1" as="geometry">
            <mxPoint x="-320" y="2440" as="targetPoint" />
            <Array as="points">
              <mxPoint x="-350" y="2395" />
              <mxPoint x="-350" y="2730" />
              <mxPoint x="-550" y="2730" />
            </Array>
          </mxGeometry>
        </mxCell>
        <mxCell id="hF8GJbH4QlHRkwEJSHVu-174" value="false" style="edgeLabel;html=1;align=center;verticalAlign=middle;resizable=0;points=[];" parent="hF8GJbH4QlHRkwEJSHVu-170" vertex="1" connectable="0">
          <mxGeometry x="0.1368" y="-3" relative="1" as="geometry">
            <mxPoint as="offset" />
          </mxGeometry>
        </mxCell>
        <mxCell id="hF8GJbH4QlHRkwEJSHVu-181" style="edgeStyle=orthogonalEdgeStyle;rounded=0;orthogonalLoop=1;jettySize=auto;html=1;exitX=0;exitY=0.5;exitDx=0;exitDy=0;entryX=0.5;entryY=0;entryDx=0;entryDy=0;" parent="1" source="hF8GJbH4QlHRkwEJSHVu-168" target="hF8GJbH4QlHRkwEJSHVu-180" edge="1">
          <mxGeometry relative="1" as="geometry" />
        </mxCell>
        <mxCell id="hF8GJbH4QlHRkwEJSHVu-168" value="current !== null" style="rhombus;whiteSpace=wrap;html=1;" parent="1" vertex="1">
          <mxGeometry x="-490" y="2370" width="120" height="50" as="geometry" />
        </mxCell>
        <mxCell id="hF8GJbH4QlHRkwEJSHVu-179" style="edgeStyle=orthogonalEdgeStyle;rounded=0;orthogonalLoop=1;jettySize=auto;html=1;exitX=0.5;exitY=1;exitDx=0;exitDy=0;entryX=0.5;entryY=0;entryDx=0;entryDy=0;" parent="1" source="hF8GJbH4QlHRkwEJSHVu-176" target="hF8GJbH4QlHRkwEJSHVu-177" edge="1">
          <mxGeometry relative="1" as="geometry" />
        </mxCell>
        <mxCell id="hF8GJbH4QlHRkwEJSHVu-176" value="deleteRemainingChildren" style="rounded=0;whiteSpace=wrap;html=1;" parent="1" vertex="1">
          <mxGeometry x="-960" y="2650" width="140" height="30" as="geometry" />
        </mxCell>
        <mxCell id="hF8GJbH4QlHRkwEJSHVu-177" value="useFiber" style="rounded=0;whiteSpace=wrap;html=1;" parent="1" vertex="1">
          <mxGeometry x="-940" y="2730" width="100" height="30" as="geometry" />
        </mxCell>
        <mxCell id="hF8GJbH4QlHRkwEJSHVu-189" style="edgeStyle=orthogonalEdgeStyle;rounded=0;orthogonalLoop=1;jettySize=auto;html=1;exitX=0;exitY=0.5;exitDx=0;exitDy=0;entryX=0.5;entryY=0;entryDx=0;entryDy=0;" parent="1" source="hF8GJbH4QlHRkwEJSHVu-180" target="hF8GJbH4QlHRkwEJSHVu-186" edge="1">
          <mxGeometry relative="1" as="geometry" />
        </mxCell>
        <mxCell id="hF8GJbH4QlHRkwEJSHVu-190" style="edgeStyle=orthogonalEdgeStyle;rounded=0;orthogonalLoop=1;jettySize=auto;html=1;exitX=1;exitY=0.5;exitDx=0;exitDy=0;" parent="1" source="hF8GJbH4QlHRkwEJSHVu-180" target="hF8GJbH4QlHRkwEJSHVu-191" edge="1">
          <mxGeometry relative="1" as="geometry">
            <mxPoint x="-450" y="2550" as="targetPoint" />
          </mxGeometry>
        </mxCell>
        <mxCell id="hF8GJbH4QlHRkwEJSHVu-180" value="child.key === element.key" style="rhombus;whiteSpace=wrap;html=1;" parent="1" vertex="1">
          <mxGeometry x="-675" y="2440" width="190" height="50" as="geometry" />
        </mxCell>
        <mxCell id="hF8GJbH4QlHRkwEJSHVu-192" style="edgeStyle=orthogonalEdgeStyle;rounded=0;orthogonalLoop=1;jettySize=auto;html=1;exitX=0;exitY=0.5;exitDx=0;exitDy=0;entryX=0.5;entryY=0;entryDx=0;entryDy=0;" parent="1" source="hF8GJbH4QlHRkwEJSHVu-186" target="hF8GJbH4QlHRkwEJSHVu-176" edge="1">
          <mxGeometry relative="1" as="geometry" />
        </mxCell>
        <mxCell id="5I4GJiklxZvYFQcEl-Lj-64" value="true" style="edgeLabel;html=1;align=center;verticalAlign=middle;resizable=0;points=[];fontColor=#1F5AFF;" parent="hF8GJbH4QlHRkwEJSHVu-192" vertex="1" connectable="0">
          <mxGeometry x="0.1922" y="-4" relative="1" as="geometry">
            <mxPoint as="offset" />
          </mxGeometry>
        </mxCell>
        <mxCell id="hF8GJbH4QlHRkwEJSHVu-193" style="edgeStyle=orthogonalEdgeStyle;rounded=0;orthogonalLoop=1;jettySize=auto;html=1;exitX=1;exitY=0.5;exitDx=0;exitDy=0;" parent="1" source="hF8GJbH4QlHRkwEJSHVu-186" target="hF8GJbH4QlHRkwEJSHVu-194" edge="1">
          <mxGeometry relative="1" as="geometry">
            <mxPoint x="-550" y="2650" as="targetPoint" />
          </mxGeometry>
        </mxCell>
        <mxCell id="5I4GJiklxZvYFQcEl-Lj-65" value="false" style="edgeLabel;html=1;align=center;verticalAlign=middle;resizable=0;points=[];fontColor=#1F5AFF;" parent="hF8GJbH4QlHRkwEJSHVu-193" vertex="1" connectable="0">
          <mxGeometry x="0.1686" y="-1" relative="1" as="geometry">
            <mxPoint as="offset" />
          </mxGeometry>
        </mxCell>
        <mxCell id="hF8GJbH4QlHRkwEJSHVu-186" value="&lt;span&gt;element.type === child.elementType&lt;/span&gt;" style="rhombus;whiteSpace=wrap;html=1;" parent="1" vertex="1">
          <mxGeometry x="-840" y="2550" width="250" height="80" as="geometry" />
        </mxCell>
        <mxCell id="hF8GJbH4QlHRkwEJSHVu-202" style="edgeStyle=orthogonalEdgeStyle;rounded=0;orthogonalLoop=1;jettySize=auto;html=1;exitX=0.5;exitY=1;exitDx=0;exitDy=0;entryX=0.5;entryY=0;entryDx=0;entryDy=0;" parent="1" source="hF8GJbH4QlHRkwEJSHVu-191" target="hF8GJbH4QlHRkwEJSHVu-201" edge="1">
          <mxGeometry relative="1" as="geometry">
            <Array as="points">
              <mxPoint x="-450" y="2730" />
              <mxPoint x="-550" y="2730" />
            </Array>
          </mxGeometry>
        </mxCell>
        <mxCell id="hF8GJbH4QlHRkwEJSHVu-191" value="deleteChild" style="rounded=0;whiteSpace=wrap;html=1;" parent="1" vertex="1">
          <mxGeometry x="-510" y="2550" width="120" height="30" as="geometry" />
        </mxCell>
        <mxCell id="hF8GJbH4QlHRkwEJSHVu-200" style="edgeStyle=orthogonalEdgeStyle;rounded=0;orthogonalLoop=1;jettySize=auto;html=1;exitX=0.5;exitY=1;exitDx=0;exitDy=0;" parent="1" source="hF8GJbH4QlHRkwEJSHVu-194" target="hF8GJbH4QlHRkwEJSHVu-201" edge="1">
          <mxGeometry relative="1" as="geometry">
            <mxPoint x="-550" y="2760" as="targetPoint" />
          </mxGeometry>
        </mxCell>
        <mxCell id="hF8GJbH4QlHRkwEJSHVu-194" value="&lt;div style=&quot;line-height: 18px&quot;&gt;&lt;span style=&quot;background-color: rgb(255 , 255 , 255)&quot;&gt;deleteRemainingChildren&lt;/span&gt;&lt;br&gt;&lt;/div&gt;" style="rounded=0;whiteSpace=wrap;html=1;" parent="1" vertex="1">
          <mxGeometry x="-630" y="2650" width="160" height="30" as="geometry" />
        </mxCell>
        <mxCell id="hF8GJbH4QlHRkwEJSHVu-201" value="createFiberFromElement" style="rounded=0;whiteSpace=wrap;html=1;" parent="1" vertex="1">
          <mxGeometry x="-620" y="2760" width="140" height="30" as="geometry" />
        </mxCell>
        <mxCell id="hF8GJbH4QlHRkwEJSHVu-211" style="edgeStyle=orthogonalEdgeStyle;rounded=0;orthogonalLoop=1;jettySize=auto;html=1;exitX=0;exitY=0.5;exitDx=0;exitDy=0;" parent="1" source="hF8GJbH4QlHRkwEJSHVu-209" target="hF8GJbH4QlHRkwEJSHVu-212" edge="1">
          <mxGeometry relative="1" as="geometry">
            <mxPoint x="460" y="1300" as="targetPoint" />
          </mxGeometry>
        </mxCell>
        <mxCell id="hF8GJbH4QlHRkwEJSHVu-236" style="edgeStyle=orthogonalEdgeStyle;rounded=0;orthogonalLoop=1;jettySize=auto;html=1;exitX=1;exitY=0.5;exitDx=0;exitDy=0;entryX=0.5;entryY=0;entryDx=0;entryDy=0;" parent="1" source="hF8GJbH4QlHRkwEJSHVu-209" target="hF8GJbH4QlHRkwEJSHVu-235" edge="1">
          <mxGeometry relative="1" as="geometry" />
        </mxCell>
        <mxCell id="hF8GJbH4QlHRkwEJSHVu-209" value="workInProgress.tag" style="rhombus;whiteSpace=wrap;html=1;" parent="1" vertex="1">
          <mxGeometry x="555" y="1210" width="150" height="60" as="geometry" />
        </mxCell>
        <mxCell id="hF8GJbH4QlHRkwEJSHVu-221" value="" style="edgeStyle=orthogonalEdgeStyle;rounded=0;orthogonalLoop=1;jettySize=auto;html=1;" parent="1" source="hF8GJbH4QlHRkwEJSHVu-212" target="hF8GJbH4QlHRkwEJSHVu-220" edge="1">
          <mxGeometry relative="1" as="geometry" />
        </mxCell>
        <mxCell id="hF8GJbH4QlHRkwEJSHVu-212" value="HostComponent" style="rounded=0;whiteSpace=wrap;html=1;" parent="1" vertex="1">
          <mxGeometry x="420" y="1290" width="100" height="30" as="geometry" />
        </mxCell>
        <mxCell id="hF8GJbH4QlHRkwEJSHVu-216" value="" style="edgeStyle=orthogonalEdgeStyle;rounded=0;orthogonalLoop=1;jettySize=auto;html=1;" parent="1" source="hF8GJbH4QlHRkwEJSHVu-214" target="hF8GJbH4QlHRkwEJSHVu-215" edge="1">
          <mxGeometry relative="1" as="geometry" />
        </mxCell>
        <mxCell id="hF8GJbH4QlHRkwEJSHVu-214" value="updateHostComponent$1" style="rounded=0;whiteSpace=wrap;html=1;" parent="1" vertex="1">
          <mxGeometry x="290" y="1430" width="150" height="30" as="geometry" />
        </mxCell>
        <mxCell id="hF8GJbH4QlHRkwEJSHVu-215" value="prepareUpdate" style="whiteSpace=wrap;html=1;rounded=0;" parent="1" vertex="1">
          <mxGeometry x="290" y="1500" width="150" height="30" as="geometry" />
        </mxCell>
        <mxCell id="hF8GJbH4QlHRkwEJSHVu-223" style="edgeStyle=orthogonalEdgeStyle;rounded=0;orthogonalLoop=1;jettySize=auto;html=1;exitX=0;exitY=0.5;exitDx=0;exitDy=0;" parent="1" source="hF8GJbH4QlHRkwEJSHVu-220" target="hF8GJbH4QlHRkwEJSHVu-214" edge="1">
          <mxGeometry relative="1" as="geometry" />
        </mxCell>
        <mxCell id="hF8GJbH4QlHRkwEJSHVu-224" value="true" style="edgeLabel;html=1;align=center;verticalAlign=middle;resizable=0;points=[];" parent="hF8GJbH4QlHRkwEJSHVu-223" vertex="1" connectable="0">
          <mxGeometry x="-0.0667" y="-1" relative="1" as="geometry">
            <mxPoint y="1" as="offset" />
          </mxGeometry>
        </mxCell>
        <mxCell id="hF8GJbH4QlHRkwEJSHVu-225" style="edgeStyle=orthogonalEdgeStyle;rounded=0;orthogonalLoop=1;jettySize=auto;html=1;exitX=1;exitY=0.5;exitDx=0;exitDy=0;" parent="1" source="hF8GJbH4QlHRkwEJSHVu-220" target="hF8GJbH4QlHRkwEJSHVu-226" edge="1">
          <mxGeometry relative="1" as="geometry">
            <mxPoint x="590" y="1430" as="targetPoint" />
          </mxGeometry>
        </mxCell>
        <mxCell id="hF8GJbH4QlHRkwEJSHVu-220" value="current !== null &amp;amp;&amp;amp; wip.stateNode != null" style="rhombus;whiteSpace=wrap;html=1;rounded=0;" parent="1" vertex="1">
          <mxGeometry x="385" y="1355" width="170" height="55" as="geometry" />
        </mxCell>
        <mxCell id="hF8GJbH4QlHRkwEJSHVu-227" style="edgeStyle=orthogonalEdgeStyle;rounded=0;orthogonalLoop=1;jettySize=auto;html=1;exitX=0.5;exitY=1;exitDx=0;exitDy=0;" parent="1" source="hF8GJbH4QlHRkwEJSHVu-226" edge="1">
          <mxGeometry relative="1" as="geometry">
            <mxPoint x="590" y="1460" as="targetPoint" />
          </mxGeometry>
        </mxCell>
        <mxCell id="hF8GJbH4QlHRkwEJSHVu-229" style="edgeStyle=orthogonalEdgeStyle;rounded=0;orthogonalLoop=1;jettySize=auto;html=1;exitX=0.5;exitY=1;exitDx=0;exitDy=0;" parent="1" source="hF8GJbH4QlHRkwEJSHVu-226" target="hF8GJbH4QlHRkwEJSHVu-230" edge="1">
          <mxGeometry relative="1" as="geometry">
            <mxPoint x="590" y="1490" as="targetPoint" />
          </mxGeometry>
        </mxCell>
        <mxCell id="hF8GJbH4QlHRkwEJSHVu-226" value="createInstance" style="rounded=0;whiteSpace=wrap;html=1;" parent="1" vertex="1">
          <mxGeometry x="540" y="1430" width="100" height="30" as="geometry" />
        </mxCell>
        <mxCell id="hF8GJbH4QlHRkwEJSHVu-231" style="edgeStyle=orthogonalEdgeStyle;rounded=0;orthogonalLoop=1;jettySize=auto;html=1;exitX=0.5;exitY=1;exitDx=0;exitDy=0;" parent="1" source="hF8GJbH4QlHRkwEJSHVu-230" target="hF8GJbH4QlHRkwEJSHVu-232" edge="1">
          <mxGeometry relative="1" as="geometry">
            <mxPoint x="590" y="1560" as="targetPoint" />
          </mxGeometry>
        </mxCell>
        <mxCell id="hF8GJbH4QlHRkwEJSHVu-230" value="appendAllChildren" style="rounded=0;whiteSpace=wrap;html=1;" parent="1" vertex="1">
          <mxGeometry x="530" y="1500" width="120" height="30" as="geometry" />
        </mxCell>
        <mxCell id="hF8GJbH4QlHRkwEJSHVu-232" value="finalizeInitialChildren" style="rounded=0;whiteSpace=wrap;html=1;" parent="1" vertex="1">
          <mxGeometry x="530" y="1570" width="120" height="30" as="geometry" />
        </mxCell>
        <mxCell id="hF8GJbH4QlHRkwEJSHVu-238" value="" style="edgeStyle=orthogonalEdgeStyle;rounded=0;orthogonalLoop=1;jettySize=auto;html=1;" parent="1" source="hF8GJbH4QlHRkwEJSHVu-235" target="hF8GJbH4QlHRkwEJSHVu-237" edge="1">
          <mxGeometry relative="1" as="geometry" />
        </mxCell>
        <mxCell id="hF8GJbH4QlHRkwEJSHVu-235" value="ClassComponent || FunctionComponent" style="rounded=0;whiteSpace=wrap;html=1;" parent="1" vertex="1">
          <mxGeometry x="750" y="1280" width="120" height="40" as="geometry" />
        </mxCell>
        <mxCell id="hF8GJbH4QlHRkwEJSHVu-237" value="return null" style="whiteSpace=wrap;html=1;rounded=0;" parent="1" vertex="1">
          <mxGeometry x="750" y="1352.5" width="120" height="27.5" as="geometry" />
        </mxCell>
        <mxCell id="hF8GJbH4QlHRkwEJSHVu-248" style="edgeStyle=orthogonalEdgeStyle;rounded=0;orthogonalLoop=1;jettySize=auto;html=1;exitX=0.5;exitY=1;exitDx=0;exitDy=0;" parent="1" source="hF8GJbH4QlHRkwEJSHVu-244" target="hF8GJbH4QlHRkwEJSHVu-249" edge="1">
          <mxGeometry relative="1" as="geometry">
            <mxPoint x="519.666666666667" y="930" as="targetPoint" />
          </mxGeometry>
        </mxCell>
        <mxCell id="5I4GJiklxZvYFQcEl-Lj-19" style="edgeStyle=orthogonalEdgeStyle;rounded=0;orthogonalLoop=1;jettySize=auto;html=1;exitX=1;exitY=0.25;exitDx=0;exitDy=0;entryX=0.5;entryY=0;entryDx=0;entryDy=0;" parent="1" source="hF8GJbH4QlHRkwEJSHVu-244" target="hF8GJbH4QlHRkwEJSHVu-68" edge="1">
          <mxGeometry relative="1" as="geometry" />
        </mxCell>
        <mxCell id="hF8GJbH4QlHRkwEJSHVu-244" value="commitRoot" style="rounded=0;whiteSpace=wrap;html=1;" parent="1" vertex="1">
          <mxGeometry x="1040" y="860" width="80" height="30" as="geometry" />
        </mxCell>
        <mxCell id="hF8GJbH4QlHRkwEJSHVu-250" style="edgeStyle=orthogonalEdgeStyle;rounded=0;orthogonalLoop=1;jettySize=auto;html=1;exitX=0;exitY=0.5;exitDx=0;exitDy=0;" parent="1" source="hF8GJbH4QlHRkwEJSHVu-249" target="hF8GJbH4QlHRkwEJSHVu-251" edge="1">
          <mxGeometry relative="1" as="geometry">
            <mxPoint x="860" y="1010" as="targetPoint" />
          </mxGeometry>
        </mxCell>
        <mxCell id="hF8GJbH4QlHRkwEJSHVu-255" style="edgeStyle=orthogonalEdgeStyle;rounded=0;orthogonalLoop=1;jettySize=auto;html=1;exitX=1;exitY=0.5;exitDx=0;exitDy=0;entryX=0.5;entryY=0;entryDx=0;entryDy=0;" parent="1" source="hF8GJbH4QlHRkwEJSHVu-249" target="hF8GJbH4QlHRkwEJSHVu-252" edge="1">
          <mxGeometry relative="1" as="geometry" />
        </mxCell>
        <mxCell id="hF8GJbH4QlHRkwEJSHVu-272" style="edgeStyle=orthogonalEdgeStyle;rounded=0;orthogonalLoop=1;jettySize=auto;html=1;exitX=0.5;exitY=1;exitDx=0;exitDy=0;" parent="1" source="hF8GJbH4QlHRkwEJSHVu-249" target="hF8GJbH4QlHRkwEJSHVu-253" edge="1">
          <mxGeometry relative="1" as="geometry">
            <Array as="points">
              <mxPoint x="1080" y="980" />
              <mxPoint x="1190" y="980" />
            </Array>
          </mxGeometry>
        </mxCell>
        <mxCell id="5I4GJiklxZvYFQcEl-Lj-79" style="edgeStyle=orthogonalEdgeStyle;rounded=0;orthogonalLoop=1;jettySize=auto;html=1;exitX=0;exitY=0.5;exitDx=0;exitDy=0;fontColor=#000000;" parent="1" source="hF8GJbH4QlHRkwEJSHVu-249" target="5I4GJiklxZvYFQcEl-Lj-80" edge="1">
          <mxGeometry relative="1" as="geometry">
            <mxPoint x="610.0000000000005" y="990" as="targetPoint" />
          </mxGeometry>
        </mxCell>
        <mxCell id="5I4GJiklxZvYFQcEl-Lj-82" value="执行所有effect任务" style="edgeLabel;html=1;align=center;verticalAlign=middle;resizable=0;points=[];fontColor=#000000;" parent="5I4GJiklxZvYFQcEl-Lj-79" vertex="1" connectable="0">
          <mxGeometry x="0.7488" y="1" relative="1" as="geometry">
            <mxPoint x="-1" as="offset" />
          </mxGeometry>
        </mxCell>
        <mxCell id="5I4GJiklxZvYFQcEl-Lj-87" style="edgeStyle=orthogonalEdgeStyle;rounded=0;orthogonalLoop=1;jettySize=auto;html=1;exitX=1;exitY=0.5;exitDx=0;exitDy=0;fontColor=#1F5AFF;" parent="1" source="hF8GJbH4QlHRkwEJSHVu-249" target="5I4GJiklxZvYFQcEl-Lj-88" edge="1">
          <mxGeometry relative="1" as="geometry">
            <mxPoint x="1350" y="990" as="targetPoint" />
          </mxGeometry>
        </mxCell>
        <mxCell id="hF8GJbH4QlHRkwEJSHVu-249" value="commitRootImpl" style="rounded=0;whiteSpace=wrap;html=1;" parent="1" vertex="1">
          <mxGeometry x="1020" y="930" width="120" height="30" as="geometry" />
        </mxCell>
        <mxCell id="hF8GJbH4QlHRkwEJSHVu-256" style="edgeStyle=orthogonalEdgeStyle;rounded=0;orthogonalLoop=1;jettySize=auto;html=1;exitX=0.5;exitY=1;exitDx=0;exitDy=0;" parent="1" source="hF8GJbH4QlHRkwEJSHVu-251" target="hF8GJbH4QlHRkwEJSHVu-257" edge="1">
          <mxGeometry relative="1" as="geometry">
            <mxPoint x="839.666666666667" y="1040" as="targetPoint" />
          </mxGeometry>
        </mxCell>
        <mxCell id="hF8GJbH4QlHRkwEJSHVu-251" value="commitBeforeMutationEffects" style="rounded=0;whiteSpace=wrap;html=1;" parent="1" vertex="1">
          <mxGeometry x="750" y="980" width="180" height="30" as="geometry" />
        </mxCell>
        <mxCell id="hF8GJbH4QlHRkwEJSHVu-314" style="edgeStyle=orthogonalEdgeStyle;rounded=0;orthogonalLoop=1;jettySize=auto;html=1;" parent="1" source="hF8GJbH4QlHRkwEJSHVu-252" target="hF8GJbH4QlHRkwEJSHVu-315" edge="1">
          <mxGeometry relative="1" as="geometry">
            <mxPoint x="1440" y="1040" as="targetPoint" />
          </mxGeometry>
        </mxCell>
        <mxCell id="hF8GJbH4QlHRkwEJSHVu-252" value="commitLayoutEffects" style="rounded=0;whiteSpace=wrap;html=1;" parent="1" vertex="1">
          <mxGeometry x="1434.67" y="990" width="180" height="30" as="geometry" />
        </mxCell>
        <mxCell id="hF8GJbH4QlHRkwEJSHVu-260" style="edgeStyle=orthogonalEdgeStyle;rounded=0;orthogonalLoop=1;jettySize=auto;html=1;exitX=0.5;exitY=1;exitDx=0;exitDy=0;" parent="1" source="hF8GJbH4QlHRkwEJSHVu-253" target="hF8GJbH4QlHRkwEJSHVu-261" edge="1">
          <mxGeometry relative="1" as="geometry">
            <mxPoint x="1079.666666666667" y="1040" as="targetPoint" />
          </mxGeometry>
        </mxCell>
        <mxCell id="hF8GJbH4QlHRkwEJSHVu-253" value="commitMutationEffects" style="rounded=0;whiteSpace=wrap;html=1;" parent="1" vertex="1">
          <mxGeometry x="1100" y="990" width="180" height="30" as="geometry" />
        </mxCell>
        <mxCell id="hF8GJbH4QlHRkwEJSHVu-258" style="edgeStyle=orthogonalEdgeStyle;rounded=0;orthogonalLoop=1;jettySize=auto;html=1;exitX=0.5;exitY=1;exitDx=0;exitDy=0;" parent="1" source="hF8GJbH4QlHRkwEJSHVu-257" target="hF8GJbH4QlHRkwEJSHVu-259" edge="1">
          <mxGeometry relative="1" as="geometry">
            <mxPoint x="839.666666666667" y="1100" as="targetPoint" />
          </mxGeometry>
        </mxCell>
        <mxCell id="hF8GJbH4QlHRkwEJSHVu-257" value="commitBeforeMutationEffectsOnFiber" style="rounded=0;whiteSpace=wrap;html=1;" parent="1" vertex="1">
          <mxGeometry x="730" y="1040" width="220" height="30" as="geometry" />
        </mxCell>
        <mxCell id="hF8GJbH4QlHRkwEJSHVu-259" value="instance.getSnapshotBeforeUpdate" style="rounded=0;whiteSpace=wrap;html=1;" parent="1" vertex="1">
          <mxGeometry x="735" y="1099" width="210" height="31" as="geometry" />
        </mxCell>
        <mxCell id="hF8GJbH4QlHRkwEJSHVu-262" style="edgeStyle=orthogonalEdgeStyle;rounded=0;orthogonalLoop=1;jettySize=auto;html=1;exitX=0.5;exitY=1;exitDx=0;exitDy=0;" parent="1" source="hF8GJbH4QlHRkwEJSHVu-261" target="hF8GJbH4QlHRkwEJSHVu-265" edge="1">
          <mxGeometry relative="1" as="geometry">
            <mxPoint x="1079.666666666667" y="1100" as="targetPoint" />
          </mxGeometry>
        </mxCell>
        <mxCell id="hF8GJbH4QlHRkwEJSHVu-271" style="edgeStyle=orthogonalEdgeStyle;rounded=0;orthogonalLoop=1;jettySize=auto;html=1;exitX=0.5;exitY=1;exitDx=0;exitDy=0;" parent="1" source="hF8GJbH4QlHRkwEJSHVu-261" target="hF8GJbH4QlHRkwEJSHVu-267" edge="1">
          <mxGeometry relative="1" as="geometry" />
        </mxCell>
        <mxCell id="hF8GJbH4QlHRkwEJSHVu-261" value="commitDeletion" style="rounded=0;whiteSpace=wrap;html=1;" parent="1" vertex="1">
          <mxGeometry x="1130" y="1040" width="120" height="30" as="geometry" />
        </mxCell>
        <mxCell id="hF8GJbH4QlHRkwEJSHVu-273" style="edgeStyle=orthogonalEdgeStyle;rounded=0;orthogonalLoop=1;jettySize=auto;html=1;exitX=0.5;exitY=1;exitDx=0;exitDy=0;" parent="1" source="hF8GJbH4QlHRkwEJSHVu-265" target="hF8GJbH4QlHRkwEJSHVu-274" edge="1">
          <mxGeometry relative="1" as="geometry">
            <mxPoint x="960" y="1190" as="targetPoint" />
          </mxGeometry>
        </mxCell>
        <mxCell id="hF8GJbH4QlHRkwEJSHVu-279" style="edgeStyle=orthogonalEdgeStyle;rounded=0;orthogonalLoop=1;jettySize=auto;html=1;exitX=0.5;exitY=1;exitDx=0;exitDy=0;entryX=0.5;entryY=0;entryDx=0;entryDy=0;" parent="1" source="hF8GJbH4QlHRkwEJSHVu-265" target="hF8GJbH4QlHRkwEJSHVu-276" edge="1">
          <mxGeometry relative="1" as="geometry" />
        </mxCell>
        <mxCell id="hF8GJbH4QlHRkwEJSHVu-265" value="commitMutationEffectsOnFiber" style="rounded=0;whiteSpace=wrap;html=1;" parent="1" vertex="1">
          <mxGeometry x="990" y="1110" width="180" height="31" as="geometry" />
        </mxCell>
        <mxCell id="hF8GJbH4QlHRkwEJSHVu-267" value="commitDetachRef" style="rounded=0;whiteSpace=wrap;html=1;" parent="1" vertex="1">
          <mxGeometry x="1225" y="1111" width="120" height="30" as="geometry" />
        </mxCell>
        <mxCell id="hF8GJbH4QlHRkwEJSHVu-286" style="edgeStyle=orthogonalEdgeStyle;rounded=0;orthogonalLoop=1;jettySize=auto;html=1;exitX=0.5;exitY=1;exitDx=0;exitDy=0;" parent="1" source="hF8GJbH4QlHRkwEJSHVu-274" target="hF8GJbH4QlHRkwEJSHVu-287" edge="1">
          <mxGeometry relative="1" as="geometry">
            <mxPoint x="939.666666666667" y="1250" as="targetPoint" />
          </mxGeometry>
        </mxCell>
        <mxCell id="hF8GJbH4QlHRkwEJSHVu-274" value="Update" style="rounded=0;whiteSpace=wrap;html=1;" parent="1" vertex="1">
          <mxGeometry x="945" y="1190" width="60" height="30" as="geometry" />
        </mxCell>
        <mxCell id="hF8GJbH4QlHRkwEJSHVu-280" style="edgeStyle=orthogonalEdgeStyle;rounded=0;orthogonalLoop=1;jettySize=auto;html=1;exitX=0.5;exitY=1;exitDx=0;exitDy=0;" parent="1" source="hF8GJbH4QlHRkwEJSHVu-276" target="hF8GJbH4QlHRkwEJSHVu-281" edge="1">
          <mxGeometry relative="1" as="geometry">
            <mxPoint x="1074.666666666667" y="1250" as="targetPoint" />
          </mxGeometry>
        </mxCell>
        <mxCell id="hF8GJbH4QlHRkwEJSHVu-276" value="Placement" style="rounded=0;whiteSpace=wrap;html=1;" parent="1" vertex="1">
          <mxGeometry x="1130" y="1190" width="70" height="30" as="geometry" />
        </mxCell>
        <mxCell id="hF8GJbH4QlHRkwEJSHVu-288" style="edgeStyle=orthogonalEdgeStyle;rounded=0;orthogonalLoop=1;jettySize=auto;html=1;exitX=0.5;exitY=1;exitDx=0;exitDy=0;" parent="1" source="hF8GJbH4QlHRkwEJSHVu-281" target="hF8GJbH4QlHRkwEJSHVu-289" edge="1">
          <mxGeometry relative="1" as="geometry">
            <mxPoint x="1164.666666666667" y="1320" as="targetPoint" />
          </mxGeometry>
        </mxCell>
        <mxCell id="hF8GJbH4QlHRkwEJSHVu-292" style="edgeStyle=orthogonalEdgeStyle;rounded=0;orthogonalLoop=1;jettySize=auto;html=1;exitX=0.5;exitY=1;exitDx=0;exitDy=0;entryX=0.5;entryY=0;entryDx=0;entryDy=0;" parent="1" source="hF8GJbH4QlHRkwEJSHVu-281" target="hF8GJbH4QlHRkwEJSHVu-290" edge="1">
          <mxGeometry relative="1" as="geometry" />
        </mxCell>
        <mxCell id="5I4GJiklxZvYFQcEl-Lj-86" value="" style="edgeStyle=orthogonalEdgeStyle;rounded=0;orthogonalLoop=1;jettySize=auto;html=1;fontColor=#1F5AFF;" parent="1" source="hF8GJbH4QlHRkwEJSHVu-281" target="hF8GJbH4QlHRkwEJSHVu-276" edge="1">
          <mxGeometry relative="1" as="geometry" />
        </mxCell>
        <mxCell id="hF8GJbH4QlHRkwEJSHVu-281" value="commitPlacement" style="rounded=0;whiteSpace=wrap;html=1;" parent="1" vertex="1">
          <mxGeometry x="1105" y="1250" width="120" height="30" as="geometry" />
        </mxCell>
        <mxCell id="hF8GJbH4QlHRkwEJSHVu-305" style="edgeStyle=orthogonalEdgeStyle;rounded=0;orthogonalLoop=1;jettySize=auto;html=1;exitX=0;exitY=0.5;exitDx=0;exitDy=0;" parent="1" source="hF8GJbH4QlHRkwEJSHVu-287" target="hF8GJbH4QlHRkwEJSHVu-306" edge="1">
          <mxGeometry relative="1" as="geometry">
            <mxPoint x="1030" y="1510" as="targetPoint" />
          </mxGeometry>
        </mxCell>
        <mxCell id="hF8GJbH4QlHRkwEJSHVu-287" value="commitWork" style="rounded=0;whiteSpace=wrap;html=1;" parent="1" vertex="1">
          <mxGeometry x="935.16" y="1250" width="79.67" height="30" as="geometry" />
        </mxCell>
        <mxCell id="hF8GJbH4QlHRkwEJSHVu-294" style="edgeStyle=orthogonalEdgeStyle;rounded=0;orthogonalLoop=1;jettySize=auto;html=1;exitX=0.25;exitY=1;exitDx=0;exitDy=0;" parent="1" source="hF8GJbH4QlHRkwEJSHVu-289" target="hF8GJbH4QlHRkwEJSHVu-296" edge="1">
          <mxGeometry relative="1" as="geometry">
            <mxPoint x="1044" y="1420" as="targetPoint" />
          </mxGeometry>
        </mxCell>
        <mxCell id="hF8GJbH4QlHRkwEJSHVu-295" style="edgeStyle=orthogonalEdgeStyle;rounded=0;orthogonalLoop=1;jettySize=auto;html=1;exitX=0.75;exitY=1;exitDx=0;exitDy=0;" parent="1" source="hF8GJbH4QlHRkwEJSHVu-289" target="hF8GJbH4QlHRkwEJSHVu-297" edge="1">
          <mxGeometry relative="1" as="geometry">
            <mxPoint x="1180" y="1420" as="targetPoint" />
          </mxGeometry>
        </mxCell>
        <mxCell id="hF8GJbH4QlHRkwEJSHVu-289" value="insertOrAppendPlacementNodeIntoContainer" style="rounded=0;whiteSpace=wrap;html=1;" parent="1" vertex="1">
          <mxGeometry x="935.16" y="1351.25" width="254.67" height="30" as="geometry" />
        </mxCell>
        <mxCell id="hF8GJbH4QlHRkwEJSHVu-298" style="edgeStyle=orthogonalEdgeStyle;rounded=0;orthogonalLoop=1;jettySize=auto;html=1;exitX=0.25;exitY=1;exitDx=0;exitDy=0;" parent="1" source="hF8GJbH4QlHRkwEJSHVu-290" target="hF8GJbH4QlHRkwEJSHVu-299" edge="1">
          <mxGeometry relative="1" as="geometry">
            <mxPoint x="1296.3333333333335" y="1420" as="targetPoint" />
          </mxGeometry>
        </mxCell>
        <mxCell id="hF8GJbH4QlHRkwEJSHVu-300" style="edgeStyle=orthogonalEdgeStyle;rounded=0;orthogonalLoop=1;jettySize=auto;html=1;exitX=0.75;exitY=1;exitDx=0;exitDy=0;" parent="1" source="hF8GJbH4QlHRkwEJSHVu-290" target="hF8GJbH4QlHRkwEJSHVu-302" edge="1">
          <mxGeometry relative="1" as="geometry">
            <mxPoint x="1388.8333333333335" y="1420" as="targetPoint" />
          </mxGeometry>
        </mxCell>
        <mxCell id="hF8GJbH4QlHRkwEJSHVu-290" value="insertOrAppendPlacementNode" style="rounded=0;whiteSpace=wrap;html=1;" parent="1" vertex="1">
          <mxGeometry x="1250" y="1351.25" width="184.67" height="30" as="geometry" />
        </mxCell>
        <mxCell id="hF8GJbH4QlHRkwEJSHVu-296" value="insertInContainerBefore" style="rounded=0;whiteSpace=wrap;html=1;" parent="1" vertex="1">
          <mxGeometry x="923" y="1420" width="134" height="30" as="geometry" />
        </mxCell>
        <mxCell id="hF8GJbH4QlHRkwEJSHVu-297" value="appendChildToContainer" style="rounded=0;whiteSpace=wrap;html=1;" parent="1" vertex="1">
          <mxGeometry x="1070" y="1420" width="141" height="30" as="geometry" />
        </mxCell>
        <mxCell id="hF8GJbH4QlHRkwEJSHVu-299" value="insertBefore" style="rounded=0;whiteSpace=wrap;html=1;" parent="1" vertex="1">
          <mxGeometry x="1240.5" y="1420" width="90" height="30" as="geometry" />
        </mxCell>
        <mxCell id="hF8GJbH4QlHRkwEJSHVu-302" value="appendChild" style="rounded=0;whiteSpace=wrap;html=1;" parent="1" vertex="1">
          <mxGeometry x="1360" y="1420" width="86.33" height="30" as="geometry" />
        </mxCell>
        <mxCell id="hF8GJbH4QlHRkwEJSHVu-304" value="commitHookEffectListUnmount" style="rounded=0;whiteSpace=wrap;html=1;" parent="1" vertex="1">
          <mxGeometry x="675" y="1600" width="170" height="30" as="geometry" />
        </mxCell>
        <mxCell id="hF8GJbH4QlHRkwEJSHVu-307" style="edgeStyle=orthogonalEdgeStyle;rounded=0;orthogonalLoop=1;jettySize=auto;html=1;exitX=0;exitY=0.5;exitDx=0;exitDy=0;" parent="1" source="hF8GJbH4QlHRkwEJSHVu-306" target="hF8GJbH4QlHRkwEJSHVu-308" edge="1">
          <mxGeometry relative="1" as="geometry">
            <mxPoint x="810" y="1540" as="targetPoint" />
          </mxGeometry>
        </mxCell>
        <mxCell id="hF8GJbH4QlHRkwEJSHVu-310" style="edgeStyle=orthogonalEdgeStyle;rounded=0;orthogonalLoop=1;jettySize=auto;html=1;exitX=0.5;exitY=1;exitDx=0;exitDy=0;" parent="1" source="hF8GJbH4QlHRkwEJSHVu-306" target="hF8GJbH4QlHRkwEJSHVu-311" edge="1">
          <mxGeometry relative="1" as="geometry">
            <mxPoint x="909.666666666667" y="1560" as="targetPoint" />
          </mxGeometry>
        </mxCell>
        <mxCell id="hF8GJbH4QlHRkwEJSHVu-306" value="finishedWork.tag" style="rhombus;whiteSpace=wrap;html=1;" parent="1" vertex="1">
          <mxGeometry x="840" y="1470" width="140" height="50" as="geometry" />
        </mxCell>
        <mxCell id="hF8GJbH4QlHRkwEJSHVu-309" style="edgeStyle=orthogonalEdgeStyle;rounded=0;orthogonalLoop=1;jettySize=auto;html=1;exitX=0.5;exitY=1;exitDx=0;exitDy=0;entryX=0.5;entryY=0;entryDx=0;entryDy=0;" parent="1" source="hF8GJbH4QlHRkwEJSHVu-308" target="hF8GJbH4QlHRkwEJSHVu-304" edge="1">
          <mxGeometry relative="1" as="geometry" />
        </mxCell>
        <mxCell id="hF8GJbH4QlHRkwEJSHVu-308" value="FunctionComponent" style="rounded=0;whiteSpace=wrap;html=1;" parent="1" vertex="1">
          <mxGeometry x="700" y="1540" width="120" height="30" as="geometry" />
        </mxCell>
        <mxCell id="hF8GJbH4QlHRkwEJSHVu-312" style="edgeStyle=orthogonalEdgeStyle;rounded=0;orthogonalLoop=1;jettySize=auto;html=1;exitX=0.5;exitY=1;exitDx=0;exitDy=0;" parent="1" source="hF8GJbH4QlHRkwEJSHVu-311" target="hF8GJbH4QlHRkwEJSHVu-313" edge="1">
          <mxGeometry relative="1" as="geometry">
            <mxPoint x="909.666666666667" y="1600" as="targetPoint" />
          </mxGeometry>
        </mxCell>
        <mxCell id="hF8GJbH4QlHRkwEJSHVu-311" value="HostComponent" style="rounded=0;whiteSpace=wrap;html=1;" parent="1" vertex="1">
          <mxGeometry x="850" y="1540" width="120" height="30" as="geometry" />
        </mxCell>
        <mxCell id="5I4GJiklxZvYFQcEl-Lj-74" style="edgeStyle=orthogonalEdgeStyle;rounded=0;orthogonalLoop=1;jettySize=auto;html=1;exitX=0.5;exitY=1;exitDx=0;exitDy=0;fontColor=#1F5AFF;" parent="1" source="hF8GJbH4QlHRkwEJSHVu-313" target="5I4GJiklxZvYFQcEl-Lj-75" edge="1">
          <mxGeometry relative="1" as="geometry">
            <mxPoint x="910.7142857142858" y="1670" as="targetPoint" />
          </mxGeometry>
        </mxCell>
        <mxCell id="hF8GJbH4QlHRkwEJSHVu-313" value="commitUpdate" style="rounded=0;whiteSpace=wrap;html=1;" parent="1" vertex="1">
          <mxGeometry x="850" y="1598.33" width="120" height="31.67" as="geometry" />
        </mxCell>
        <mxCell id="hF8GJbH4QlHRkwEJSHVu-316" style="edgeStyle=orthogonalEdgeStyle;rounded=0;orthogonalLoop=1;jettySize=auto;html=1;exitX=0.25;exitY=1;exitDx=0;exitDy=0;" parent="1" source="hF8GJbH4QlHRkwEJSHVu-315" target="hF8GJbH4QlHRkwEJSHVu-320" edge="1">
          <mxGeometry relative="1" as="geometry">
            <mxPoint x="1430" y="1110" as="targetPoint" />
          </mxGeometry>
        </mxCell>
        <mxCell id="hF8GJbH4QlHRkwEJSHVu-317" style="edgeStyle=orthogonalEdgeStyle;rounded=0;orthogonalLoop=1;jettySize=auto;html=1;exitX=0.5;exitY=1;exitDx=0;exitDy=0;" parent="1" source="hF8GJbH4QlHRkwEJSHVu-315" target="hF8GJbH4QlHRkwEJSHVu-324" edge="1">
          <mxGeometry relative="1" as="geometry">
            <mxPoint x="1524.666666666667" y="1110" as="targetPoint" />
          </mxGeometry>
        </mxCell>
        <mxCell id="hF8GJbH4QlHRkwEJSHVu-315" value="commitLayoutEffectOnFiber" style="rounded=0;whiteSpace=wrap;html=1;" parent="1" vertex="1">
          <mxGeometry x="1429.67" y="1040" width="190" height="30" as="geometry" />
        </mxCell>
        <mxCell id="hF8GJbH4QlHRkwEJSHVu-321" style="edgeStyle=orthogonalEdgeStyle;rounded=0;orthogonalLoop=1;jettySize=auto;html=1;exitX=0.5;exitY=1;exitDx=0;exitDy=0;" parent="1" source="hF8GJbH4QlHRkwEJSHVu-320" target="hF8GJbH4QlHRkwEJSHVu-322" edge="1">
          <mxGeometry relative="1" as="geometry">
            <mxPoint x="1429.666666666667" y="1170" as="targetPoint" />
          </mxGeometry>
        </mxCell>
        <mxCell id="hF8GJbH4QlHRkwEJSHVu-320" value="FunctionComponent" style="rounded=0;whiteSpace=wrap;html=1;" parent="1" vertex="1">
          <mxGeometry x="1409.67" y="1110" width="120" height="30" as="geometry" />
        </mxCell>
        <mxCell id="hF8GJbH4QlHRkwEJSHVu-322" value="commitHookEffectListMount" style="rounded=0;whiteSpace=wrap;html=1;" parent="1" vertex="1">
          <mxGeometry x="1389.84" y="1190" width="159.67" height="30" as="geometry" />
        </mxCell>
        <mxCell id="5I4GJiklxZvYFQcEl-Lj-4" style="edgeStyle=orthogonalEdgeStyle;rounded=0;orthogonalLoop=1;jettySize=auto;html=1;exitX=0.5;exitY=1;exitDx=0;exitDy=0;entryX=0.5;entryY=0;entryDx=0;entryDy=0;" parent="1" source="hF8GJbH4QlHRkwEJSHVu-324" target="5I4GJiklxZvYFQcEl-Lj-3" edge="1">
          <mxGeometry relative="1" as="geometry" />
        </mxCell>
        <mxCell id="hF8GJbH4QlHRkwEJSHVu-324" value="ClassComponent" style="rounded=0;whiteSpace=wrap;html=1;" parent="1" vertex="1">
          <mxGeometry x="1570" y="1111" width="120" height="30" as="geometry" />
        </mxCell>
        <mxCell id="5I4GJiklxZvYFQcEl-Lj-5" style="edgeStyle=orthogonalEdgeStyle;rounded=0;orthogonalLoop=1;jettySize=auto;html=1;exitX=0;exitY=0.5;exitDx=0;exitDy=0;" parent="1" source="5I4GJiklxZvYFQcEl-Lj-3" target="5I4GJiklxZvYFQcEl-Lj-7" edge="1">
          <mxGeometry relative="1" as="geometry">
            <mxPoint x="1620" y="1280" as="targetPoint" />
          </mxGeometry>
        </mxCell>
        <mxCell id="5I4GJiklxZvYFQcEl-Lj-6" style="edgeStyle=orthogonalEdgeStyle;rounded=0;orthogonalLoop=1;jettySize=auto;html=1;exitX=1;exitY=0.5;exitDx=0;exitDy=0;" parent="1" source="5I4GJiklxZvYFQcEl-Lj-3" target="5I4GJiklxZvYFQcEl-Lj-8" edge="1">
          <mxGeometry relative="1" as="geometry">
            <mxPoint x="1770" y="1280" as="targetPoint" />
          </mxGeometry>
        </mxCell>
        <mxCell id="5I4GJiklxZvYFQcEl-Lj-3" value="current === null" style="rhombus;whiteSpace=wrap;html=1;" parent="1" vertex="1">
          <mxGeometry x="1640" y="1170" width="110" height="50" as="geometry" />
        </mxCell>
        <mxCell id="5I4GJiklxZvYFQcEl-Lj-9" style="edgeStyle=orthogonalEdgeStyle;rounded=0;orthogonalLoop=1;jettySize=auto;html=1;exitX=0.5;exitY=1;exitDx=0;exitDy=0;" parent="1" source="5I4GJiklxZvYFQcEl-Lj-7" edge="1">
          <mxGeometry relative="1" as="geometry">
            <mxPoint x="1690" y="1340" as="targetPoint" />
          </mxGeometry>
        </mxCell>
        <mxCell id="5I4GJiklxZvYFQcEl-Lj-7" value="componentDidMount" style="rounded=0;whiteSpace=wrap;html=1;" parent="1" vertex="1">
          <mxGeometry x="1560" y="1250" width="120" height="40" as="geometry" />
        </mxCell>
        <mxCell id="5I4GJiklxZvYFQcEl-Lj-10" style="edgeStyle=orthogonalEdgeStyle;rounded=0;orthogonalLoop=1;jettySize=auto;html=1;exitX=0.5;exitY=1;exitDx=0;exitDy=0;" parent="1" source="5I4GJiklxZvYFQcEl-Lj-8" target="5I4GJiklxZvYFQcEl-Lj-11" edge="1">
          <mxGeometry relative="1" as="geometry">
            <mxPoint x="1690" y="1340" as="targetPoint" />
          </mxGeometry>
        </mxCell>
        <mxCell id="5I4GJiklxZvYFQcEl-Lj-8" value="componentDidUpdate" style="rounded=0;whiteSpace=wrap;html=1;" parent="1" vertex="1">
          <mxGeometry x="1710" y="1250" width="120" height="40" as="geometry" />
        </mxCell>
        <mxCell id="5I4GJiklxZvYFQcEl-Lj-11" value="commitUpdateQueue" style="rounded=0;whiteSpace=wrap;html=1;" parent="1" vertex="1">
          <mxGeometry x="1630" y="1340" width="120" height="30" as="geometry" />
        </mxCell>
        <mxCell id="5I4GJiklxZvYFQcEl-Lj-22" style="edgeStyle=orthogonalEdgeStyle;rounded=0;orthogonalLoop=1;jettySize=auto;html=1;exitX=0;exitY=0.5;exitDx=0;exitDy=0;" parent="1" source="5I4GJiklxZvYFQcEl-Lj-21" target="5I4GJiklxZvYFQcEl-Lj-23" edge="1">
          <mxGeometry relative="1" as="geometry">
            <mxPoint x="1960" y="1050" as="targetPoint" />
          </mxGeometry>
        </mxCell>
        <mxCell id="5I4GJiklxZvYFQcEl-Lj-24" style="edgeStyle=orthogonalEdgeStyle;rounded=0;orthogonalLoop=1;jettySize=auto;html=1;exitX=1;exitY=0.5;exitDx=0;exitDy=0;" parent="1" source="5I4GJiklxZvYFQcEl-Lj-21" target="5I4GJiklxZvYFQcEl-Lj-25" edge="1">
          <mxGeometry relative="1" as="geometry">
            <mxPoint x="2089.4705882352946" y="1080" as="targetPoint" />
          </mxGeometry>
        </mxCell>
        <mxCell id="5I4GJiklxZvYFQcEl-Lj-30" style="edgeStyle=orthogonalEdgeStyle;rounded=0;orthogonalLoop=1;jettySize=auto;html=1;exitX=0.5;exitY=1;exitDx=0;exitDy=0;" parent="1" source="5I4GJiklxZvYFQcEl-Lj-21" target="5I4GJiklxZvYFQcEl-Lj-31" edge="1">
          <mxGeometry relative="1" as="geometry">
            <mxPoint x="2089.4705882352946" y="1050" as="targetPoint" />
          </mxGeometry>
        </mxCell>
        <mxCell id="5I4GJiklxZvYFQcEl-Lj-70" value="" style="edgeStyle=orthogonalEdgeStyle;rounded=0;orthogonalLoop=1;jettySize=auto;html=1;fontColor=#1F5AFF;" parent="1" source="5I4GJiklxZvYFQcEl-Lj-21" target="hF8GJbH4QlHRkwEJSHVu-68" edge="1">
          <mxGeometry relative="1" as="geometry" />
        </mxCell>
        <mxCell id="5I4GJiklxZvYFQcEl-Lj-21" value="markStarvedLanesAsExpired" style="rounded=0;whiteSpace=wrap;html=1;" parent="1" vertex="1">
          <mxGeometry x="2010" y="970" width="159.47" height="30" as="geometry" />
        </mxCell>
        <mxCell id="5I4GJiklxZvYFQcEl-Lj-26" style="edgeStyle=orthogonalEdgeStyle;rounded=0;orthogonalLoop=1;jettySize=auto;html=1;exitX=0.5;exitY=1;exitDx=0;exitDy=0;" parent="1" source="5I4GJiklxZvYFQcEl-Lj-23" target="5I4GJiklxZvYFQcEl-Lj-27" edge="1">
          <mxGeometry relative="1" as="geometry">
            <mxPoint x="1940.0588235294117" y="1150" as="targetPoint" />
          </mxGeometry>
        </mxCell>
        <mxCell id="5I4GJiklxZvYFQcEl-Lj-23" value="existingCallbackPriority === newCallbackPriority" style="rounded=0;whiteSpace=wrap;html=1;" parent="1" vertex="1">
          <mxGeometry x="1790" y="1070" width="160" height="40" as="geometry" />
        </mxCell>
        <mxCell id="5I4GJiklxZvYFQcEl-Lj-28" style="edgeStyle=orthogonalEdgeStyle;rounded=0;orthogonalLoop=1;jettySize=auto;html=1;exitX=0.5;exitY=1;exitDx=0;exitDy=0;" parent="1" source="5I4GJiklxZvYFQcEl-Lj-25" target="5I4GJiklxZvYFQcEl-Lj-29" edge="1">
          <mxGeometry relative="1" as="geometry">
            <mxPoint x="2120.0588235294117" y="1150" as="targetPoint" />
          </mxGeometry>
        </mxCell>
        <mxCell id="5I4GJiklxZvYFQcEl-Lj-25" value="existingCallbackNode != null" style="rounded=0;whiteSpace=wrap;html=1;" parent="1" vertex="1">
          <mxGeometry x="2270" y="1070" width="120" height="40" as="geometry" />
        </mxCell>
        <mxCell id="5I4GJiklxZvYFQcEl-Lj-27" value="return;" style="rounded=0;whiteSpace=wrap;html=1;" parent="1" vertex="1">
          <mxGeometry x="1819.97" y="1150" width="100.06" height="30" as="geometry" />
        </mxCell>
        <mxCell id="5I4GJiklxZvYFQcEl-Lj-29" value="cancelCallback" style="rounded=0;whiteSpace=wrap;html=1;" parent="1" vertex="1">
          <mxGeometry x="2270" y="1150" width="120" height="30" as="geometry" />
        </mxCell>
        <mxCell id="5I4GJiklxZvYFQcEl-Lj-46" style="edgeStyle=orthogonalEdgeStyle;rounded=0;orthogonalLoop=1;jettySize=auto;html=1;exitX=0.5;exitY=1;exitDx=0;exitDy=0;entryX=0.5;entryY=0;entryDx=0;entryDy=0;" parent="1" source="5I4GJiklxZvYFQcEl-Lj-31" target="5I4GJiklxZvYFQcEl-Lj-42" edge="1">
          <mxGeometry relative="1" as="geometry" />
        </mxCell>
        <mxCell id="5I4GJiklxZvYFQcEl-Lj-31" value="newCallbackPriority" style="rhombus;whiteSpace=wrap;html=1;" parent="1" vertex="1">
          <mxGeometry x="2014.4699999999998" y="1040" width="150.53" height="50" as="geometry" />
        </mxCell>
        <mxCell id="5I4GJiklxZvYFQcEl-Lj-42" value="performSyncWorkOnRoot" style="rounded=0;whiteSpace=wrap;html=1;" parent="1" vertex="1">
          <mxGeometry x="2009.47" y="1180" width="160" height="30" as="geometry" />
        </mxCell>
        <mxCell id="5I4GJiklxZvYFQcEl-Lj-47" value="创建更新" style="text;html=1;align=center;verticalAlign=middle;whiteSpace=wrap;rounded=0;fontColor=#1F5AFF;" parent="1" vertex="1">
          <mxGeometry x="750" y="430" width="100" height="20" as="geometry" />
        </mxCell>
        <mxCell id="5I4GJiklxZvYFQcEl-Lj-48" value="将创建的更新放置在fiber上的updateQueue的share属性上，形成循环链表" style="text;html=1;align=center;verticalAlign=middle;whiteSpace=wrap;rounded=0;fontColor=#1F5AFF;" parent="1" vertex="1">
          <mxGeometry x="750" y="510" width="240" height="40" as="geometry" />
        </mxCell>
        <mxCell id="5I4GJiklxZvYFQcEl-Lj-49" value="ffiber上初始化updateQueue 队列" style="text;html=1;strokeColor=none;fillColor=none;align=center;verticalAlign=middle;whiteSpace=wrap;rounded=0;fontColor=#1F5AFF;" parent="1" vertex="1">
          <mxGeometry x="425" y="605" width="140" height="30" as="geometry" />
        </mxCell>
        <mxCell id="5I4GJiklxZvYFQcEl-Lj-50" value="调度更新" style="text;html=1;align=center;verticalAlign=middle;whiteSpace=wrap;rounded=0;fontColor=#1F5AFF;" parent="1" vertex="1">
          <mxGeometry x="765" y="620" width="100" height="20" as="geometry" />
        </mxCell>
        <mxCell id="5I4GJiklxZvYFQcEl-Lj-51" value="同步更新" style="text;html=1;strokeColor=none;fillColor=none;align=center;verticalAlign=middle;whiteSpace=wrap;rounded=0;fontColor=#1F5AFF;" parent="1" vertex="1">
          <mxGeometry x="450" y="750" width="120" height="20" as="geometry" />
        </mxCell>
        <mxCell id="5I4GJiklxZvYFQcEl-Lj-53" value="异步更新" style="text;html=1;strokeColor=none;fillColor=none;align=center;verticalAlign=middle;whiteSpace=wrap;rounded=0;fontColor=#1F5AFF;" parent="1" vertex="1">
          <mxGeometry x="1343.16" y="690" width="120" height="20" as="geometry" />
        </mxCell>
        <mxCell id="5I4GJiklxZvYFQcEl-Lj-54" value="创建workInProgress" style="text;html=1;strokeColor=none;fillColor=none;align=center;verticalAlign=middle;whiteSpace=wrap;rounded=0;fontColor=#1F5AFF;" parent="1" vertex="1">
          <mxGeometry x="385" y="945" width="145" height="20" as="geometry" />
        </mxCell>
        <mxCell id="5I4GJiklxZvYFQcEl-Lj-55" value="mount阶段" style="text;html=1;strokeColor=none;fillColor=none;align=center;verticalAlign=middle;whiteSpace=wrap;rounded=0;fontColor=#1F5AFF;" parent="1" vertex="1">
          <mxGeometry x="180" y="1250" width="100" height="20" as="geometry" />
        </mxCell>
        <mxCell id="5I4GJiklxZvYFQcEl-Lj-57" value="update阶段，且current以及wip中的type或者props均不相等" style="text;html=1;strokeColor=none;fillColor=none;align=center;verticalAlign=middle;whiteSpace=wrap;rounded=0;fontColor=#1F5AFF;" parent="1" vertex="1">
          <mxGeometry x="-460" y="1465" width="180" height="35" as="geometry" />
        </mxCell>
        <mxCell id="5I4GJiklxZvYFQcEl-Lj-58" value="复用current的fiber节点" style="text;html=1;strokeColor=none;fillColor=none;align=center;verticalAlign=middle;whiteSpace=wrap;rounded=0;fontColor=#1F5AFF;" parent="1" vertex="1">
          <mxGeometry x="80" y="1485" width="90" height="20" as="geometry" />
        </mxCell>
        <mxCell id="5I4GJiklxZvYFQcEl-Lj-59" value="手机子节点" style="text;html=1;strokeColor=none;fillColor=none;align=center;verticalAlign=middle;whiteSpace=wrap;rounded=0;fontColor=#1F5AFF;" parent="1" vertex="1">
          <mxGeometry x="-157.5" y="1935" width="87.5" height="20" as="geometry" />
        </mxCell>
        <mxCell id="5I4GJiklxZvYFQcEl-Lj-60" value="mount阶段" style="text;html=1;strokeColor=none;fillColor=none;align=center;verticalAlign=middle;whiteSpace=wrap;rounded=0;fontColor=#1F5AFF;" parent="1" vertex="1">
          <mxGeometry x="-50" y="2060" width="100" height="20" as="geometry" />
        </mxCell>
        <mxCell id="5I4GJiklxZvYFQcEl-Lj-61" value="update阶段" style="text;html=1;strokeColor=none;fillColor=none;align=center;verticalAlign=middle;whiteSpace=wrap;rounded=0;fontColor=#1F5AFF;" parent="1" vertex="1">
          <mxGeometry x="-170" y="1230" width="100" height="20" as="geometry" />
        </mxCell>
        <mxCell id="5I4GJiklxZvYFQcEl-Lj-62" value="update阶段" style="text;html=1;strokeColor=none;fillColor=none;align=center;verticalAlign=middle;whiteSpace=wrap;rounded=0;fontColor=#1F5AFF;" parent="1" vertex="1">
          <mxGeometry x="-540" y="2060" width="100" height="20" as="geometry" />
        </mxCell>
        <mxCell id="5I4GJiklxZvYFQcEl-Lj-63" value="单个节点，mount阶段直接创建节点，update阶段的话，current和wip的key相同，如果type也相同的话，则只需要使用之前的节点，否则type不同的话，删除所有的子节点，创建新节点，如果可以不同的话，则只删除当前比较的节点，并且找siblings继续比较，如果找不到复用的节点的话，则创建节点。" style="text;html=1;strokeColor=none;fillColor=none;align=center;verticalAlign=middle;whiteSpace=wrap;rounded=0;fontColor=#1F5AFF;" parent="1" vertex="1">
          <mxGeometry x="-690" y="2220" width="170" height="165" as="geometry" />
        </mxCell>
        <mxCell id="5I4GJiklxZvYFQcEl-Lj-67" value="函数体内进行三次循环，第一次循环遍历新旧节点，一旦遇到key不一样的节点，则跳出第一次循环，然后如果新节点遍历完，则将剩余的老节点删除，如果老节点遍历完，还存在新节点，则进行第二次循环，遍历新的节点，创建新的Fiber，当新旧节点都没有遍历完成的话，则需要考虑是否存在交换位置的情况，进行第三次循环，第三次循环之前将剩余的oldFiber存在Map中，新节点在map中寻找是否存在可以复用的旧节点，如果存在的话，将Map中的旧节点删除，下面放置复制的节点，如果此节点的alternate的index小于最后放置的lastPlaceIndex的话，则表示此节点位置发生变动，需要添加flags，并且返回最后放置的位置，否则表示没有发生移动，返回oldIndex。" style="text;html=1;strokeColor=none;fillColor=none;align=center;verticalAlign=middle;whiteSpace=wrap;rounded=0;fontColor=#1F5AFF;" parent="1" vertex="1">
          <mxGeometry x="-114" y="2330" width="330" height="200" as="geometry" />
        </mxCell>
        <mxCell id="5I4GJiklxZvYFQcEl-Lj-68" value="高优先级打断低优先级的饥饿问题处理" style="text;html=1;strokeColor=none;fillColor=none;align=center;verticalAlign=middle;whiteSpace=wrap;rounded=0;fontColor=#1F5AFF;" parent="1" vertex="1">
          <mxGeometry x="2160" y="960" width="130.53" height="20" as="geometry" />
        </mxCell>
        <mxCell id="5I4GJiklxZvYFQcEl-Lj-71" value="高优先级插队" style="text;html=1;strokeColor=none;fillColor=none;align=center;verticalAlign=middle;whiteSpace=wrap;rounded=0;fontColor=#1F5AFF;" parent="1" vertex="1">
          <mxGeometry x="2340" y="1040" width="90" height="20" as="geometry" />
        </mxCell>
        <mxCell id="5I4GJiklxZvYFQcEl-Lj-73" value="优先级相同的任务，则将新旧任务都放在一起执行" style="text;html=1;strokeColor=none;fillColor=none;align=center;verticalAlign=middle;whiteSpace=wrap;rounded=0;fontColor=#1F5AFF;" parent="1" vertex="1">
          <mxGeometry x="1780" y="1000" width="160" height="40" as="geometry" />
        </mxCell>
        <mxCell id="5I4GJiklxZvYFQcEl-Lj-76" style="edgeStyle=orthogonalEdgeStyle;rounded=0;orthogonalLoop=1;jettySize=auto;html=1;exitX=0.5;exitY=1;exitDx=0;exitDy=0;fontColor=#1F5AFF;" parent="1" source="5I4GJiklxZvYFQcEl-Lj-75" target="5I4GJiklxZvYFQcEl-Lj-77" edge="1">
          <mxGeometry relative="1" as="geometry">
            <mxPoint x="910.7142857142858" y="1730" as="targetPoint" />
          </mxGeometry>
        </mxCell>
        <mxCell id="5I4GJiklxZvYFQcEl-Lj-78" value="" style="edgeStyle=orthogonalEdgeStyle;rounded=0;orthogonalLoop=1;jettySize=auto;html=1;fontColor=#1F5AFF;" parent="1" source="5I4GJiklxZvYFQcEl-Lj-75" target="5I4GJiklxZvYFQcEl-Lj-77" edge="1">
          <mxGeometry relative="1" as="geometry" />
        </mxCell>
        <mxCell id="5I4GJiklxZvYFQcEl-Lj-75" value="&lt;font color=&quot;#000000&quot;&gt;updateProperties&lt;/font&gt;" style="rounded=0;whiteSpace=wrap;html=1;fontColor=#1F5AFF;" parent="1" vertex="1">
          <mxGeometry x="850.71" y="1670" width="120" height="30" as="geometry" />
        </mxCell>
        <mxCell id="5I4GJiklxZvYFQcEl-Lj-77" value="updateDOMProperties" style="rounded=0;whiteSpace=wrap;html=1;" parent="1" vertex="1">
          <mxGeometry x="839.29" y="1730" width="140.71" height="30" as="geometry" />
        </mxCell>
        <mxCell id="5I4GJiklxZvYFQcEl-Lj-80" value="flushPassiveEffects" style="rounded=0;whiteSpace=wrap;html=1;fontColor=#000000;" parent="1" vertex="1">
          <mxGeometry x="550" y="990" width="120" height="30" as="geometry" />
        </mxCell>
        <mxCell id="5I4GJiklxZvYFQcEl-Lj-83" value="&lt;span style=&quot;font-size: 14px ; font-style: normal ; font-weight: 400 ; letter-spacing: normal ; text-align: left ; text-indent: 0px ; text-transform: none ; word-spacing: 0px ; background-color: rgb(255 , 255 , 255) ; display: inline ; float: none&quot;&gt;&lt;font color=&quot;#1f5aff&quot;&gt;传入的参数是HookLayout | HookHasEffect，也就是说执行useLayoutEffect的销毁函数。&lt;/font&gt;&lt;/span&gt;" style="text;whiteSpace=wrap;html=1;fontColor=#000000;" parent="1" vertex="1">
          <mxGeometry x="600" y="1630" width="200" height="30" as="geometry" />
        </mxCell>
        <mxCell id="5I4GJiklxZvYFQcEl-Lj-85" value="&lt;span style=&quot;font-size: 14px ; font-style: normal ; font-weight: 400 ; letter-spacing: normal ; text-align: left ; text-indent: 0px ; text-transform: none ; word-spacing: 0px ; background-color: rgb(255 , 255 , 255) ; display: inline ; float: none&quot;&gt;&lt;font color=&quot;#1f5aff&quot;&gt;传入的参数是HookLayout | HookHasEffect，也就是说调度useLayoutEffect的函数。&lt;/font&gt;&lt;/span&gt;" style="text;whiteSpace=wrap;html=1;fontColor=#000000;" parent="1" vertex="1">
          <mxGeometry x="1349.51" y="1220" width="200" height="60" as="geometry" />
        </mxCell>
        <mxCell id="5I4GJiklxZvYFQcEl-Lj-88" value="root.current = finishedWork;" style="rounded=0;whiteSpace=wrap;html=1;fontColor=#1F5AFF;" parent="1" vertex="1">
          <mxGeometry x="1289.67" y="990" width="120" height="30" as="geometry" />
        </mxCell>
        <mxCell id="5I4GJiklxZvYFQcEl-Lj-98" value="processUpdateQueue" style="rounded=0;whiteSpace=wrap;html=1;fontColor=#000000;" parent="1" vertex="1">
          <mxGeometry x="90" y="1850" width="135" height="30" as="geometry" />
        </mxCell>
      </root>
    </mxGraphModel>
  </diagram>
  <diagram id="Uhc3VBUKPxUdW6kDHvYJ" name="Page-2">
    <mxGraphModel dx="2840" dy="590" grid="1" gridSize="10" guides="1" tooltips="1" connect="1" arrows="1" fold="1" page="1" pageScale="1" pageWidth="827" pageHeight="1169" math="0" shadow="0">
      <root>
        <mxCell id="0" />
        <mxCell id="1" parent="0" />
        <mxCell id="akGsYw7yySem8ZPhfsrw-2" value="render" style="rounded=0;whiteSpace=wrap;html=1;" vertex="1" parent="1">
          <mxGeometry x="630" y="30" width="120" height="60" as="geometry" />
        </mxCell>
        <mxCell id="akGsYw7yySem8ZPhfsrw-297" value="" style="edgeStyle=orthogonalEdgeStyle;rounded=0;orthogonalLoop=1;jettySize=auto;html=1;" edge="1" parent="1" target="akGsYw7yySem8ZPhfsrw-30">
          <mxGeometry relative="1" as="geometry">
            <mxPoint x="690" y="180" as="sourcePoint" />
          </mxGeometry>
        </mxCell>
        <mxCell id="akGsYw7yySem8ZPhfsrw-8" value="createRootImpl" style="rounded=0;whiteSpace=wrap;html=1;" vertex="1" parent="1">
          <mxGeometry x="-130" y="140" width="120" height="60" as="geometry" />
        </mxCell>
        <mxCell id="akGsYw7yySem8ZPhfsrw-9" value="" style="endArrow=classic;html=1;exitX=0.5;exitY=1;exitDx=0;exitDy=0;" edge="1" parent="1" source="akGsYw7yySem8ZPhfsrw-8" target="akGsYw7yySem8ZPhfsrw-10">
          <mxGeometry width="50" height="50" relative="1" as="geometry">
            <mxPoint x="70" y="190" as="sourcePoint" />
            <mxPoint x="-30" y="170" as="targetPoint" />
            <Array as="points" />
          </mxGeometry>
        </mxCell>
        <mxCell id="akGsYw7yySem8ZPhfsrw-294" value="" style="edgeStyle=orthogonalEdgeStyle;rounded=0;orthogonalLoop=1;jettySize=auto;html=1;" edge="1" parent="1" source="akGsYw7yySem8ZPhfsrw-10" target="akGsYw7yySem8ZPhfsrw-293">
          <mxGeometry relative="1" as="geometry" />
        </mxCell>
        <mxCell id="akGsYw7yySem8ZPhfsrw-10" value="createContainer" style="rounded=0;whiteSpace=wrap;html=1;" vertex="1" parent="1">
          <mxGeometry x="-130" y="230" width="120" height="60" as="geometry" />
        </mxCell>
        <mxCell id="akGsYw7yySem8ZPhfsrw-11" style="edgeStyle=orthogonalEdgeStyle;rounded=0;orthogonalLoop=1;jettySize=auto;html=1;exitX=0;exitY=0.5;exitDx=0;exitDy=0;entryX=0.5;entryY=0;entryDx=0;entryDy=0;" edge="1" parent="1" source="akGsYw7yySem8ZPhfsrw-14" target="akGsYw7yySem8ZPhfsrw-17">
          <mxGeometry relative="1" as="geometry" />
        </mxCell>
        <mxCell id="akGsYw7yySem8ZPhfsrw-12" style="edgeStyle=orthogonalEdgeStyle;rounded=0;orthogonalLoop=1;jettySize=auto;html=1;exitX=0.5;exitY=1;exitDx=0;exitDy=0;entryX=0.5;entryY=0;entryDx=0;entryDy=0;startArrow=none;" edge="1" parent="1" source="akGsYw7yySem8ZPhfsrw-33" target="akGsYw7yySem8ZPhfsrw-19">
          <mxGeometry relative="1" as="geometry" />
        </mxCell>
        <mxCell id="akGsYw7yySem8ZPhfsrw-13" style="edgeStyle=orthogonalEdgeStyle;rounded=0;orthogonalLoop=1;jettySize=auto;html=1;exitX=1;exitY=0.5;exitDx=0;exitDy=0;entryX=0.5;entryY=0;entryDx=0;entryDy=0;" edge="1" parent="1" source="akGsYw7yySem8ZPhfsrw-14" target="akGsYw7yySem8ZPhfsrw-27">
          <mxGeometry relative="1" as="geometry" />
        </mxCell>
        <mxCell id="akGsYw7yySem8ZPhfsrw-14" value="createFiberRoot" style="rounded=0;whiteSpace=wrap;html=1;" vertex="1" parent="1">
          <mxGeometry x="-130" y="320" width="120" height="60" as="geometry" />
        </mxCell>
        <mxCell id="akGsYw7yySem8ZPhfsrw-15" value="" style="endArrow=classic;html=1;entryX=0.5;entryY=0;entryDx=0;entryDy=0;exitX=0.5;exitY=1;exitDx=0;exitDy=0;" edge="1" parent="1" source="akGsYw7yySem8ZPhfsrw-10" target="akGsYw7yySem8ZPhfsrw-14">
          <mxGeometry width="50" height="50" relative="1" as="geometry">
            <mxPoint x="-20" y="330" as="sourcePoint" />
            <mxPoint x="30" y="280" as="targetPoint" />
          </mxGeometry>
        </mxCell>
        <mxCell id="akGsYw7yySem8ZPhfsrw-16" value="创建FiberRootNode，根root节点" style="text;html=1;strokeColor=none;fillColor=none;align=center;verticalAlign=middle;whiteSpace=wrap;rounded=0;" vertex="1" parent="1">
          <mxGeometry x="-370" y="370" width="130" height="20" as="geometry" />
        </mxCell>
        <mxCell id="akGsYw7yySem8ZPhfsrw-17" value="FiberRootNode" style="rounded=0;whiteSpace=wrap;html=1;" vertex="1" parent="1">
          <mxGeometry x="-370" y="420" width="120" height="60" as="geometry" />
        </mxCell>
        <mxCell id="akGsYw7yySem8ZPhfsrw-18" style="edgeStyle=orthogonalEdgeStyle;rounded=0;orthogonalLoop=1;jettySize=auto;html=1;exitX=0.5;exitY=1;exitDx=0;exitDy=0;entryX=0.5;entryY=0;entryDx=0;entryDy=0;" edge="1" parent="1" source="akGsYw7yySem8ZPhfsrw-19" target="akGsYw7yySem8ZPhfsrw-21">
          <mxGeometry relative="1" as="geometry" />
        </mxCell>
        <mxCell id="akGsYw7yySem8ZPhfsrw-19" value="createHostRootFiber" style="rounded=0;whiteSpace=wrap;html=1;" vertex="1" parent="1">
          <mxGeometry x="-130" y="420" width="120" height="60" as="geometry" />
        </mxCell>
        <mxCell id="akGsYw7yySem8ZPhfsrw-20" style="edgeStyle=orthogonalEdgeStyle;rounded=0;orthogonalLoop=1;jettySize=auto;html=1;exitX=0.5;exitY=1;exitDx=0;exitDy=0;entryX=0.5;entryY=0;entryDx=0;entryDy=0;" edge="1" parent="1" source="akGsYw7yySem8ZPhfsrw-21" target="akGsYw7yySem8ZPhfsrw-22">
          <mxGeometry relative="1" as="geometry" />
        </mxCell>
        <mxCell id="akGsYw7yySem8ZPhfsrw-292" value="&lt;span style=&quot;font-size: 12px; background-color: rgb(248, 249, 250);&quot;&gt;创建真正意义上的Fiber根节点&lt;/span&gt;" style="edgeLabel;html=1;align=center;verticalAlign=middle;resizable=0;points=[];" vertex="1" connectable="0" parent="akGsYw7yySem8ZPhfsrw-20">
          <mxGeometry x="-0.175" relative="1" as="geometry">
            <mxPoint as="offset" />
          </mxGeometry>
        </mxCell>
        <mxCell id="akGsYw7yySem8ZPhfsrw-21" value="createFiber" style="rounded=0;whiteSpace=wrap;html=1;" vertex="1" parent="1">
          <mxGeometry x="-130" y="500" width="120" height="60" as="geometry" />
        </mxCell>
        <mxCell id="akGsYw7yySem8ZPhfsrw-22" value="FiberNode" style="rounded=0;whiteSpace=wrap;html=1;" vertex="1" parent="1">
          <mxGeometry x="-130" y="610" width="120" height="60" as="geometry" />
        </mxCell>
        <mxCell id="akGsYw7yySem8ZPhfsrw-23" value="" style="endArrow=classic;html=1;entryX=0;entryY=1;entryDx=0;entryDy=0;exitX=1;exitY=0.75;exitDx=0;exitDy=0;" edge="1" parent="1" source="akGsYw7yySem8ZPhfsrw-17" target="akGsYw7yySem8ZPhfsrw-22">
          <mxGeometry width="50" height="50" relative="1" as="geometry">
            <mxPoint x="100" y="630" as="sourcePoint" />
            <mxPoint x="150" y="580" as="targetPoint" />
          </mxGeometry>
        </mxCell>
        <mxCell id="akGsYw7yySem8ZPhfsrw-24" value="" style="endArrow=classic;html=1;exitX=0;exitY=0.5;exitDx=0;exitDy=0;entryX=1;entryY=0.25;entryDx=0;entryDy=0;" edge="1" parent="1" source="akGsYw7yySem8ZPhfsrw-22" target="akGsYw7yySem8ZPhfsrw-17">
          <mxGeometry width="50" height="50" relative="1" as="geometry">
            <mxPoint x="100" y="630" as="sourcePoint" />
            <mxPoint x="150" y="580" as="targetPoint" />
          </mxGeometry>
        </mxCell>
        <mxCell id="akGsYw7yySem8ZPhfsrw-25" value="stateNode" style="text;html=1;strokeColor=none;fillColor=none;align=center;verticalAlign=middle;whiteSpace=wrap;rounded=0;" vertex="1" parent="1">
          <mxGeometry x="-210" y="480" width="60" height="20" as="geometry" />
        </mxCell>
        <mxCell id="akGsYw7yySem8ZPhfsrw-26" value="current" style="text;html=1;strokeColor=none;fillColor=none;align=center;verticalAlign=middle;whiteSpace=wrap;rounded=0;" vertex="1" parent="1">
          <mxGeometry x="-250" y="540" width="40" height="20" as="geometry" />
        </mxCell>
        <mxCell id="akGsYw7yySem8ZPhfsrw-27" value="initializeUpdateQueue" style="rounded=0;whiteSpace=wrap;html=1;" vertex="1" parent="1">
          <mxGeometry x="100" y="420" width="140" height="40" as="geometry" />
        </mxCell>
        <mxCell id="akGsYw7yySem8ZPhfsrw-28" value="初始化更新队列" style="text;html=1;strokeColor=none;fillColor=none;align=center;verticalAlign=middle;whiteSpace=wrap;rounded=0;" vertex="1" parent="1">
          <mxGeometry x="335" y="370" width="90" height="20" as="geometry" />
        </mxCell>
        <mxCell id="akGsYw7yySem8ZPhfsrw-29" style="edgeStyle=orthogonalEdgeStyle;rounded=0;orthogonalLoop=1;jettySize=auto;html=1;entryX=0.5;entryY=0;entryDx=0;entryDy=0;" edge="1" parent="1" source="akGsYw7yySem8ZPhfsrw-2" target="akGsYw7yySem8ZPhfsrw-32">
          <mxGeometry relative="1" as="geometry">
            <mxPoint x="690" y="290" as="sourcePoint" />
          </mxGeometry>
        </mxCell>
        <mxCell id="akGsYw7yySem8ZPhfsrw-308" style="edgeStyle=orthogonalEdgeStyle;rounded=0;orthogonalLoop=1;jettySize=auto;html=1;exitX=0.25;exitY=1;exitDx=0;exitDy=0;entryX=0.5;entryY=0;entryDx=0;entryDy=0;" edge="1" parent="1" source="akGsYw7yySem8ZPhfsrw-32" target="akGsYw7yySem8ZPhfsrw-306">
          <mxGeometry relative="1" as="geometry" />
        </mxCell>
        <mxCell id="akGsYw7yySem8ZPhfsrw-313" value="生成执行时间eventTime" style="edgeLabel;html=1;align=center;verticalAlign=middle;resizable=0;points=[];" vertex="1" connectable="0" parent="akGsYw7yySem8ZPhfsrw-308">
          <mxGeometry x="-0.0725" y="3" relative="1" as="geometry">
            <mxPoint x="-24" y="-3" as="offset" />
          </mxGeometry>
        </mxCell>
        <mxCell id="akGsYw7yySem8ZPhfsrw-309" style="edgeStyle=orthogonalEdgeStyle;rounded=0;orthogonalLoop=1;jettySize=auto;html=1;exitX=0.75;exitY=1;exitDx=0;exitDy=0;entryX=0.5;entryY=0;entryDx=0;entryDy=0;" edge="1" parent="1" source="akGsYw7yySem8ZPhfsrw-32" target="akGsYw7yySem8ZPhfsrw-307">
          <mxGeometry relative="1" as="geometry" />
        </mxCell>
        <mxCell id="akGsYw7yySem8ZPhfsrw-314" value="生成更新的赛道updateLane" style="edgeLabel;html=1;align=center;verticalAlign=middle;resizable=0;points=[];" vertex="1" connectable="0" parent="akGsYw7yySem8ZPhfsrw-309">
          <mxGeometry x="0.1742" y="4" relative="1" as="geometry">
            <mxPoint x="41" y="4" as="offset" />
          </mxGeometry>
        </mxCell>
        <mxCell id="akGsYw7yySem8ZPhfsrw-32" value="updateContainer" style="rounded=0;whiteSpace=wrap;html=1;" vertex="1" parent="1">
          <mxGeometry x="630.71" y="130" width="120" height="60" as="geometry" />
        </mxCell>
        <mxCell id="akGsYw7yySem8ZPhfsrw-33" value="创建rootFiber" style="text;html=1;strokeColor=none;fillColor=none;align=center;verticalAlign=middle;whiteSpace=wrap;rounded=0;" vertex="1" parent="1">
          <mxGeometry x="-135" y="385" width="130" height="20" as="geometry" />
        </mxCell>
        <mxCell id="akGsYw7yySem8ZPhfsrw-34" value="" style="edgeStyle=orthogonalEdgeStyle;rounded=0;orthogonalLoop=1;jettySize=auto;html=1;exitX=0.5;exitY=1;exitDx=0;exitDy=0;entryX=0.5;entryY=0;entryDx=0;entryDy=0;endArrow=none;" edge="1" parent="1" source="akGsYw7yySem8ZPhfsrw-14" target="akGsYw7yySem8ZPhfsrw-33">
          <mxGeometry relative="1" as="geometry">
            <mxPoint x="-70" y="380" as="sourcePoint" />
            <mxPoint x="-70" y="405" as="targetPoint" />
          </mxGeometry>
        </mxCell>
        <mxCell id="akGsYw7yySem8ZPhfsrw-35" style="edgeStyle=orthogonalEdgeStyle;rounded=0;orthogonalLoop=1;jettySize=auto;html=1;exitX=0.5;exitY=1;exitDx=0;exitDy=0;entryX=0.5;entryY=0;entryDx=0;entryDy=0;" edge="1" parent="1" source="akGsYw7yySem8ZPhfsrw-36" target="akGsYw7yySem8ZPhfsrw-38">
          <mxGeometry relative="1" as="geometry" />
        </mxCell>
        <mxCell id="akGsYw7yySem8ZPhfsrw-36" value="createUpdate" style="rounded=0;whiteSpace=wrap;html=1;" vertex="1" parent="1">
          <mxGeometry x="630.71" y="330" width="120" height="60" as="geometry" />
        </mxCell>
        <mxCell id="akGsYw7yySem8ZPhfsrw-37" style="edgeStyle=orthogonalEdgeStyle;rounded=0;orthogonalLoop=1;jettySize=auto;html=1;exitX=0.5;exitY=1;exitDx=0;exitDy=0;entryX=0.5;entryY=0;entryDx=0;entryDy=0;" edge="1" parent="1" source="akGsYw7yySem8ZPhfsrw-38" target="akGsYw7yySem8ZPhfsrw-40">
          <mxGeometry relative="1" as="geometry" />
        </mxCell>
        <mxCell id="akGsYw7yySem8ZPhfsrw-38" value="enqueueUpdate" style="rounded=0;whiteSpace=wrap;html=1;" vertex="1" parent="1">
          <mxGeometry x="630.71" y="450" width="120" height="60" as="geometry" />
        </mxCell>
        <mxCell id="akGsYw7yySem8ZPhfsrw-350" value="" style="edgeStyle=orthogonalEdgeStyle;rounded=0;orthogonalLoop=1;jettySize=auto;html=1;" edge="1" parent="1" source="akGsYw7yySem8ZPhfsrw-40" target="akGsYw7yySem8ZPhfsrw-329">
          <mxGeometry relative="1" as="geometry" />
        </mxCell>
        <mxCell id="akGsYw7yySem8ZPhfsrw-40" value="scheduleUpdateOnFiber" style="rounded=0;whiteSpace=wrap;html=1;" vertex="1" parent="1">
          <mxGeometry x="615" y="554.5" width="150" height="60" as="geometry" />
        </mxCell>
        <mxCell id="akGsYw7yySem8ZPhfsrw-320" value="" style="edgeStyle=orthogonalEdgeStyle;rounded=0;orthogonalLoop=1;jettySize=auto;html=1;" edge="1" parent="1" source="akGsYw7yySem8ZPhfsrw-48" target="akGsYw7yySem8ZPhfsrw-53">
          <mxGeometry relative="1" as="geometry" />
        </mxCell>
        <mxCell id="akGsYw7yySem8ZPhfsrw-48" value="performSyncWorkOnRoot" style="rounded=0;whiteSpace=wrap;html=1;" vertex="1" parent="1">
          <mxGeometry x="259" y="1060" width="160" height="30" as="geometry" />
        </mxCell>
        <mxCell id="akGsYw7yySem8ZPhfsrw-51" style="edgeStyle=orthogonalEdgeStyle;rounded=0;orthogonalLoop=1;jettySize=auto;html=1;exitX=0.5;exitY=1;exitDx=0;exitDy=0;" edge="1" parent="1" source="akGsYw7yySem8ZPhfsrw-53">
          <mxGeometry relative="1" as="geometry">
            <mxPoint x="339" y="1210" as="targetPoint" />
          </mxGeometry>
        </mxCell>
        <mxCell id="akGsYw7yySem8ZPhfsrw-53" value="renderRootSync" style="rounded=0;whiteSpace=wrap;html=1;" vertex="1" parent="1">
          <mxGeometry x="284" y="1130" width="110" height="30" as="geometry" />
        </mxCell>
        <mxCell id="akGsYw7yySem8ZPhfsrw-54" style="edgeStyle=orthogonalEdgeStyle;rounded=0;orthogonalLoop=1;jettySize=auto;html=1;exitX=0.5;exitY=1;exitDx=0;exitDy=0;entryX=0.5;entryY=0;entryDx=0;entryDy=0;" edge="1" parent="1" source="akGsYw7yySem8ZPhfsrw-55" target="akGsYw7yySem8ZPhfsrw-57">
          <mxGeometry relative="1" as="geometry" />
        </mxCell>
        <mxCell id="akGsYw7yySem8ZPhfsrw-55" value="prepareFreshStack" style="rounded=0;whiteSpace=wrap;html=1;" vertex="1" parent="1">
          <mxGeometry x="279" y="1210" width="120" height="30" as="geometry" />
        </mxCell>
        <mxCell id="akGsYw7yySem8ZPhfsrw-56" style="edgeStyle=orthogonalEdgeStyle;rounded=0;orthogonalLoop=1;jettySize=auto;html=1;exitX=0.5;exitY=1;exitDx=0;exitDy=0;entryX=0.5;entryY=0;entryDx=0;entryDy=0;" edge="1" parent="1" source="akGsYw7yySem8ZPhfsrw-57" target="akGsYw7yySem8ZPhfsrw-60">
          <mxGeometry relative="1" as="geometry" />
        </mxCell>
        <mxCell id="akGsYw7yySem8ZPhfsrw-57" value="workLoopSync" style="rounded=0;whiteSpace=wrap;html=1;" vertex="1" parent="1">
          <mxGeometry x="279" y="1280" width="120" height="30" as="geometry" />
        </mxCell>
        <mxCell id="akGsYw7yySem8ZPhfsrw-58" style="edgeStyle=orthogonalEdgeStyle;rounded=0;orthogonalLoop=1;jettySize=auto;html=1;exitX=0;exitY=0.5;exitDx=0;exitDy=0;entryX=0.5;entryY=0;entryDx=0;entryDy=0;" edge="1" parent="1" source="akGsYw7yySem8ZPhfsrw-60" target="akGsYw7yySem8ZPhfsrw-64">
          <mxGeometry relative="1" as="geometry" />
        </mxCell>
        <mxCell id="akGsYw7yySem8ZPhfsrw-59" style="edgeStyle=orthogonalEdgeStyle;rounded=0;orthogonalLoop=1;jettySize=auto;html=1;exitX=1;exitY=0.5;exitDx=0;exitDy=0;entryX=0.5;entryY=0;entryDx=0;entryDy=0;" edge="1" parent="1" source="akGsYw7yySem8ZPhfsrw-60" target="akGsYw7yySem8ZPhfsrw-66">
          <mxGeometry relative="1" as="geometry" />
        </mxCell>
        <mxCell id="akGsYw7yySem8ZPhfsrw-60" value="performUnitOfWork" style="rounded=0;whiteSpace=wrap;html=1;" vertex="1" parent="1">
          <mxGeometry x="279" y="1350" width="120" height="30" as="geometry" />
        </mxCell>
        <mxCell id="akGsYw7yySem8ZPhfsrw-61" style="edgeStyle=orthogonalEdgeStyle;rounded=0;orthogonalLoop=1;jettySize=auto;html=1;exitX=0.5;exitY=1;exitDx=0;exitDy=0;entryX=0.5;entryY=0;entryDx=0;entryDy=0;" edge="1" parent="1" source="akGsYw7yySem8ZPhfsrw-64" target="akGsYw7yySem8ZPhfsrw-71">
          <mxGeometry relative="1" as="geometry" />
        </mxCell>
        <mxCell id="akGsYw7yySem8ZPhfsrw-62" style="edgeStyle=orthogonalEdgeStyle;rounded=0;orthogonalLoop=1;jettySize=auto;html=1;exitX=1;exitY=0.5;exitDx=0;exitDy=0;entryX=0;entryY=0.5;entryDx=0;entryDy=0;" edge="1" parent="1" source="akGsYw7yySem8ZPhfsrw-64" target="akGsYw7yySem8ZPhfsrw-66">
          <mxGeometry relative="1" as="geometry" />
        </mxCell>
        <mxCell id="akGsYw7yySem8ZPhfsrw-63" value="next === null" style="edgeLabel;html=1;align=center;verticalAlign=middle;resizable=0;points=[];" vertex="1" connectable="0" parent="akGsYw7yySem8ZPhfsrw-62">
          <mxGeometry x="-0.1437" y="-1" relative="1" as="geometry">
            <mxPoint as="offset" />
          </mxGeometry>
        </mxCell>
        <mxCell id="akGsYw7yySem8ZPhfsrw-64" value="beginWork" style="rounded=0;whiteSpace=wrap;html=1;" vertex="1" parent="1">
          <mxGeometry x="-16" y="1400" width="120" height="30" as="geometry" />
        </mxCell>
        <mxCell id="akGsYw7yySem8ZPhfsrw-65" style="edgeStyle=orthogonalEdgeStyle;rounded=0;orthogonalLoop=1;jettySize=auto;html=1;exitX=0.5;exitY=1;exitDx=0;exitDy=0;entryX=0.5;entryY=0;entryDx=0;entryDy=0;" edge="1" parent="1" source="akGsYw7yySem8ZPhfsrw-66" target="akGsYw7yySem8ZPhfsrw-151">
          <mxGeometry relative="1" as="geometry" />
        </mxCell>
        <mxCell id="akGsYw7yySem8ZPhfsrw-66" value="completeWork" style="rounded=0;whiteSpace=wrap;html=1;" vertex="1" parent="1">
          <mxGeometry x="584" y="1400" width="120" height="30" as="geometry" />
        </mxCell>
        <mxCell id="akGsYw7yySem8ZPhfsrw-67" style="edgeStyle=orthogonalEdgeStyle;rounded=0;orthogonalLoop=1;jettySize=auto;html=1;exitX=0;exitY=0.5;exitDx=0;exitDy=0;" edge="1" parent="1" source="akGsYw7yySem8ZPhfsrw-71">
          <mxGeometry relative="1" as="geometry">
            <mxPoint x="-146" y="1590" as="targetPoint" />
          </mxGeometry>
        </mxCell>
        <mxCell id="akGsYw7yySem8ZPhfsrw-68" value="&lt;span style=&quot;font-size: 12px ; background-color: rgb(248 , 249 , 250)&quot;&gt;update更新&lt;/span&gt;" style="edgeLabel;html=1;align=center;verticalAlign=middle;resizable=0;points=[];" vertex="1" connectable="0" parent="akGsYw7yySem8ZPhfsrw-67">
          <mxGeometry x="0.5385" y="-2" relative="1" as="geometry">
            <mxPoint as="offset" />
          </mxGeometry>
        </mxCell>
        <mxCell id="akGsYw7yySem8ZPhfsrw-69" style="edgeStyle=orthogonalEdgeStyle;rounded=0;orthogonalLoop=1;jettySize=auto;html=1;exitX=1;exitY=0.5;exitDx=0;exitDy=0;entryX=0.5;entryY=0;entryDx=0;entryDy=0;" edge="1" parent="1" source="akGsYw7yySem8ZPhfsrw-71" target="akGsYw7yySem8ZPhfsrw-73">
          <mxGeometry relative="1" as="geometry" />
        </mxCell>
        <mxCell id="akGsYw7yySem8ZPhfsrw-70" value="&lt;span style=&quot;font-size: 12px ; background-color: rgb(248 , 249 , 250)&quot;&gt;mount创建&lt;/span&gt;" style="edgeLabel;html=1;align=center;verticalAlign=middle;resizable=0;points=[];" vertex="1" connectable="0" parent="akGsYw7yySem8ZPhfsrw-69">
          <mxGeometry x="0.5569" relative="1" as="geometry">
            <mxPoint y="1" as="offset" />
          </mxGeometry>
        </mxCell>
        <mxCell id="akGsYw7yySem8ZPhfsrw-71" value="current !== null" style="rhombus;whiteSpace=wrap;html=1;" vertex="1" parent="1">
          <mxGeometry x="-21" y="1480" width="130" height="80" as="geometry" />
        </mxCell>
        <mxCell id="akGsYw7yySem8ZPhfsrw-72" style="edgeStyle=orthogonalEdgeStyle;rounded=0;orthogonalLoop=1;jettySize=auto;html=1;exitX=0.5;exitY=1;exitDx=0;exitDy=0;fontColor=#1F5AFF;entryX=1;entryY=0.5;entryDx=0;entryDy=0;" edge="1" parent="1" source="akGsYw7yySem8ZPhfsrw-73" target="akGsYw7yySem8ZPhfsrw-91">
          <mxGeometry relative="1" as="geometry">
            <mxPoint x="-136" y="1910" as="targetPoint" />
            <Array as="points">
              <mxPoint x="202" y="1910" />
            </Array>
          </mxGeometry>
        </mxCell>
        <mxCell id="akGsYw7yySem8ZPhfsrw-73" value="didReceiveUpdate = false" style="rounded=0;whiteSpace=wrap;html=1;" vertex="1" parent="1">
          <mxGeometry x="124" y="1590" width="155" height="40" as="geometry" />
        </mxCell>
        <mxCell id="akGsYw7yySem8ZPhfsrw-74" style="edgeStyle=orthogonalEdgeStyle;rounded=0;orthogonalLoop=1;jettySize=auto;html=1;exitX=0;exitY=0.5;exitDx=0;exitDy=0;" edge="1" parent="1" source="akGsYw7yySem8ZPhfsrw-78" target="akGsYw7yySem8ZPhfsrw-82">
          <mxGeometry relative="1" as="geometry">
            <mxPoint x="-306" y="1690" as="targetPoint" />
          </mxGeometry>
        </mxCell>
        <mxCell id="akGsYw7yySem8ZPhfsrw-75" value="true" style="edgeLabel;html=1;align=center;verticalAlign=middle;resizable=0;points=[];" vertex="1" connectable="0" parent="akGsYw7yySem8ZPhfsrw-74">
          <mxGeometry x="0.4667" y="-1" relative="1" as="geometry">
            <mxPoint as="offset" />
          </mxGeometry>
        </mxCell>
        <mxCell id="akGsYw7yySem8ZPhfsrw-76" style="edgeStyle=orthogonalEdgeStyle;rounded=0;orthogonalLoop=1;jettySize=auto;html=1;exitX=1;exitY=0.5;exitDx=0;exitDy=0;" edge="1" parent="1" source="akGsYw7yySem8ZPhfsrw-78" target="akGsYw7yySem8ZPhfsrw-80">
          <mxGeometry relative="1" as="geometry">
            <mxPoint x="-6" y="1700" as="targetPoint" />
          </mxGeometry>
        </mxCell>
        <mxCell id="akGsYw7yySem8ZPhfsrw-77" value="false" style="edgeLabel;html=1;align=center;verticalAlign=middle;resizable=0;points=[];" vertex="1" connectable="0" parent="akGsYw7yySem8ZPhfsrw-76">
          <mxGeometry x="0.42" relative="1" as="geometry">
            <mxPoint as="offset" />
          </mxGeometry>
        </mxCell>
        <mxCell id="akGsYw7yySem8ZPhfsrw-78" value="&lt;span style=&quot;color: rgb(0 , 0 , 0) ; font-family: &amp;#34;helvetica&amp;#34; ; font-size: 12px ; font-style: normal ; font-weight: 400 ; letter-spacing: normal ; text-align: center ; text-indent: 0px ; text-transform: none ; word-spacing: 0px ; background-color: rgb(248 , 249 , 250) ; display: inline ; float: none&quot;&gt;didReceiveUpdate&lt;/span&gt;" style="rhombus;whiteSpace=wrap;html=1;" vertex="1" parent="1">
          <mxGeometry x="-236" y="1590" width="180" height="60" as="geometry" />
        </mxCell>
        <mxCell id="akGsYw7yySem8ZPhfsrw-79" style="edgeStyle=orthogonalEdgeStyle;rounded=0;orthogonalLoop=1;jettySize=auto;html=1;exitX=0.5;exitY=1;exitDx=0;exitDy=0;entryX=0.5;entryY=0;entryDx=0;entryDy=0;" edge="1" parent="1" source="akGsYw7yySem8ZPhfsrw-80" target="akGsYw7yySem8ZPhfsrw-85">
          <mxGeometry relative="1" as="geometry" />
        </mxCell>
        <mxCell id="akGsYw7yySem8ZPhfsrw-80" value="!includesSomeLane(renderLanes, updateLanes)" style="rounded=0;whiteSpace=wrap;html=1;" vertex="1" parent="1">
          <mxGeometry x="-86" y="1680" width="190" height="30" as="geometry" />
        </mxCell>
        <mxCell id="akGsYw7yySem8ZPhfsrw-81" style="edgeStyle=orthogonalEdgeStyle;rounded=0;orthogonalLoop=1;jettySize=auto;html=1;exitX=0.5;exitY=1;exitDx=0;exitDy=0;entryX=0;entryY=0.5;entryDx=0;entryDy=0;" edge="1" parent="1" source="akGsYw7yySem8ZPhfsrw-82" target="akGsYw7yySem8ZPhfsrw-91">
          <mxGeometry relative="1" as="geometry" />
        </mxCell>
        <mxCell id="akGsYw7yySem8ZPhfsrw-82" value="oldProps !== newProps || context changed" style="rounded=0;whiteSpace=wrap;html=1;" vertex="1" parent="1">
          <mxGeometry x="-356" y="1680" width="190" height="30" as="geometry" />
        </mxCell>
        <mxCell id="akGsYw7yySem8ZPhfsrw-83" style="edgeStyle=orthogonalEdgeStyle;rounded=0;orthogonalLoop=1;jettySize=auto;html=1;exitX=0.5;exitY=1;exitDx=0;exitDy=0;" edge="1" parent="1" source="akGsYw7yySem8ZPhfsrw-82" target="akGsYw7yySem8ZPhfsrw-82">
          <mxGeometry relative="1" as="geometry" />
        </mxCell>
        <mxCell id="akGsYw7yySem8ZPhfsrw-84" style="edgeStyle=orthogonalEdgeStyle;rounded=0;orthogonalLoop=1;jettySize=auto;html=1;exitX=0.5;exitY=1;exitDx=0;exitDy=0;entryX=0.5;entryY=0;entryDx=0;entryDy=0;" edge="1" parent="1" source="akGsYw7yySem8ZPhfsrw-85" target="akGsYw7yySem8ZPhfsrw-87">
          <mxGeometry relative="1" as="geometry" />
        </mxCell>
        <mxCell id="akGsYw7yySem8ZPhfsrw-85" value="bailoutOnAlreadyFinishedWork" style="rounded=0;whiteSpace=wrap;html=1;" vertex="1" parent="1">
          <mxGeometry x="-82" y="1745" width="186" height="30" as="geometry" />
        </mxCell>
        <mxCell id="akGsYw7yySem8ZPhfsrw-86" style="edgeStyle=orthogonalEdgeStyle;rounded=0;orthogonalLoop=1;jettySize=auto;html=1;exitX=0.5;exitY=1;exitDx=0;exitDy=0;entryX=1;entryY=0.5;entryDx=0;entryDy=0;" edge="1" parent="1" source="akGsYw7yySem8ZPhfsrw-87" target="akGsYw7yySem8ZPhfsrw-91">
          <mxGeometry relative="1" as="geometry" />
        </mxCell>
        <mxCell id="akGsYw7yySem8ZPhfsrw-87" value="&lt;div style=&quot;line-height: 18px&quot;&gt;&lt;span style=&quot;background-color: rgb(255 , 255 , 255)&quot;&gt;cloneChildFibers&lt;/span&gt;&lt;br&gt;&lt;/div&gt;" style="rounded=0;whiteSpace=wrap;html=1;" vertex="1" parent="1">
          <mxGeometry x="-76" y="1810" width="170" height="30" as="geometry" />
        </mxCell>
        <mxCell id="akGsYw7yySem8ZPhfsrw-88" style="edgeStyle=orthogonalEdgeStyle;rounded=0;orthogonalLoop=1;jettySize=auto;html=1;exitX=0.5;exitY=1;exitDx=0;exitDy=0;" edge="1" parent="1" source="akGsYw7yySem8ZPhfsrw-91" target="akGsYw7yySem8ZPhfsrw-93">
          <mxGeometry relative="1" as="geometry">
            <mxPoint x="-316" y="2000" as="targetPoint" />
          </mxGeometry>
        </mxCell>
        <mxCell id="akGsYw7yySem8ZPhfsrw-89" style="edgeStyle=orthogonalEdgeStyle;rounded=0;orthogonalLoop=1;jettySize=auto;html=1;exitX=0.5;exitY=1;exitDx=0;exitDy=0;entryX=0.5;entryY=0;entryDx=0;entryDy=0;" edge="1" parent="1" source="akGsYw7yySem8ZPhfsrw-91" target="akGsYw7yySem8ZPhfsrw-97">
          <mxGeometry relative="1" as="geometry">
            <mxPoint x="24" y="1980" as="targetPoint" />
          </mxGeometry>
        </mxCell>
        <mxCell id="akGsYw7yySem8ZPhfsrw-90" style="edgeStyle=orthogonalEdgeStyle;rounded=0;orthogonalLoop=1;jettySize=auto;html=1;exitX=0.5;exitY=1;exitDx=0;exitDy=0;entryX=0.5;entryY=0;entryDx=0;entryDy=0;" edge="1" parent="1" source="akGsYw7yySem8ZPhfsrw-91" target="akGsYw7yySem8ZPhfsrw-95">
          <mxGeometry relative="1" as="geometry" />
        </mxCell>
        <mxCell id="akGsYw7yySem8ZPhfsrw-91" value="workInProgress.tag" style="rhombus;whiteSpace=wrap;html=1;" vertex="1" parent="1">
          <mxGeometry x="-291" y="1880" width="150" height="60" as="geometry" />
        </mxCell>
        <mxCell id="akGsYw7yySem8ZPhfsrw-92" style="edgeStyle=orthogonalEdgeStyle;rounded=0;orthogonalLoop=1;jettySize=auto;html=1;exitX=0.5;exitY=1;exitDx=0;exitDy=0;entryX=0.5;entryY=0;entryDx=0;entryDy=0;" edge="1" parent="1" source="akGsYw7yySem8ZPhfsrw-93" target="akGsYw7yySem8ZPhfsrw-99">
          <mxGeometry relative="1" as="geometry" />
        </mxCell>
        <mxCell id="akGsYw7yySem8ZPhfsrw-93" value="FunctionComponent" style="rounded=0;whiteSpace=wrap;html=1;" vertex="1" parent="1">
          <mxGeometry x="-476" y="1980" width="120" height="30" as="geometry" />
        </mxCell>
        <mxCell id="akGsYw7yySem8ZPhfsrw-94" style="edgeStyle=orthogonalEdgeStyle;rounded=0;orthogonalLoop=1;jettySize=auto;html=1;exitX=0.5;exitY=1;exitDx=0;exitDy=0;entryX=0.5;entryY=0;entryDx=0;entryDy=0;" edge="1" parent="1" source="akGsYw7yySem8ZPhfsrw-95" target="akGsYw7yySem8ZPhfsrw-102">
          <mxGeometry relative="1" as="geometry" />
        </mxCell>
        <mxCell id="akGsYw7yySem8ZPhfsrw-95" value="ClassComponent" style="rounded=0;whiteSpace=wrap;html=1;" vertex="1" parent="1">
          <mxGeometry x="-276" y="1980" width="120" height="30" as="geometry" />
        </mxCell>
        <mxCell id="akGsYw7yySem8ZPhfsrw-96" style="edgeStyle=orthogonalEdgeStyle;rounded=0;orthogonalLoop=1;jettySize=auto;html=1;exitX=0.5;exitY=1;exitDx=0;exitDy=0;" edge="1" parent="1" source="akGsYw7yySem8ZPhfsrw-97" target="akGsYw7yySem8ZPhfsrw-105">
          <mxGeometry relative="1" as="geometry" />
        </mxCell>
        <mxCell id="akGsYw7yySem8ZPhfsrw-97" value="HostComponent" style="rounded=0;whiteSpace=wrap;html=1;" vertex="1" parent="1">
          <mxGeometry x="-86" y="1980" width="120" height="30" as="geometry" />
        </mxCell>
        <mxCell id="akGsYw7yySem8ZPhfsrw-98" style="edgeStyle=orthogonalEdgeStyle;rounded=0;orthogonalLoop=1;jettySize=auto;html=1;exitX=0.5;exitY=1;exitDx=0;exitDy=0;entryX=0.5;entryY=0;entryDx=0;entryDy=0;" edge="1" parent="1" source="akGsYw7yySem8ZPhfsrw-99" target="akGsYw7yySem8ZPhfsrw-109">
          <mxGeometry relative="1" as="geometry" />
        </mxCell>
        <mxCell id="akGsYw7yySem8ZPhfsrw-99" value="updateFunctionComponent" style="rounded=0;whiteSpace=wrap;html=1;" vertex="1" parent="1">
          <mxGeometry x="-486" y="2040" width="145" height="30" as="geometry" />
        </mxCell>
        <mxCell id="akGsYw7yySem8ZPhfsrw-100" style="edgeStyle=orthogonalEdgeStyle;rounded=0;orthogonalLoop=1;jettySize=auto;html=1;exitX=0.5;exitY=1;exitDx=0;exitDy=0;entryX=0.5;entryY=0;entryDx=0;entryDy=0;fontColor=#000000;" edge="1" parent="1" source="akGsYw7yySem8ZPhfsrw-102" target="akGsYw7yySem8ZPhfsrw-107">
          <mxGeometry relative="1" as="geometry" />
        </mxCell>
        <mxCell id="akGsYw7yySem8ZPhfsrw-101" style="edgeStyle=orthogonalEdgeStyle;rounded=0;orthogonalLoop=1;jettySize=auto;html=1;exitX=0.75;exitY=1;exitDx=0;exitDy=0;entryX=0.5;entryY=0;entryDx=0;entryDy=0;fontColor=#000000;" edge="1" parent="1" source="akGsYw7yySem8ZPhfsrw-102" target="akGsYw7yySem8ZPhfsrw-283">
          <mxGeometry relative="1" as="geometry" />
        </mxCell>
        <mxCell id="akGsYw7yySem8ZPhfsrw-102" value="updateClassComponent" style="rounded=0;whiteSpace=wrap;html=1;" vertex="1" parent="1">
          <mxGeometry x="-283.5" y="2040" width="135" height="30" as="geometry" />
        </mxCell>
        <mxCell id="akGsYw7yySem8ZPhfsrw-103" style="edgeStyle=orthogonalEdgeStyle;rounded=0;orthogonalLoop=1;jettySize=auto;html=1;exitX=0.5;exitY=1;exitDx=0;exitDy=0;entryX=0.5;entryY=0;entryDx=0;entryDy=0;" edge="1" parent="1" source="akGsYw7yySem8ZPhfsrw-105" target="akGsYw7yySem8ZPhfsrw-107">
          <mxGeometry relative="1" as="geometry">
            <Array as="points">
              <mxPoint x="-26" y="2170" />
              <mxPoint x="-216" y="2170" />
            </Array>
          </mxGeometry>
        </mxCell>
        <mxCell id="akGsYw7yySem8ZPhfsrw-104" style="edgeStyle=orthogonalEdgeStyle;rounded=0;orthogonalLoop=1;jettySize=auto;html=1;exitX=1;exitY=0.5;exitDx=0;exitDy=0;fontColor=#000000;" edge="1" parent="1" source="akGsYw7yySem8ZPhfsrw-105">
          <mxGeometry relative="1" as="geometry">
            <mxPoint x="174" y="2120" as="targetPoint" />
            <Array as="points">
              <mxPoint x="174" y="2055" />
            </Array>
          </mxGeometry>
        </mxCell>
        <mxCell id="akGsYw7yySem8ZPhfsrw-105" value="updateHostComponent" style="rounded=0;whiteSpace=wrap;html=1;" vertex="1" parent="1">
          <mxGeometry x="-93.5" y="2040" width="135" height="30" as="geometry" />
        </mxCell>
        <mxCell id="akGsYw7yySem8ZPhfsrw-106" style="edgeStyle=orthogonalEdgeStyle;rounded=0;orthogonalLoop=1;jettySize=auto;html=1;exitX=0.5;exitY=1;exitDx=0;exitDy=0;entryX=0.5;entryY=0;entryDx=0;entryDy=0;" edge="1" parent="1" source="akGsYw7yySem8ZPhfsrw-107" target="akGsYw7yySem8ZPhfsrw-114">
          <mxGeometry relative="1" as="geometry" />
        </mxCell>
        <mxCell id="akGsYw7yySem8ZPhfsrw-107" value="reconcileChildren" style="rounded=0;whiteSpace=wrap;html=1;" vertex="1" parent="1">
          <mxGeometry x="-288.5" y="2200" width="145" height="30" as="geometry" />
        </mxCell>
        <mxCell id="akGsYw7yySem8ZPhfsrw-108" style="edgeStyle=orthogonalEdgeStyle;rounded=0;orthogonalLoop=1;jettySize=auto;html=1;exitX=0.5;exitY=1;exitDx=0;exitDy=0;entryX=0.5;entryY=0;entryDx=0;entryDy=0;" edge="1" parent="1" source="akGsYw7yySem8ZPhfsrw-109" target="akGsYw7yySem8ZPhfsrw-107">
          <mxGeometry relative="1" as="geometry" />
        </mxCell>
        <mxCell id="akGsYw7yySem8ZPhfsrw-109" value="renderWithHooks" style="rounded=0;whiteSpace=wrap;html=1;" vertex="1" parent="1">
          <mxGeometry x="-486" y="2110" width="145" height="30" as="geometry" />
        </mxCell>
        <mxCell id="akGsYw7yySem8ZPhfsrw-110" style="edgeStyle=orthogonalEdgeStyle;rounded=0;orthogonalLoop=1;jettySize=auto;html=1;exitX=0;exitY=0.5;exitDx=0;exitDy=0;" edge="1" parent="1" source="akGsYw7yySem8ZPhfsrw-114" target="akGsYw7yySem8ZPhfsrw-118">
          <mxGeometry relative="1" as="geometry">
            <mxPoint x="-366" y="2350" as="targetPoint" />
          </mxGeometry>
        </mxCell>
        <mxCell id="akGsYw7yySem8ZPhfsrw-111" value="true" style="edgeLabel;html=1;align=center;verticalAlign=middle;resizable=0;points=[];" vertex="1" connectable="0" parent="akGsYw7yySem8ZPhfsrw-110">
          <mxGeometry x="0.4286" y="-1" relative="1" as="geometry">
            <mxPoint as="offset" />
          </mxGeometry>
        </mxCell>
        <mxCell id="akGsYw7yySem8ZPhfsrw-112" style="edgeStyle=orthogonalEdgeStyle;rounded=0;orthogonalLoop=1;jettySize=auto;html=1;exitX=1;exitY=0.5;exitDx=0;exitDy=0;" edge="1" parent="1" source="akGsYw7yySem8ZPhfsrw-114" target="akGsYw7yySem8ZPhfsrw-116">
          <mxGeometry relative="1" as="geometry">
            <mxPoint x="-96" y="2350" as="targetPoint" />
          </mxGeometry>
        </mxCell>
        <mxCell id="akGsYw7yySem8ZPhfsrw-113" value="false" style="edgeLabel;html=1;align=center;verticalAlign=middle;resizable=0;points=[];" vertex="1" connectable="0" parent="akGsYw7yySem8ZPhfsrw-112">
          <mxGeometry x="-0.0133" y="-2" relative="1" as="geometry">
            <mxPoint as="offset" />
          </mxGeometry>
        </mxCell>
        <mxCell id="akGsYw7yySem8ZPhfsrw-114" value="current !== null" style="rhombus;whiteSpace=wrap;html=1;" vertex="1" parent="1">
          <mxGeometry x="-296" y="2260" width="160" height="50" as="geometry" />
        </mxCell>
        <mxCell id="akGsYw7yySem8ZPhfsrw-115" style="edgeStyle=orthogonalEdgeStyle;rounded=0;orthogonalLoop=1;jettySize=auto;html=1;exitX=0.5;exitY=1;exitDx=0;exitDy=0;" edge="1" parent="1" source="akGsYw7yySem8ZPhfsrw-116" target="akGsYw7yySem8ZPhfsrw-121">
          <mxGeometry relative="1" as="geometry">
            <mxPoint x="-216" y="2420" as="targetPoint" />
          </mxGeometry>
        </mxCell>
        <mxCell id="akGsYw7yySem8ZPhfsrw-116" value="mountChildFibers" style="rounded=0;whiteSpace=wrap;html=1;" vertex="1" parent="1">
          <mxGeometry x="-156" y="2320" width="120" height="40" as="geometry" />
        </mxCell>
        <mxCell id="akGsYw7yySem8ZPhfsrw-117" style="edgeStyle=orthogonalEdgeStyle;rounded=0;orthogonalLoop=1;jettySize=auto;html=1;exitX=0.5;exitY=1;exitDx=0;exitDy=0;" edge="1" parent="1" source="akGsYw7yySem8ZPhfsrw-118">
          <mxGeometry relative="1" as="geometry">
            <mxPoint x="-216" y="2420" as="targetPoint" />
          </mxGeometry>
        </mxCell>
        <mxCell id="akGsYw7yySem8ZPhfsrw-118" value="reconcileChildFibers" style="rounded=0;whiteSpace=wrap;html=1;" vertex="1" parent="1">
          <mxGeometry x="-426" y="2320" width="120" height="40" as="geometry" />
        </mxCell>
        <mxCell id="akGsYw7yySem8ZPhfsrw-119" style="edgeStyle=orthogonalEdgeStyle;rounded=0;orthogonalLoop=1;jettySize=auto;html=1;exitX=0.5;exitY=1;exitDx=0;exitDy=0;" edge="1" parent="1" source="akGsYw7yySem8ZPhfsrw-121" target="akGsYw7yySem8ZPhfsrw-123">
          <mxGeometry relative="1" as="geometry">
            <mxPoint x="-436" y="2510" as="targetPoint" />
          </mxGeometry>
        </mxCell>
        <mxCell id="akGsYw7yySem8ZPhfsrw-120" style="edgeStyle=orthogonalEdgeStyle;rounded=0;orthogonalLoop=1;jettySize=auto;html=1;exitX=0.5;exitY=1;exitDx=0;exitDy=0;entryX=0.5;entryY=0;entryDx=0;entryDy=0;" edge="1" parent="1" source="akGsYw7yySem8ZPhfsrw-121" target="akGsYw7yySem8ZPhfsrw-125">
          <mxGeometry relative="1" as="geometry" />
        </mxCell>
        <mxCell id="akGsYw7yySem8ZPhfsrw-121" value="ChildReconciler" style="rounded=0;whiteSpace=wrap;html=1;" vertex="1" parent="1">
          <mxGeometry x="-276" y="2420" width="120" height="40" as="geometry" />
        </mxCell>
        <mxCell id="akGsYw7yySem8ZPhfsrw-122" style="edgeStyle=orthogonalEdgeStyle;rounded=0;orthogonalLoop=1;jettySize=auto;html=1;exitX=0.5;exitY=1;exitDx=0;exitDy=0;" edge="1" parent="1" source="akGsYw7yySem8ZPhfsrw-123" target="akGsYw7yySem8ZPhfsrw-127">
          <mxGeometry relative="1" as="geometry">
            <mxPoint x="-416" y="2570" as="targetPoint" />
          </mxGeometry>
        </mxCell>
        <mxCell id="akGsYw7yySem8ZPhfsrw-123" value="isObject" style="rounded=0;whiteSpace=wrap;html=1;" vertex="1" parent="1">
          <mxGeometry x="-476" y="2510" width="120" height="30" as="geometry" />
        </mxCell>
        <mxCell id="akGsYw7yySem8ZPhfsrw-124" style="edgeStyle=orthogonalEdgeStyle;rounded=0;orthogonalLoop=1;jettySize=auto;html=1;exitX=0.5;exitY=1;exitDx=0;exitDy=0;" edge="1" parent="1" source="akGsYw7yySem8ZPhfsrw-125" target="akGsYw7yySem8ZPhfsrw-128">
          <mxGeometry relative="1" as="geometry">
            <mxPoint x="-33" y="2580" as="targetPoint" />
          </mxGeometry>
        </mxCell>
        <mxCell id="akGsYw7yySem8ZPhfsrw-125" value="isArray" style="rounded=0;whiteSpace=wrap;html=1;" vertex="1" parent="1">
          <mxGeometry x="-93.5" y="2510" width="120" height="30" as="geometry" />
        </mxCell>
        <mxCell id="akGsYw7yySem8ZPhfsrw-126" style="edgeStyle=orthogonalEdgeStyle;rounded=0;orthogonalLoop=1;jettySize=auto;html=1;exitX=0.5;exitY=1;exitDx=0;exitDy=0;" edge="1" parent="1" source="akGsYw7yySem8ZPhfsrw-127" target="akGsYw7yySem8ZPhfsrw-132">
          <mxGeometry relative="1" as="geometry">
            <mxPoint x="-416" y="2640" as="targetPoint" />
          </mxGeometry>
        </mxCell>
        <mxCell id="akGsYw7yySem8ZPhfsrw-127" value="reconcileSingleElement" style="rounded=0;whiteSpace=wrap;html=1;" vertex="1" parent="1">
          <mxGeometry x="-486" y="2570" width="140" height="30" as="geometry" />
        </mxCell>
        <mxCell id="akGsYw7yySem8ZPhfsrw-128" value="reconcileChildrenArray" style="rounded=0;whiteSpace=wrap;html=1;" vertex="1" parent="1">
          <mxGeometry x="-100" y="2570" width="133" height="30" as="geometry" />
        </mxCell>
        <mxCell id="akGsYw7yySem8ZPhfsrw-129" style="edgeStyle=orthogonalEdgeStyle;rounded=0;orthogonalLoop=1;jettySize=auto;html=1;exitX=1;exitY=0.5;exitDx=0;exitDy=0;entryX=0.5;entryY=0;entryDx=0;entryDy=0;" edge="1" parent="1" source="akGsYw7yySem8ZPhfsrw-132" target="akGsYw7yySem8ZPhfsrw-148">
          <mxGeometry relative="1" as="geometry">
            <mxPoint x="-306" y="2710" as="targetPoint" />
            <Array as="points">
              <mxPoint x="-336" y="2665" />
              <mxPoint x="-336" y="3000" />
              <mxPoint x="-536" y="3000" />
            </Array>
          </mxGeometry>
        </mxCell>
        <mxCell id="akGsYw7yySem8ZPhfsrw-130" value="false" style="edgeLabel;html=1;align=center;verticalAlign=middle;resizable=0;points=[];" vertex="1" connectable="0" parent="akGsYw7yySem8ZPhfsrw-129">
          <mxGeometry x="0.1368" y="-3" relative="1" as="geometry">
            <mxPoint as="offset" />
          </mxGeometry>
        </mxCell>
        <mxCell id="akGsYw7yySem8ZPhfsrw-131" style="edgeStyle=orthogonalEdgeStyle;rounded=0;orthogonalLoop=1;jettySize=auto;html=1;exitX=0;exitY=0.5;exitDx=0;exitDy=0;entryX=0.5;entryY=0;entryDx=0;entryDy=0;" edge="1" parent="1" source="akGsYw7yySem8ZPhfsrw-132" target="akGsYw7yySem8ZPhfsrw-138">
          <mxGeometry relative="1" as="geometry" />
        </mxCell>
        <mxCell id="akGsYw7yySem8ZPhfsrw-132" value="current !== null" style="rhombus;whiteSpace=wrap;html=1;" vertex="1" parent="1">
          <mxGeometry x="-476" y="2640" width="120" height="50" as="geometry" />
        </mxCell>
        <mxCell id="akGsYw7yySem8ZPhfsrw-133" style="edgeStyle=orthogonalEdgeStyle;rounded=0;orthogonalLoop=1;jettySize=auto;html=1;exitX=0.5;exitY=1;exitDx=0;exitDy=0;entryX=0.5;entryY=0;entryDx=0;entryDy=0;" edge="1" parent="1">
          <mxGeometry relative="1" as="geometry">
            <mxPoint x="-876" y="2950" as="sourcePoint" />
            <mxPoint x="-876" y="3000" as="targetPoint" />
          </mxGeometry>
        </mxCell>
        <mxCell id="akGsYw7yySem8ZPhfsrw-134" value="deleteRemainingChildren" style="rounded=0;whiteSpace=wrap;html=1;" vertex="1" parent="1">
          <mxGeometry x="-947" y="3000" width="140" height="30" as="geometry" />
        </mxCell>
        <mxCell id="akGsYw7yySem8ZPhfsrw-135" value="useFiber" style="rounded=0;whiteSpace=wrap;html=1;" vertex="1" parent="1">
          <mxGeometry x="-927" y="2923" width="100" height="30" as="geometry" />
        </mxCell>
        <mxCell id="akGsYw7yySem8ZPhfsrw-136" style="edgeStyle=orthogonalEdgeStyle;rounded=0;orthogonalLoop=1;jettySize=auto;html=1;exitX=0;exitY=0.5;exitDx=0;exitDy=0;entryX=0.5;entryY=0;entryDx=0;entryDy=0;" edge="1" parent="1" source="akGsYw7yySem8ZPhfsrw-138" target="akGsYw7yySem8ZPhfsrw-143">
          <mxGeometry relative="1" as="geometry" />
        </mxCell>
        <mxCell id="akGsYw7yySem8ZPhfsrw-137" style="edgeStyle=orthogonalEdgeStyle;rounded=0;orthogonalLoop=1;jettySize=auto;html=1;exitX=1;exitY=0.5;exitDx=0;exitDy=0;" edge="1" parent="1" source="akGsYw7yySem8ZPhfsrw-138" target="akGsYw7yySem8ZPhfsrw-145">
          <mxGeometry relative="1" as="geometry">
            <mxPoint x="-436" y="2820" as="targetPoint" />
          </mxGeometry>
        </mxCell>
        <mxCell id="akGsYw7yySem8ZPhfsrw-138" value="child.key === element.key" style="rhombus;whiteSpace=wrap;html=1;" vertex="1" parent="1">
          <mxGeometry x="-661" y="2710" width="190" height="50" as="geometry" />
        </mxCell>
        <mxCell id="akGsYw7yySem8ZPhfsrw-139" style="edgeStyle=orthogonalEdgeStyle;rounded=0;orthogonalLoop=1;jettySize=auto;html=1;exitX=0;exitY=0.5;exitDx=0;exitDy=0;entryX=0.5;entryY=0;entryDx=0;entryDy=0;" edge="1" parent="1" source="akGsYw7yySem8ZPhfsrw-143">
          <mxGeometry relative="1" as="geometry">
            <mxPoint x="-876" y="2920" as="targetPoint" />
          </mxGeometry>
        </mxCell>
        <mxCell id="akGsYw7yySem8ZPhfsrw-140" value="true" style="edgeLabel;html=1;align=center;verticalAlign=middle;resizable=0;points=[];fontColor=#1F5AFF;" vertex="1" connectable="0" parent="akGsYw7yySem8ZPhfsrw-139">
          <mxGeometry x="0.1922" y="-4" relative="1" as="geometry">
            <mxPoint as="offset" />
          </mxGeometry>
        </mxCell>
        <mxCell id="akGsYw7yySem8ZPhfsrw-141" style="edgeStyle=orthogonalEdgeStyle;rounded=0;orthogonalLoop=1;jettySize=auto;html=1;exitX=1;exitY=0.5;exitDx=0;exitDy=0;" edge="1" parent="1" source="akGsYw7yySem8ZPhfsrw-143" target="akGsYw7yySem8ZPhfsrw-147">
          <mxGeometry relative="1" as="geometry">
            <mxPoint x="-536" y="2920" as="targetPoint" />
          </mxGeometry>
        </mxCell>
        <mxCell id="akGsYw7yySem8ZPhfsrw-142" value="false" style="edgeLabel;html=1;align=center;verticalAlign=middle;resizable=0;points=[];fontColor=#1F5AFF;" vertex="1" connectable="0" parent="akGsYw7yySem8ZPhfsrw-141">
          <mxGeometry x="0.1686" y="-1" relative="1" as="geometry">
            <mxPoint as="offset" />
          </mxGeometry>
        </mxCell>
        <mxCell id="akGsYw7yySem8ZPhfsrw-143" value="&lt;span&gt;element.type === child.elementType&lt;/span&gt;" style="rhombus;whiteSpace=wrap;html=1;" vertex="1" parent="1">
          <mxGeometry x="-826" y="2820" width="250" height="80" as="geometry" />
        </mxCell>
        <mxCell id="akGsYw7yySem8ZPhfsrw-144" style="edgeStyle=orthogonalEdgeStyle;rounded=0;orthogonalLoop=1;jettySize=auto;html=1;exitX=0.5;exitY=1;exitDx=0;exitDy=0;entryX=0.5;entryY=0;entryDx=0;entryDy=0;" edge="1" parent="1" source="akGsYw7yySem8ZPhfsrw-145" target="akGsYw7yySem8ZPhfsrw-148">
          <mxGeometry relative="1" as="geometry">
            <Array as="points">
              <mxPoint x="-436" y="3000" />
              <mxPoint x="-536" y="3000" />
            </Array>
          </mxGeometry>
        </mxCell>
        <mxCell id="akGsYw7yySem8ZPhfsrw-145" value="deleteChild" style="rounded=0;whiteSpace=wrap;html=1;" vertex="1" parent="1">
          <mxGeometry x="-496" y="2820" width="120" height="30" as="geometry" />
        </mxCell>
        <mxCell id="akGsYw7yySem8ZPhfsrw-146" style="edgeStyle=orthogonalEdgeStyle;rounded=0;orthogonalLoop=1;jettySize=auto;html=1;exitX=0.5;exitY=1;exitDx=0;exitDy=0;" edge="1" parent="1" source="akGsYw7yySem8ZPhfsrw-147" target="akGsYw7yySem8ZPhfsrw-148">
          <mxGeometry relative="1" as="geometry">
            <mxPoint x="-536" y="3030" as="targetPoint" />
          </mxGeometry>
        </mxCell>
        <mxCell id="akGsYw7yySem8ZPhfsrw-147" value="&lt;div style=&quot;line-height: 18px&quot;&gt;&lt;span style=&quot;background-color: rgb(255 , 255 , 255)&quot;&gt;deleteRemainingChildren&lt;/span&gt;&lt;br&gt;&lt;/div&gt;" style="rounded=0;whiteSpace=wrap;html=1;" vertex="1" parent="1">
          <mxGeometry x="-616" y="2920" width="160" height="30" as="geometry" />
        </mxCell>
        <mxCell id="akGsYw7yySem8ZPhfsrw-148" value="createFiberFromElement" style="rounded=0;whiteSpace=wrap;html=1;" vertex="1" parent="1">
          <mxGeometry x="-606" y="3030" width="140" height="30" as="geometry" />
        </mxCell>
        <mxCell id="akGsYw7yySem8ZPhfsrw-149" style="edgeStyle=orthogonalEdgeStyle;rounded=0;orthogonalLoop=1;jettySize=auto;html=1;exitX=0;exitY=0.5;exitDx=0;exitDy=0;" edge="1" parent="1" source="akGsYw7yySem8ZPhfsrw-151" target="akGsYw7yySem8ZPhfsrw-153">
          <mxGeometry relative="1" as="geometry">
            <mxPoint x="474" y="1570" as="targetPoint" />
          </mxGeometry>
        </mxCell>
        <mxCell id="akGsYw7yySem8ZPhfsrw-150" style="edgeStyle=orthogonalEdgeStyle;rounded=0;orthogonalLoop=1;jettySize=auto;html=1;exitX=1;exitY=0.5;exitDx=0;exitDy=0;entryX=0.5;entryY=0;entryDx=0;entryDy=0;" edge="1" parent="1" source="akGsYw7yySem8ZPhfsrw-151" target="akGsYw7yySem8ZPhfsrw-168">
          <mxGeometry relative="1" as="geometry" />
        </mxCell>
        <mxCell id="akGsYw7yySem8ZPhfsrw-151" value="workInProgress.tag" style="rhombus;whiteSpace=wrap;html=1;" vertex="1" parent="1">
          <mxGeometry x="569" y="1480" width="150" height="60" as="geometry" />
        </mxCell>
        <mxCell id="akGsYw7yySem8ZPhfsrw-152" value="" style="edgeStyle=orthogonalEdgeStyle;rounded=0;orthogonalLoop=1;jettySize=auto;html=1;" edge="1" parent="1" source="akGsYw7yySem8ZPhfsrw-153" target="akGsYw7yySem8ZPhfsrw-160">
          <mxGeometry relative="1" as="geometry" />
        </mxCell>
        <mxCell id="akGsYw7yySem8ZPhfsrw-153" value="HostComponent" style="rounded=0;whiteSpace=wrap;html=1;" vertex="1" parent="1">
          <mxGeometry x="434" y="1560" width="100" height="30" as="geometry" />
        </mxCell>
        <mxCell id="akGsYw7yySem8ZPhfsrw-154" value="" style="edgeStyle=orthogonalEdgeStyle;rounded=0;orthogonalLoop=1;jettySize=auto;html=1;" edge="1" parent="1" source="akGsYw7yySem8ZPhfsrw-155" target="akGsYw7yySem8ZPhfsrw-156">
          <mxGeometry relative="1" as="geometry" />
        </mxCell>
        <mxCell id="akGsYw7yySem8ZPhfsrw-155" value="updateHostComponent$1" style="rounded=0;whiteSpace=wrap;html=1;" vertex="1" parent="1">
          <mxGeometry x="304" y="1700" width="150" height="30" as="geometry" />
        </mxCell>
        <mxCell id="akGsYw7yySem8ZPhfsrw-156" value="prepareUpdate" style="whiteSpace=wrap;html=1;rounded=0;" vertex="1" parent="1">
          <mxGeometry x="304" y="1770" width="150" height="30" as="geometry" />
        </mxCell>
        <mxCell id="akGsYw7yySem8ZPhfsrw-157" style="edgeStyle=orthogonalEdgeStyle;rounded=0;orthogonalLoop=1;jettySize=auto;html=1;exitX=0;exitY=0.5;exitDx=0;exitDy=0;" edge="1" parent="1" source="akGsYw7yySem8ZPhfsrw-160" target="akGsYw7yySem8ZPhfsrw-155">
          <mxGeometry relative="1" as="geometry" />
        </mxCell>
        <mxCell id="akGsYw7yySem8ZPhfsrw-158" value="true" style="edgeLabel;html=1;align=center;verticalAlign=middle;resizable=0;points=[];" vertex="1" connectable="0" parent="akGsYw7yySem8ZPhfsrw-157">
          <mxGeometry x="-0.0667" y="-1" relative="1" as="geometry">
            <mxPoint y="1" as="offset" />
          </mxGeometry>
        </mxCell>
        <mxCell id="akGsYw7yySem8ZPhfsrw-159" style="edgeStyle=orthogonalEdgeStyle;rounded=0;orthogonalLoop=1;jettySize=auto;html=1;exitX=1;exitY=0.5;exitDx=0;exitDy=0;" edge="1" parent="1" source="akGsYw7yySem8ZPhfsrw-160" target="akGsYw7yySem8ZPhfsrw-163">
          <mxGeometry relative="1" as="geometry">
            <mxPoint x="604" y="1700" as="targetPoint" />
          </mxGeometry>
        </mxCell>
        <mxCell id="akGsYw7yySem8ZPhfsrw-160" value="current !== null &amp;amp;&amp;amp; wip.stateNode != null" style="rhombus;whiteSpace=wrap;html=1;rounded=0;" vertex="1" parent="1">
          <mxGeometry x="399" y="1625" width="170" height="55" as="geometry" />
        </mxCell>
        <mxCell id="akGsYw7yySem8ZPhfsrw-161" style="edgeStyle=orthogonalEdgeStyle;rounded=0;orthogonalLoop=1;jettySize=auto;html=1;exitX=0.5;exitY=1;exitDx=0;exitDy=0;" edge="1" parent="1">
          <mxGeometry relative="1" as="geometry">
            <mxPoint x="140" y="3920" as="targetPoint" />
            <mxPoint x="140" y="3920" as="sourcePoint" />
          </mxGeometry>
        </mxCell>
        <mxCell id="akGsYw7yySem8ZPhfsrw-347" value="" style="edgeStyle=orthogonalEdgeStyle;rounded=0;orthogonalLoop=1;jettySize=auto;html=1;" edge="1" parent="1" source="akGsYw7yySem8ZPhfsrw-163" target="akGsYw7yySem8ZPhfsrw-166">
          <mxGeometry relative="1" as="geometry" />
        </mxCell>
        <mxCell id="akGsYw7yySem8ZPhfsrw-163" value="createInstance" style="rounded=0;whiteSpace=wrap;html=1;" vertex="1" parent="1">
          <mxGeometry x="554" y="1700" width="100" height="30" as="geometry" />
        </mxCell>
        <mxCell id="akGsYw7yySem8ZPhfsrw-165" value="appendAllChildren" style="rounded=0;whiteSpace=wrap;html=1;" vertex="1" parent="1">
          <mxGeometry x="544" y="1770" width="120" height="30" as="geometry" />
        </mxCell>
        <mxCell id="akGsYw7yySem8ZPhfsrw-166" value="finalizeInitialChildren" style="rounded=0;whiteSpace=wrap;html=1;" vertex="1" parent="1">
          <mxGeometry x="544" y="1840" width="120" height="30" as="geometry" />
        </mxCell>
        <mxCell id="akGsYw7yySem8ZPhfsrw-167" value="" style="edgeStyle=orthogonalEdgeStyle;rounded=0;orthogonalLoop=1;jettySize=auto;html=1;" edge="1" parent="1" source="akGsYw7yySem8ZPhfsrw-168" target="akGsYw7yySem8ZPhfsrw-169">
          <mxGeometry relative="1" as="geometry" />
        </mxCell>
        <mxCell id="akGsYw7yySem8ZPhfsrw-168" value="ClassComponent || FunctionComponent" style="rounded=0;whiteSpace=wrap;html=1;" vertex="1" parent="1">
          <mxGeometry x="764" y="1550" width="120" height="40" as="geometry" />
        </mxCell>
        <mxCell id="akGsYw7yySem8ZPhfsrw-169" value="return null" style="whiteSpace=wrap;html=1;rounded=0;" vertex="1" parent="1">
          <mxGeometry x="764" y="1622.5" width="120" height="27.5" as="geometry" />
        </mxCell>
        <mxCell id="akGsYw7yySem8ZPhfsrw-170" style="edgeStyle=orthogonalEdgeStyle;rounded=0;orthogonalLoop=1;jettySize=auto;html=1;exitX=0.5;exitY=1;exitDx=0;exitDy=0;" edge="1" parent="1" source="akGsYw7yySem8ZPhfsrw-172" target="akGsYw7yySem8ZPhfsrw-179">
          <mxGeometry relative="1" as="geometry">
            <mxPoint x="69.66666666666697" y="3390" as="targetPoint" />
          </mxGeometry>
        </mxCell>
        <mxCell id="akGsYw7yySem8ZPhfsrw-172" value="commitRoot" style="rounded=0;whiteSpace=wrap;html=1;" vertex="1" parent="1">
          <mxGeometry x="590" y="3320" width="80" height="30" as="geometry" />
        </mxCell>
        <mxCell id="akGsYw7yySem8ZPhfsrw-173" style="edgeStyle=orthogonalEdgeStyle;rounded=0;orthogonalLoop=1;jettySize=auto;html=1;exitX=0;exitY=0.5;exitDx=0;exitDy=0;" edge="1" parent="1" source="akGsYw7yySem8ZPhfsrw-179" target="akGsYw7yySem8ZPhfsrw-181">
          <mxGeometry relative="1" as="geometry">
            <mxPoint x="410" y="3470" as="targetPoint" />
          </mxGeometry>
        </mxCell>
        <mxCell id="akGsYw7yySem8ZPhfsrw-174" style="edgeStyle=orthogonalEdgeStyle;rounded=0;orthogonalLoop=1;jettySize=auto;html=1;exitX=1;exitY=0.5;exitDx=0;exitDy=0;entryX=0.5;entryY=0;entryDx=0;entryDy=0;" edge="1" parent="1" source="akGsYw7yySem8ZPhfsrw-179" target="akGsYw7yySem8ZPhfsrw-183">
          <mxGeometry relative="1" as="geometry" />
        </mxCell>
        <mxCell id="akGsYw7yySem8ZPhfsrw-175" style="edgeStyle=orthogonalEdgeStyle;rounded=0;orthogonalLoop=1;jettySize=auto;html=1;exitX=0.5;exitY=1;exitDx=0;exitDy=0;" edge="1" parent="1" source="akGsYw7yySem8ZPhfsrw-179" target="akGsYw7yySem8ZPhfsrw-185">
          <mxGeometry relative="1" as="geometry">
            <Array as="points">
              <mxPoint x="630" y="3440" />
              <mxPoint x="740" y="3440" />
            </Array>
          </mxGeometry>
        </mxCell>
        <mxCell id="akGsYw7yySem8ZPhfsrw-176" style="edgeStyle=orthogonalEdgeStyle;rounded=0;orthogonalLoop=1;jettySize=auto;html=1;exitX=0;exitY=0.5;exitDx=0;exitDy=0;fontColor=#000000;" edge="1" parent="1" source="akGsYw7yySem8ZPhfsrw-179" target="akGsYw7yySem8ZPhfsrw-279">
          <mxGeometry relative="1" as="geometry">
            <mxPoint x="160.00000000000045" y="3450" as="targetPoint" />
          </mxGeometry>
        </mxCell>
        <mxCell id="akGsYw7yySem8ZPhfsrw-177" value="执行所有effect任务" style="edgeLabel;html=1;align=center;verticalAlign=middle;resizable=0;points=[];fontColor=#000000;" vertex="1" connectable="0" parent="akGsYw7yySem8ZPhfsrw-176">
          <mxGeometry x="0.7488" y="1" relative="1" as="geometry">
            <mxPoint x="-1" as="offset" />
          </mxGeometry>
        </mxCell>
        <mxCell id="akGsYw7yySem8ZPhfsrw-178" style="edgeStyle=orthogonalEdgeStyle;rounded=0;orthogonalLoop=1;jettySize=auto;html=1;exitX=1;exitY=0.5;exitDx=0;exitDy=0;fontColor=#1F5AFF;" edge="1" parent="1" source="akGsYw7yySem8ZPhfsrw-179" target="akGsYw7yySem8ZPhfsrw-282">
          <mxGeometry relative="1" as="geometry">
            <mxPoint x="900" y="3450" as="targetPoint" />
          </mxGeometry>
        </mxCell>
        <mxCell id="akGsYw7yySem8ZPhfsrw-179" value="commitRootImpl" style="rounded=0;whiteSpace=wrap;html=1;" vertex="1" parent="1">
          <mxGeometry x="570" y="3390" width="120" height="30" as="geometry" />
        </mxCell>
        <mxCell id="akGsYw7yySem8ZPhfsrw-180" style="edgeStyle=orthogonalEdgeStyle;rounded=0;orthogonalLoop=1;jettySize=auto;html=1;exitX=0.5;exitY=1;exitDx=0;exitDy=0;" edge="1" parent="1" source="akGsYw7yySem8ZPhfsrw-181" target="akGsYw7yySem8ZPhfsrw-187">
          <mxGeometry relative="1" as="geometry">
            <mxPoint x="389.66666666666697" y="3500" as="targetPoint" />
          </mxGeometry>
        </mxCell>
        <mxCell id="akGsYw7yySem8ZPhfsrw-181" value="commitBeforeMutationEffects" style="rounded=0;whiteSpace=wrap;html=1;" vertex="1" parent="1">
          <mxGeometry x="300" y="3440" width="180" height="30" as="geometry" />
        </mxCell>
        <mxCell id="akGsYw7yySem8ZPhfsrw-182" style="edgeStyle=orthogonalEdgeStyle;rounded=0;orthogonalLoop=1;jettySize=auto;html=1;" edge="1" parent="1" source="akGsYw7yySem8ZPhfsrw-183" target="akGsYw7yySem8ZPhfsrw-228">
          <mxGeometry relative="1" as="geometry">
            <mxPoint x="990" y="3500" as="targetPoint" />
          </mxGeometry>
        </mxCell>
        <mxCell id="akGsYw7yySem8ZPhfsrw-183" value="commitLayoutEffects" style="rounded=0;whiteSpace=wrap;html=1;" vertex="1" parent="1">
          <mxGeometry x="984.6700000000001" y="3450" width="180" height="30" as="geometry" />
        </mxCell>
        <mxCell id="akGsYw7yySem8ZPhfsrw-184" style="edgeStyle=orthogonalEdgeStyle;rounded=0;orthogonalLoop=1;jettySize=auto;html=1;exitX=0.5;exitY=1;exitDx=0;exitDy=0;" edge="1" parent="1" source="akGsYw7yySem8ZPhfsrw-185" target="akGsYw7yySem8ZPhfsrw-191">
          <mxGeometry relative="1" as="geometry">
            <mxPoint x="629.666666666667" y="3500" as="targetPoint" />
          </mxGeometry>
        </mxCell>
        <mxCell id="akGsYw7yySem8ZPhfsrw-185" value="commitMutationEffects" style="rounded=0;whiteSpace=wrap;html=1;" vertex="1" parent="1">
          <mxGeometry x="650" y="3450" width="180" height="30" as="geometry" />
        </mxCell>
        <mxCell id="akGsYw7yySem8ZPhfsrw-186" style="edgeStyle=orthogonalEdgeStyle;rounded=0;orthogonalLoop=1;jettySize=auto;html=1;exitX=0.5;exitY=1;exitDx=0;exitDy=0;" edge="1" parent="1" source="akGsYw7yySem8ZPhfsrw-187" target="akGsYw7yySem8ZPhfsrw-188">
          <mxGeometry relative="1" as="geometry">
            <mxPoint x="389.66666666666697" y="3560" as="targetPoint" />
          </mxGeometry>
        </mxCell>
        <mxCell id="akGsYw7yySem8ZPhfsrw-187" value="commitBeforeMutationEffectsOnFiber" style="rounded=0;whiteSpace=wrap;html=1;" vertex="1" parent="1">
          <mxGeometry x="280" y="3500" width="221" height="30" as="geometry" />
        </mxCell>
        <mxCell id="akGsYw7yySem8ZPhfsrw-188" value="instance.getSnapshotBeforeUpdate" style="rounded=0;whiteSpace=wrap;html=1;" vertex="1" parent="1">
          <mxGeometry x="285" y="3559" width="210" height="31" as="geometry" />
        </mxCell>
        <mxCell id="akGsYw7yySem8ZPhfsrw-189" style="edgeStyle=orthogonalEdgeStyle;rounded=0;orthogonalLoop=1;jettySize=auto;html=1;exitX=0.5;exitY=1;exitDx=0;exitDy=0;" edge="1" parent="1" source="akGsYw7yySem8ZPhfsrw-191" target="akGsYw7yySem8ZPhfsrw-194">
          <mxGeometry relative="1" as="geometry">
            <mxPoint x="629.666666666667" y="3560" as="targetPoint" />
          </mxGeometry>
        </mxCell>
        <mxCell id="akGsYw7yySem8ZPhfsrw-190" style="edgeStyle=orthogonalEdgeStyle;rounded=0;orthogonalLoop=1;jettySize=auto;html=1;exitX=0.5;exitY=1;exitDx=0;exitDy=0;" edge="1" parent="1" source="akGsYw7yySem8ZPhfsrw-191" target="akGsYw7yySem8ZPhfsrw-195">
          <mxGeometry relative="1" as="geometry" />
        </mxCell>
        <mxCell id="akGsYw7yySem8ZPhfsrw-191" value="commitDeletion" style="rounded=0;whiteSpace=wrap;html=1;" vertex="1" parent="1">
          <mxGeometry x="680" y="3500" width="120" height="30" as="geometry" />
        </mxCell>
        <mxCell id="akGsYw7yySem8ZPhfsrw-192" style="edgeStyle=orthogonalEdgeStyle;rounded=0;orthogonalLoop=1;jettySize=auto;html=1;exitX=0.5;exitY=1;exitDx=0;exitDy=0;" edge="1" parent="1" source="akGsYw7yySem8ZPhfsrw-194" target="akGsYw7yySem8ZPhfsrw-197">
          <mxGeometry relative="1" as="geometry">
            <mxPoint x="510" y="3650" as="targetPoint" />
          </mxGeometry>
        </mxCell>
        <mxCell id="akGsYw7yySem8ZPhfsrw-193" style="edgeStyle=orthogonalEdgeStyle;rounded=0;orthogonalLoop=1;jettySize=auto;html=1;exitX=0.5;exitY=1;exitDx=0;exitDy=0;entryX=0.5;entryY=0;entryDx=0;entryDy=0;" edge="1" parent="1" source="akGsYw7yySem8ZPhfsrw-194" target="akGsYw7yySem8ZPhfsrw-199">
          <mxGeometry relative="1" as="geometry" />
        </mxCell>
        <mxCell id="akGsYw7yySem8ZPhfsrw-194" value="commitMutationEffectsOnFiber" style="rounded=0;whiteSpace=wrap;html=1;" vertex="1" parent="1">
          <mxGeometry x="540" y="3570" width="180" height="31" as="geometry" />
        </mxCell>
        <mxCell id="akGsYw7yySem8ZPhfsrw-195" value="commitDetachRef" style="rounded=0;whiteSpace=wrap;html=1;" vertex="1" parent="1">
          <mxGeometry x="775" y="3571" width="120" height="30" as="geometry" />
        </mxCell>
        <mxCell id="akGsYw7yySem8ZPhfsrw-369" style="edgeStyle=orthogonalEdgeStyle;rounded=0;orthogonalLoop=1;jettySize=auto;html=1;exitX=0;exitY=0.5;exitDx=0;exitDy=0;entryX=0.5;entryY=0;entryDx=0;entryDy=0;" edge="1" parent="1" source="akGsYw7yySem8ZPhfsrw-197" target="akGsYw7yySem8ZPhfsrw-219">
          <mxGeometry relative="1" as="geometry" />
        </mxCell>
        <mxCell id="akGsYw7yySem8ZPhfsrw-197" value="Update" style="rounded=0;whiteSpace=wrap;html=1;" vertex="1" parent="1">
          <mxGeometry x="495" y="3650" width="60" height="30" as="geometry" />
        </mxCell>
        <mxCell id="akGsYw7yySem8ZPhfsrw-198" style="edgeStyle=orthogonalEdgeStyle;rounded=0;orthogonalLoop=1;jettySize=auto;html=1;exitX=0.5;exitY=1;exitDx=0;exitDy=0;" edge="1" parent="1" source="akGsYw7yySem8ZPhfsrw-199" target="akGsYw7yySem8ZPhfsrw-203">
          <mxGeometry relative="1" as="geometry">
            <mxPoint x="624.666666666667" y="3710" as="targetPoint" />
          </mxGeometry>
        </mxCell>
        <mxCell id="akGsYw7yySem8ZPhfsrw-199" value="Placement" style="rounded=0;whiteSpace=wrap;html=1;" vertex="1" parent="1">
          <mxGeometry x="680" y="3650" width="70" height="30" as="geometry" />
        </mxCell>
        <mxCell id="akGsYw7yySem8ZPhfsrw-200" style="edgeStyle=orthogonalEdgeStyle;rounded=0;orthogonalLoop=1;jettySize=auto;html=1;exitX=0.5;exitY=1;exitDx=0;exitDy=0;" edge="1" parent="1" source="akGsYw7yySem8ZPhfsrw-203" target="akGsYw7yySem8ZPhfsrw-208">
          <mxGeometry relative="1" as="geometry">
            <mxPoint x="714.666666666667" y="3780" as="targetPoint" />
          </mxGeometry>
        </mxCell>
        <mxCell id="akGsYw7yySem8ZPhfsrw-201" style="edgeStyle=orthogonalEdgeStyle;rounded=0;orthogonalLoop=1;jettySize=auto;html=1;exitX=0.5;exitY=1;exitDx=0;exitDy=0;entryX=0.5;entryY=0;entryDx=0;entryDy=0;" edge="1" parent="1" source="akGsYw7yySem8ZPhfsrw-203" target="akGsYw7yySem8ZPhfsrw-211">
          <mxGeometry relative="1" as="geometry" />
        </mxCell>
        <mxCell id="akGsYw7yySem8ZPhfsrw-202" value="" style="edgeStyle=orthogonalEdgeStyle;rounded=0;orthogonalLoop=1;jettySize=auto;html=1;fontColor=#1F5AFF;" edge="1" parent="1" source="akGsYw7yySem8ZPhfsrw-203" target="akGsYw7yySem8ZPhfsrw-199">
          <mxGeometry relative="1" as="geometry" />
        </mxCell>
        <mxCell id="akGsYw7yySem8ZPhfsrw-203" value="commitPlacement" style="rounded=0;whiteSpace=wrap;html=1;" vertex="1" parent="1">
          <mxGeometry x="655" y="3710" width="120" height="30" as="geometry" />
        </mxCell>
        <mxCell id="akGsYw7yySem8ZPhfsrw-206" style="edgeStyle=orthogonalEdgeStyle;rounded=0;orthogonalLoop=1;jettySize=auto;html=1;exitX=0.25;exitY=1;exitDx=0;exitDy=0;" edge="1" parent="1" source="akGsYw7yySem8ZPhfsrw-208" target="akGsYw7yySem8ZPhfsrw-212">
          <mxGeometry relative="1" as="geometry">
            <mxPoint x="594" y="3880" as="targetPoint" />
          </mxGeometry>
        </mxCell>
        <mxCell id="akGsYw7yySem8ZPhfsrw-207" style="edgeStyle=orthogonalEdgeStyle;rounded=0;orthogonalLoop=1;jettySize=auto;html=1;exitX=0.75;exitY=1;exitDx=0;exitDy=0;" edge="1" parent="1" source="akGsYw7yySem8ZPhfsrw-208" target="akGsYw7yySem8ZPhfsrw-213">
          <mxGeometry relative="1" as="geometry">
            <mxPoint x="730" y="3880" as="targetPoint" />
          </mxGeometry>
        </mxCell>
        <mxCell id="akGsYw7yySem8ZPhfsrw-208" value="insertOrAppendPlacementNodeIntoContainer" style="rounded=0;whiteSpace=wrap;html=1;" vertex="1" parent="1">
          <mxGeometry x="485.15999999999985" y="3811.25" width="254.67" height="30" as="geometry" />
        </mxCell>
        <mxCell id="akGsYw7yySem8ZPhfsrw-209" style="edgeStyle=orthogonalEdgeStyle;rounded=0;orthogonalLoop=1;jettySize=auto;html=1;exitX=0.25;exitY=1;exitDx=0;exitDy=0;" edge="1" parent="1" source="akGsYw7yySem8ZPhfsrw-211" target="akGsYw7yySem8ZPhfsrw-214">
          <mxGeometry relative="1" as="geometry">
            <mxPoint x="846.3333333333335" y="3880" as="targetPoint" />
          </mxGeometry>
        </mxCell>
        <mxCell id="akGsYw7yySem8ZPhfsrw-210" style="edgeStyle=orthogonalEdgeStyle;rounded=0;orthogonalLoop=1;jettySize=auto;html=1;exitX=0.75;exitY=1;exitDx=0;exitDy=0;" edge="1" parent="1" source="akGsYw7yySem8ZPhfsrw-211" target="akGsYw7yySem8ZPhfsrw-215">
          <mxGeometry relative="1" as="geometry">
            <mxPoint x="938.8333333333335" y="3880" as="targetPoint" />
          </mxGeometry>
        </mxCell>
        <mxCell id="akGsYw7yySem8ZPhfsrw-211" value="insertOrAppendPlacementNode" style="rounded=0;whiteSpace=wrap;html=1;" vertex="1" parent="1">
          <mxGeometry x="800" y="3811.25" width="184.67" height="30" as="geometry" />
        </mxCell>
        <mxCell id="akGsYw7yySem8ZPhfsrw-212" value="insertInContainerBefore" style="rounded=0;whiteSpace=wrap;html=1;" vertex="1" parent="1">
          <mxGeometry x="473" y="3880" width="134" height="30" as="geometry" />
        </mxCell>
        <mxCell id="akGsYw7yySem8ZPhfsrw-213" value="appendChildToContainer" style="rounded=0;whiteSpace=wrap;html=1;" vertex="1" parent="1">
          <mxGeometry x="620" y="3880" width="141" height="30" as="geometry" />
        </mxCell>
        <mxCell id="akGsYw7yySem8ZPhfsrw-214" value="insertBefore" style="rounded=0;whiteSpace=wrap;html=1;" vertex="1" parent="1">
          <mxGeometry x="790.5" y="3880" width="90" height="30" as="geometry" />
        </mxCell>
        <mxCell id="akGsYw7yySem8ZPhfsrw-215" value="appendChild" style="rounded=0;whiteSpace=wrap;html=1;" vertex="1" parent="1">
          <mxGeometry x="910" y="3880" width="86.33" height="30" as="geometry" />
        </mxCell>
        <mxCell id="akGsYw7yySem8ZPhfsrw-216" value="commitHookEffectListUnmount" style="rounded=0;whiteSpace=wrap;html=1;" vertex="1" parent="1">
          <mxGeometry x="225" y="4060" width="170" height="30" as="geometry" />
        </mxCell>
        <mxCell id="akGsYw7yySem8ZPhfsrw-217" style="edgeStyle=orthogonalEdgeStyle;rounded=0;orthogonalLoop=1;jettySize=auto;html=1;exitX=0;exitY=0.5;exitDx=0;exitDy=0;" edge="1" parent="1" source="akGsYw7yySem8ZPhfsrw-219" target="akGsYw7yySem8ZPhfsrw-221">
          <mxGeometry relative="1" as="geometry">
            <mxPoint x="360" y="4000" as="targetPoint" />
          </mxGeometry>
        </mxCell>
        <mxCell id="akGsYw7yySem8ZPhfsrw-218" style="edgeStyle=orthogonalEdgeStyle;rounded=0;orthogonalLoop=1;jettySize=auto;html=1;exitX=0.5;exitY=1;exitDx=0;exitDy=0;" edge="1" parent="1" source="akGsYw7yySem8ZPhfsrw-219" target="akGsYw7yySem8ZPhfsrw-223">
          <mxGeometry relative="1" as="geometry">
            <mxPoint x="459.66666666666697" y="4020" as="targetPoint" />
          </mxGeometry>
        </mxCell>
        <mxCell id="akGsYw7yySem8ZPhfsrw-219" value="finishedWork.tag" style="rhombus;whiteSpace=wrap;html=1;" vertex="1" parent="1">
          <mxGeometry x="390" y="3930" width="140" height="50" as="geometry" />
        </mxCell>
        <mxCell id="akGsYw7yySem8ZPhfsrw-220" style="edgeStyle=orthogonalEdgeStyle;rounded=0;orthogonalLoop=1;jettySize=auto;html=1;exitX=0.5;exitY=1;exitDx=0;exitDy=0;entryX=0.5;entryY=0;entryDx=0;entryDy=0;" edge="1" parent="1" source="akGsYw7yySem8ZPhfsrw-221" target="akGsYw7yySem8ZPhfsrw-216">
          <mxGeometry relative="1" as="geometry" />
        </mxCell>
        <mxCell id="akGsYw7yySem8ZPhfsrw-221" value="FunctionComponent" style="rounded=0;whiteSpace=wrap;html=1;" vertex="1" parent="1">
          <mxGeometry x="250" y="4000" width="120" height="30" as="geometry" />
        </mxCell>
        <mxCell id="akGsYw7yySem8ZPhfsrw-222" style="edgeStyle=orthogonalEdgeStyle;rounded=0;orthogonalLoop=1;jettySize=auto;html=1;exitX=0.5;exitY=1;exitDx=0;exitDy=0;" edge="1" parent="1" source="akGsYw7yySem8ZPhfsrw-223" target="akGsYw7yySem8ZPhfsrw-225">
          <mxGeometry relative="1" as="geometry">
            <mxPoint x="459.66666666666697" y="4060" as="targetPoint" />
          </mxGeometry>
        </mxCell>
        <mxCell id="akGsYw7yySem8ZPhfsrw-223" value="HostComponent" style="rounded=0;whiteSpace=wrap;html=1;" vertex="1" parent="1">
          <mxGeometry x="400" y="4000" width="120" height="30" as="geometry" />
        </mxCell>
        <mxCell id="akGsYw7yySem8ZPhfsrw-224" style="edgeStyle=orthogonalEdgeStyle;rounded=0;orthogonalLoop=1;jettySize=auto;html=1;exitX=0.5;exitY=1;exitDx=0;exitDy=0;fontColor=#1F5AFF;" edge="1" parent="1" source="akGsYw7yySem8ZPhfsrw-225" target="akGsYw7yySem8ZPhfsrw-277">
          <mxGeometry relative="1" as="geometry">
            <mxPoint x="460.7142857142858" y="4130" as="targetPoint" />
          </mxGeometry>
        </mxCell>
        <mxCell id="akGsYw7yySem8ZPhfsrw-225" value="commitUpdate" style="rounded=0;whiteSpace=wrap;html=1;" vertex="1" parent="1">
          <mxGeometry x="400" y="4058.33" width="120" height="31.67" as="geometry" />
        </mxCell>
        <mxCell id="akGsYw7yySem8ZPhfsrw-226" style="edgeStyle=orthogonalEdgeStyle;rounded=0;orthogonalLoop=1;jettySize=auto;html=1;exitX=0.25;exitY=1;exitDx=0;exitDy=0;" edge="1" parent="1" source="akGsYw7yySem8ZPhfsrw-228" target="akGsYw7yySem8ZPhfsrw-230">
          <mxGeometry relative="1" as="geometry">
            <mxPoint x="980" y="3570" as="targetPoint" />
          </mxGeometry>
        </mxCell>
        <mxCell id="akGsYw7yySem8ZPhfsrw-227" style="edgeStyle=orthogonalEdgeStyle;rounded=0;orthogonalLoop=1;jettySize=auto;html=1;exitX=0.5;exitY=1;exitDx=0;exitDy=0;" edge="1" parent="1" source="akGsYw7yySem8ZPhfsrw-228" target="akGsYw7yySem8ZPhfsrw-233">
          <mxGeometry relative="1" as="geometry">
            <mxPoint x="1074.6666666666674" y="3570" as="targetPoint" />
          </mxGeometry>
        </mxCell>
        <mxCell id="akGsYw7yySem8ZPhfsrw-228" value="commitLayoutEffectOnFiber" style="rounded=0;whiteSpace=wrap;html=1;" vertex="1" parent="1">
          <mxGeometry x="979.6700000000001" y="3500" width="190" height="30" as="geometry" />
        </mxCell>
        <mxCell id="akGsYw7yySem8ZPhfsrw-229" style="edgeStyle=orthogonalEdgeStyle;rounded=0;orthogonalLoop=1;jettySize=auto;html=1;exitX=0.5;exitY=1;exitDx=0;exitDy=0;" edge="1" parent="1" source="akGsYw7yySem8ZPhfsrw-230" target="akGsYw7yySem8ZPhfsrw-231">
          <mxGeometry relative="1" as="geometry">
            <mxPoint x="979.666666666667" y="3630" as="targetPoint" />
          </mxGeometry>
        </mxCell>
        <mxCell id="akGsYw7yySem8ZPhfsrw-230" value="FunctionComponent" style="rounded=0;whiteSpace=wrap;html=1;" vertex="1" parent="1">
          <mxGeometry x="959.6700000000001" y="3570" width="120" height="30" as="geometry" />
        </mxCell>
        <mxCell id="akGsYw7yySem8ZPhfsrw-231" value="commitHookEffectListMount" style="rounded=0;whiteSpace=wrap;html=1;" vertex="1" parent="1">
          <mxGeometry x="939.8400000000001" y="3650" width="159.67" height="30" as="geometry" />
        </mxCell>
        <mxCell id="akGsYw7yySem8ZPhfsrw-232" style="edgeStyle=orthogonalEdgeStyle;rounded=0;orthogonalLoop=1;jettySize=auto;html=1;exitX=0.5;exitY=1;exitDx=0;exitDy=0;entryX=0.5;entryY=0;entryDx=0;entryDy=0;" edge="1" parent="1" source="akGsYw7yySem8ZPhfsrw-233" target="akGsYw7yySem8ZPhfsrw-236">
          <mxGeometry relative="1" as="geometry" />
        </mxCell>
        <mxCell id="akGsYw7yySem8ZPhfsrw-233" value="ClassComponent" style="rounded=0;whiteSpace=wrap;html=1;" vertex="1" parent="1">
          <mxGeometry x="1120.0000000000005" y="3571" width="120" height="30" as="geometry" />
        </mxCell>
        <mxCell id="akGsYw7yySem8ZPhfsrw-234" style="edgeStyle=orthogonalEdgeStyle;rounded=0;orthogonalLoop=1;jettySize=auto;html=1;exitX=0;exitY=0.5;exitDx=0;exitDy=0;" edge="1" parent="1" source="akGsYw7yySem8ZPhfsrw-236" target="akGsYw7yySem8ZPhfsrw-238">
          <mxGeometry relative="1" as="geometry">
            <mxPoint x="1170.0000000000005" y="3740" as="targetPoint" />
          </mxGeometry>
        </mxCell>
        <mxCell id="akGsYw7yySem8ZPhfsrw-235" style="edgeStyle=orthogonalEdgeStyle;rounded=0;orthogonalLoop=1;jettySize=auto;html=1;exitX=1;exitY=0.5;exitDx=0;exitDy=0;" edge="1" parent="1" source="akGsYw7yySem8ZPhfsrw-236" target="akGsYw7yySem8ZPhfsrw-240">
          <mxGeometry relative="1" as="geometry">
            <mxPoint x="1320.0000000000005" y="3740" as="targetPoint" />
          </mxGeometry>
        </mxCell>
        <mxCell id="akGsYw7yySem8ZPhfsrw-236" value="current === null" style="rhombus;whiteSpace=wrap;html=1;" vertex="1" parent="1">
          <mxGeometry x="1190.0000000000005" y="3630" width="110" height="50" as="geometry" />
        </mxCell>
        <mxCell id="akGsYw7yySem8ZPhfsrw-237" style="edgeStyle=orthogonalEdgeStyle;rounded=0;orthogonalLoop=1;jettySize=auto;html=1;exitX=0.5;exitY=1;exitDx=0;exitDy=0;" edge="1" parent="1" source="akGsYw7yySem8ZPhfsrw-238">
          <mxGeometry relative="1" as="geometry">
            <mxPoint x="1240.0000000000005" y="3800" as="targetPoint" />
          </mxGeometry>
        </mxCell>
        <mxCell id="akGsYw7yySem8ZPhfsrw-238" value="componentDidMount" style="rounded=0;whiteSpace=wrap;html=1;" vertex="1" parent="1">
          <mxGeometry x="1110.0000000000005" y="3710" width="120" height="40" as="geometry" />
        </mxCell>
        <mxCell id="akGsYw7yySem8ZPhfsrw-239" style="edgeStyle=orthogonalEdgeStyle;rounded=0;orthogonalLoop=1;jettySize=auto;html=1;exitX=0.5;exitY=1;exitDx=0;exitDy=0;" edge="1" parent="1" source="akGsYw7yySem8ZPhfsrw-240" target="akGsYw7yySem8ZPhfsrw-241">
          <mxGeometry relative="1" as="geometry">
            <mxPoint x="1240.0000000000005" y="3800" as="targetPoint" />
          </mxGeometry>
        </mxCell>
        <mxCell id="akGsYw7yySem8ZPhfsrw-240" value="componentDidUpdate" style="rounded=0;whiteSpace=wrap;html=1;" vertex="1" parent="1">
          <mxGeometry x="1260.0000000000005" y="3710" width="120" height="40" as="geometry" />
        </mxCell>
        <mxCell id="akGsYw7yySem8ZPhfsrw-241" value="commitUpdateQueue" style="rounded=0;whiteSpace=wrap;html=1;" vertex="1" parent="1">
          <mxGeometry x="1180.0000000000005" y="3800" width="120" height="30" as="geometry" />
        </mxCell>
        <mxCell id="akGsYw7yySem8ZPhfsrw-256" value="创建更新" style="text;html=1;align=center;verticalAlign=middle;whiteSpace=wrap;rounded=0;fontColor=#1F5AFF;" vertex="1" parent="1">
          <mxGeometry x="750.71" y="350" width="100" height="20" as="geometry" />
        </mxCell>
        <mxCell id="akGsYw7yySem8ZPhfsrw-257" value="将创建的更新放置在fiber上的updateQueue的share属性上，形成循环链表" style="text;html=1;align=center;verticalAlign=middle;whiteSpace=wrap;rounded=0;fontColor=#1F5AFF;" vertex="1" parent="1">
          <mxGeometry x="750" y="460" width="240" height="40" as="geometry" />
        </mxCell>
        <mxCell id="akGsYw7yySem8ZPhfsrw-258" value="fiber上初始化updateQueue 队列，挂载到根FiberNode的queue属性上。" style="text;html=1;strokeColor=none;fillColor=none;align=center;verticalAlign=middle;whiteSpace=wrap;rounded=0;fontColor=#1F5AFF;" vertex="1" parent="1">
          <mxGeometry x="480" y="470" width="140" height="30" as="geometry" />
        </mxCell>
        <mxCell id="akGsYw7yySem8ZPhfsrw-259" value="调度更新" style="text;html=1;align=center;verticalAlign=middle;whiteSpace=wrap;rounded=0;fontColor=#1F5AFF;" vertex="1" parent="1">
          <mxGeometry x="765" y="575" width="100" height="20" as="geometry" />
        </mxCell>
        <mxCell id="akGsYw7yySem8ZPhfsrw-262" value="创建workInProgress" style="text;html=1;strokeColor=none;fillColor=none;align=center;verticalAlign=middle;whiteSpace=wrap;rounded=0;fontColor=#1F5AFF;" vertex="1" parent="1">
          <mxGeometry x="399" y="1215" width="145" height="20" as="geometry" />
        </mxCell>
        <mxCell id="akGsYw7yySem8ZPhfsrw-263" value="mount阶段" style="text;html=1;strokeColor=none;fillColor=none;align=center;verticalAlign=middle;whiteSpace=wrap;rounded=0;fontColor=#1F5AFF;" vertex="1" parent="1">
          <mxGeometry x="194" y="1520" width="100" height="20" as="geometry" />
        </mxCell>
        <mxCell id="akGsYw7yySem8ZPhfsrw-265" value="复用current的fiber节点" style="text;html=1;strokeColor=none;fillColor=none;align=center;verticalAlign=middle;whiteSpace=wrap;rounded=0;fontColor=#1F5AFF;" vertex="1" parent="1">
          <mxGeometry x="-166" y="1750" width="90" height="20" as="geometry" />
        </mxCell>
        <mxCell id="akGsYw7yySem8ZPhfsrw-266" value="手机子节点" style="text;html=1;strokeColor=none;fillColor=none;align=center;verticalAlign=middle;whiteSpace=wrap;rounded=0;fontColor=#1F5AFF;" vertex="1" parent="1">
          <mxGeometry x="-143.5" y="2205" width="87.5" height="20" as="geometry" />
        </mxCell>
        <mxCell id="akGsYw7yySem8ZPhfsrw-267" value="mount阶段" style="text;html=1;strokeColor=none;fillColor=none;align=center;verticalAlign=middle;whiteSpace=wrap;rounded=0;fontColor=#1F5AFF;" vertex="1" parent="1">
          <mxGeometry x="-36" y="2330" width="100" height="20" as="geometry" />
        </mxCell>
        <mxCell id="akGsYw7yySem8ZPhfsrw-268" value="update阶段" style="text;html=1;strokeColor=none;fillColor=none;align=center;verticalAlign=middle;whiteSpace=wrap;rounded=0;fontColor=#1F5AFF;" vertex="1" parent="1">
          <mxGeometry x="-156" y="1500" width="100" height="20" as="geometry" />
        </mxCell>
        <mxCell id="akGsYw7yySem8ZPhfsrw-269" value="update阶段" style="text;html=1;strokeColor=none;fillColor=none;align=center;verticalAlign=middle;whiteSpace=wrap;rounded=0;fontColor=#1F5AFF;" vertex="1" parent="1">
          <mxGeometry x="-526" y="2330" width="100" height="20" as="geometry" />
        </mxCell>
        <mxCell id="akGsYw7yySem8ZPhfsrw-270" value="单个节点，mount阶段直接创建节点，update阶段的话，current和wip的key相同，如果type也相同的话，则只需要使用之前的节点，否则type不同的话，删除所有的子节点，创建新节点，如果可以不同的话，则只删除当前比较的节点，并且找siblings继续比较，如果找不到复用的节点的话，则创建节点。" style="text;html=1;strokeColor=none;fillColor=none;align=center;verticalAlign=middle;whiteSpace=wrap;rounded=0;fontColor=#1F5AFF;" vertex="1" parent="1">
          <mxGeometry x="-676" y="2490" width="170" height="165" as="geometry" />
        </mxCell>
        <mxCell id="akGsYw7yySem8ZPhfsrw-271" value="函数体内进行三次循环，第一次循环遍历新旧节点，一旦遇到key不一样的节点，则跳出第一次循环，然后如果新节点遍历完，则将剩余的老节点删除，如果老节点遍历完，还存在新节点，则进行第二次循环，遍历新的节点，创建新的Fiber，当新旧节点都没有遍历完成的话，则需要考虑是否存在交换位置的情况，进行第三次循环，第三次循环之前将剩余的oldFiber存在Map中，新节点在map中寻找是否存在可以复用的旧节点，如果存在的话，将Map中的旧节点删除，下面放置复制的节点，如果此节点的alternate的index小于最后放置的lastPlaceIndex的话，则表示此节点位置发生变动，需要添加flags，并且返回最后放置的位置，否则表示没有发生移动，返回oldIndex。" style="text;html=1;strokeColor=none;fillColor=none;align=center;verticalAlign=middle;whiteSpace=wrap;rounded=0;fontColor=#1F5AFF;" vertex="1" parent="1">
          <mxGeometry x="-100" y="2600" width="330" height="200" as="geometry" />
        </mxCell>
        <mxCell id="akGsYw7yySem8ZPhfsrw-275" style="edgeStyle=orthogonalEdgeStyle;rounded=0;orthogonalLoop=1;jettySize=auto;html=1;exitX=0.5;exitY=1;exitDx=0;exitDy=0;fontColor=#1F5AFF;" edge="1" parent="1" source="akGsYw7yySem8ZPhfsrw-277" target="akGsYw7yySem8ZPhfsrw-278">
          <mxGeometry relative="1" as="geometry">
            <mxPoint x="460.7142857142858" y="4190" as="targetPoint" />
          </mxGeometry>
        </mxCell>
        <mxCell id="akGsYw7yySem8ZPhfsrw-276" value="" style="edgeStyle=orthogonalEdgeStyle;rounded=0;orthogonalLoop=1;jettySize=auto;html=1;fontColor=#1F5AFF;" edge="1" parent="1" source="akGsYw7yySem8ZPhfsrw-277" target="akGsYw7yySem8ZPhfsrw-278">
          <mxGeometry relative="1" as="geometry" />
        </mxCell>
        <mxCell id="akGsYw7yySem8ZPhfsrw-277" value="&lt;font color=&quot;#000000&quot;&gt;updateProperties&lt;/font&gt;" style="rounded=0;whiteSpace=wrap;html=1;fontColor=#1F5AFF;" vertex="1" parent="1">
          <mxGeometry x="400.71000000000004" y="4130" width="120" height="30" as="geometry" />
        </mxCell>
        <mxCell id="akGsYw7yySem8ZPhfsrw-278" value="updateDOMProperties" style="rounded=0;whiteSpace=wrap;html=1;" vertex="1" parent="1">
          <mxGeometry x="389.28999999999996" y="4190" width="140.71" height="30" as="geometry" />
        </mxCell>
        <mxCell id="akGsYw7yySem8ZPhfsrw-279" value="flushPassiveEffects" style="rounded=0;whiteSpace=wrap;html=1;fontColor=#000000;" vertex="1" parent="1">
          <mxGeometry x="100" y="3450" width="120" height="30" as="geometry" />
        </mxCell>
        <mxCell id="akGsYw7yySem8ZPhfsrw-280" value="&lt;span style=&quot;font-size: 14px ; font-style: normal ; font-weight: 400 ; letter-spacing: normal ; text-align: left ; text-indent: 0px ; text-transform: none ; word-spacing: 0px ; background-color: rgb(255 , 255 , 255) ; display: inline ; float: none&quot;&gt;&lt;font color=&quot;#1f5aff&quot;&gt;传入的参数是HookLayout | HookHasEffect，也就是说执行useLayoutEffect的销毁函数。&lt;/font&gt;&lt;/span&gt;" style="text;whiteSpace=wrap;html=1;fontColor=#000000;" vertex="1" parent="1">
          <mxGeometry x="150" y="4090" width="200" height="30" as="geometry" />
        </mxCell>
        <mxCell id="akGsYw7yySem8ZPhfsrw-281" value="&lt;span style=&quot;font-size: 14px ; font-style: normal ; font-weight: 400 ; letter-spacing: normal ; text-align: left ; text-indent: 0px ; text-transform: none ; word-spacing: 0px ; background-color: rgb(255 , 255 , 255) ; display: inline ; float: none&quot;&gt;&lt;font color=&quot;#1f5aff&quot;&gt;传入的参数是HookLayout | HookHasEffect，也就是说调度useLayoutEffect的函数。&lt;/font&gt;&lt;/span&gt;" style="text;whiteSpace=wrap;html=1;fontColor=#000000;" vertex="1" parent="1">
          <mxGeometry x="899.5100000000002" y="3680" width="200" height="60" as="geometry" />
        </mxCell>
        <mxCell id="akGsYw7yySem8ZPhfsrw-282" value="root.current = finishedWork;" style="rounded=0;whiteSpace=wrap;html=1;fontColor=#1F5AFF;" vertex="1" parent="1">
          <mxGeometry x="839.6700000000001" y="3450" width="120" height="30" as="geometry" />
        </mxCell>
        <mxCell id="akGsYw7yySem8ZPhfsrw-283" value="processUpdateQueue" style="rounded=0;whiteSpace=wrap;html=1;fontColor=#000000;" vertex="1" parent="1">
          <mxGeometry x="104" y="2120" width="135" height="30" as="geometry" />
        </mxCell>
        <mxCell id="akGsYw7yySem8ZPhfsrw-295" value="" style="edgeStyle=orthogonalEdgeStyle;rounded=0;orthogonalLoop=1;jettySize=auto;html=1;" edge="1" parent="1" source="akGsYw7yySem8ZPhfsrw-286" target="akGsYw7yySem8ZPhfsrw-8">
          <mxGeometry relative="1" as="geometry" />
        </mxCell>
        <mxCell id="akGsYw7yySem8ZPhfsrw-302" style="edgeStyle=orthogonalEdgeStyle;rounded=0;orthogonalLoop=1;jettySize=auto;html=1;entryX=0.108;entryY=-0.067;entryDx=0;entryDy=0;entryPerimeter=0;" edge="1" parent="1" source="akGsYw7yySem8ZPhfsrw-286" target="akGsYw7yySem8ZPhfsrw-293">
          <mxGeometry relative="1" as="geometry">
            <Array as="points">
              <mxPoint x="60" y="60" />
              <mxPoint x="60" y="226" />
            </Array>
          </mxGeometry>
        </mxCell>
        <mxCell id="akGsYw7yySem8ZPhfsrw-303" value="最终生成此构造函数&lt;br&gt;生成的对象" style="edgeLabel;html=1;align=center;verticalAlign=middle;resizable=0;points=[];" vertex="1" connectable="0" parent="akGsYw7yySem8ZPhfsrw-302">
          <mxGeometry x="0.0831" y="4" relative="1" as="geometry">
            <mxPoint as="offset" />
          </mxGeometry>
        </mxCell>
        <mxCell id="akGsYw7yySem8ZPhfsrw-286" value="createRoot" style="rounded=0;whiteSpace=wrap;html=1;" vertex="1" parent="1">
          <mxGeometry x="-130" y="30" width="120" height="60" as="geometry" />
        </mxCell>
        <mxCell id="akGsYw7yySem8ZPhfsrw-304" style="edgeStyle=orthogonalEdgeStyle;rounded=0;orthogonalLoop=1;jettySize=auto;html=1;entryX=0;entryY=0.5;entryDx=0;entryDy=0;" edge="1" parent="1" source="akGsYw7yySem8ZPhfsrw-293" target="akGsYw7yySem8ZPhfsrw-2">
          <mxGeometry relative="1" as="geometry">
            <Array as="points">
              <mxPoint x="100" y="180" />
              <mxPoint x="395" y="180" />
              <mxPoint x="395" y="60" />
            </Array>
          </mxGeometry>
        </mxCell>
        <mxCell id="akGsYw7yySem8ZPhfsrw-305" value="此构造函数的原型上绑定了render方法，&lt;br&gt;生成的对象可以调用render方法渲染" style="edgeLabel;html=1;align=center;verticalAlign=middle;resizable=0;points=[];" vertex="1" connectable="0" parent="akGsYw7yySem8ZPhfsrw-304">
          <mxGeometry x="-0.1486" y="-1" relative="1" as="geometry">
            <mxPoint y="1" as="offset" />
          </mxGeometry>
        </mxCell>
        <mxCell id="akGsYw7yySem8ZPhfsrw-293" value="ReactDOMRoot" style="rounded=0;whiteSpace=wrap;html=1;" vertex="1" parent="1">
          <mxGeometry x="40" y="230" width="120" height="60" as="geometry" />
        </mxCell>
        <mxCell id="akGsYw7yySem8ZPhfsrw-298" value="将Fiber根节点存储在ReactDOMRoot构造函数生成的对象的_internalRoot上" style="text;html=1;strokeColor=none;fillColor=none;align=center;verticalAlign=middle;whiteSpace=wrap;rounded=0;" vertex="1" parent="1">
          <mxGeometry x="160" y="245" width="150" height="30" as="geometry" />
        </mxCell>
        <mxCell id="akGsYw7yySem8ZPhfsrw-310" style="edgeStyle=orthogonalEdgeStyle;rounded=0;orthogonalLoop=1;jettySize=auto;html=1;exitX=0.5;exitY=1;exitDx=0;exitDy=0;entryX=0.5;entryY=0;entryDx=0;entryDy=0;" edge="1" parent="1" source="akGsYw7yySem8ZPhfsrw-306" target="akGsYw7yySem8ZPhfsrw-36">
          <mxGeometry relative="1" as="geometry" />
        </mxCell>
        <mxCell id="akGsYw7yySem8ZPhfsrw-306" value="requestEventTime" style="rounded=0;whiteSpace=wrap;html=1;" vertex="1" parent="1">
          <mxGeometry x="540" y="230" width="120" height="35" as="geometry" />
        </mxCell>
        <mxCell id="akGsYw7yySem8ZPhfsrw-312" style="edgeStyle=orthogonalEdgeStyle;rounded=0;orthogonalLoop=1;jettySize=auto;html=1;exitX=0.5;exitY=1;exitDx=0;exitDy=0;entryX=0.5;entryY=0;entryDx=0;entryDy=0;" edge="1" parent="1" source="akGsYw7yySem8ZPhfsrw-307" target="akGsYw7yySem8ZPhfsrw-36">
          <mxGeometry relative="1" as="geometry">
            <mxPoint x="690" y="310" as="targetPoint" />
          </mxGeometry>
        </mxCell>
        <mxCell id="akGsYw7yySem8ZPhfsrw-315" value="根据eventTime和updateLane生成更新对象" style="edgeLabel;html=1;align=center;verticalAlign=middle;resizable=0;points=[];" vertex="1" connectable="0" parent="akGsYw7yySem8ZPhfsrw-312">
          <mxGeometry x="0.637" y="-2" relative="1" as="geometry">
            <mxPoint as="offset" />
          </mxGeometry>
        </mxCell>
        <mxCell id="akGsYw7yySem8ZPhfsrw-307" value="requestUpdateLane" style="rounded=0;whiteSpace=wrap;html=1;" vertex="1" parent="1">
          <mxGeometry x="720" y="230" width="120" height="35" as="geometry" />
        </mxCell>
        <mxCell id="akGsYw7yySem8ZPhfsrw-323" style="edgeStyle=orthogonalEdgeStyle;rounded=0;orthogonalLoop=1;jettySize=auto;html=1;exitX=0.5;exitY=1;exitDx=0;exitDy=0;" edge="1" parent="1" source="akGsYw7yySem8ZPhfsrw-324" target="akGsYw7yySem8ZPhfsrw-329">
          <mxGeometry relative="1" as="geometry">
            <mxPoint x="689.4705882352947" y="710" as="targetPoint" />
          </mxGeometry>
        </mxCell>
        <mxCell id="akGsYw7yySem8ZPhfsrw-324" value="ensureRootIsScheduled" style="rounded=0;whiteSpace=wrap;html=1;" vertex="1" parent="1">
          <mxGeometry x="610.0000000000001" y="640" width="160" height="30" as="geometry" />
        </mxCell>
        <mxCell id="akGsYw7yySem8ZPhfsrw-325" style="edgeStyle=orthogonalEdgeStyle;rounded=0;orthogonalLoop=1;jettySize=auto;html=1;exitX=0;exitY=0.5;exitDx=0;exitDy=0;" edge="1" parent="1" source="akGsYw7yySem8ZPhfsrw-329" target="akGsYw7yySem8ZPhfsrw-331">
          <mxGeometry relative="1" as="geometry">
            <mxPoint x="560.0000000000001" y="790" as="targetPoint" />
          </mxGeometry>
        </mxCell>
        <mxCell id="akGsYw7yySem8ZPhfsrw-326" style="edgeStyle=orthogonalEdgeStyle;rounded=0;orthogonalLoop=1;jettySize=auto;html=1;exitX=1;exitY=0.5;exitDx=0;exitDy=0;" edge="1" parent="1" source="akGsYw7yySem8ZPhfsrw-329" target="akGsYw7yySem8ZPhfsrw-333">
          <mxGeometry relative="1" as="geometry">
            <mxPoint x="689.4705882352947" y="820" as="targetPoint" />
          </mxGeometry>
        </mxCell>
        <mxCell id="akGsYw7yySem8ZPhfsrw-327" style="edgeStyle=orthogonalEdgeStyle;rounded=0;orthogonalLoop=1;jettySize=auto;html=1;exitX=0.5;exitY=1;exitDx=0;exitDy=0;" edge="1" parent="1" source="akGsYw7yySem8ZPhfsrw-329" target="akGsYw7yySem8ZPhfsrw-339">
          <mxGeometry relative="1" as="geometry">
            <mxPoint x="689.4705882352947" y="790" as="targetPoint" />
          </mxGeometry>
        </mxCell>
        <mxCell id="akGsYw7yySem8ZPhfsrw-329" value="markStarvedLanesAsExpired" style="rounded=0;whiteSpace=wrap;html=1;" vertex="1" parent="1">
          <mxGeometry x="610.0000000000001" y="710" width="159.47" height="30" as="geometry" />
        </mxCell>
        <mxCell id="akGsYw7yySem8ZPhfsrw-330" style="edgeStyle=orthogonalEdgeStyle;rounded=0;orthogonalLoop=1;jettySize=auto;html=1;exitX=0.5;exitY=1;exitDx=0;exitDy=0;" edge="1" parent="1" source="akGsYw7yySem8ZPhfsrw-331" target="akGsYw7yySem8ZPhfsrw-334">
          <mxGeometry relative="1" as="geometry">
            <mxPoint x="540.0588235294118" y="890" as="targetPoint" />
          </mxGeometry>
        </mxCell>
        <mxCell id="akGsYw7yySem8ZPhfsrw-331" value="existingCallbackPriority === newCallbackPriority" style="rounded=0;whiteSpace=wrap;html=1;" vertex="1" parent="1">
          <mxGeometry x="20.000000000000057" y="810" width="160" height="40" as="geometry" />
        </mxCell>
        <mxCell id="akGsYw7yySem8ZPhfsrw-332" style="edgeStyle=orthogonalEdgeStyle;rounded=0;orthogonalLoop=1;jettySize=auto;html=1;exitX=0.5;exitY=1;exitDx=0;exitDy=0;" edge="1" parent="1" source="akGsYw7yySem8ZPhfsrw-333" target="akGsYw7yySem8ZPhfsrw-335">
          <mxGeometry relative="1" as="geometry">
            <mxPoint x="720.0588235294118" y="890" as="targetPoint" />
          </mxGeometry>
        </mxCell>
        <mxCell id="akGsYw7yySem8ZPhfsrw-333" value="existingCallbackNode != null" style="rounded=0;whiteSpace=wrap;html=1;" vertex="1" parent="1">
          <mxGeometry x="1118.14" y="800" width="120" height="40" as="geometry" />
        </mxCell>
        <mxCell id="akGsYw7yySem8ZPhfsrw-334" value="return;" style="rounded=0;whiteSpace=wrap;html=1;" vertex="1" parent="1">
          <mxGeometry x="49.970000000000084" y="890" width="100.06" height="30" as="geometry" />
        </mxCell>
        <mxCell id="akGsYw7yySem8ZPhfsrw-335" value="cancelCallback" style="rounded=0;whiteSpace=wrap;html=1;" vertex="1" parent="1">
          <mxGeometry x="1118.14" y="890" width="120" height="30" as="geometry" />
        </mxCell>
        <mxCell id="akGsYw7yySem8ZPhfsrw-336" style="edgeStyle=orthogonalEdgeStyle;rounded=0;orthogonalLoop=1;jettySize=auto;html=1;exitX=0.5;exitY=1;exitDx=0;exitDy=0;entryX=0.5;entryY=0;entryDx=0;entryDy=0;" edge="1" parent="1" source="akGsYw7yySem8ZPhfsrw-339" target="akGsYw7yySem8ZPhfsrw-48">
          <mxGeometry relative="1" as="geometry">
            <mxPoint x="334.00000000000045" y="1020" as="targetPoint" />
            <Array as="points">
              <mxPoint x="690" y="970" />
              <mxPoint x="339" y="970" />
            </Array>
          </mxGeometry>
        </mxCell>
        <mxCell id="akGsYw7yySem8ZPhfsrw-337" value="===SyncLane" style="edgeLabel;html=1;align=center;verticalAlign=middle;resizable=0;points=[];" vertex="1" connectable="0" parent="akGsYw7yySem8ZPhfsrw-336">
          <mxGeometry x="0.2575" y="2" relative="1" as="geometry">
            <mxPoint as="offset" />
          </mxGeometry>
        </mxCell>
        <mxCell id="akGsYw7yySem8ZPhfsrw-338" value="!==SyncLane" style="edgeStyle=orthogonalEdgeStyle;rounded=0;orthogonalLoop=1;jettySize=auto;html=1;exitX=0.5;exitY=1;exitDx=0;exitDy=0;" edge="1" parent="1" source="akGsYw7yySem8ZPhfsrw-339" target="akGsYw7yySem8ZPhfsrw-344">
          <mxGeometry relative="1" as="geometry">
            <Array as="points">
              <mxPoint x="690" y="970" />
              <mxPoint x="1540" y="970" />
            </Array>
          </mxGeometry>
        </mxCell>
        <mxCell id="akGsYw7yySem8ZPhfsrw-339" value="newCallbackPriority" style="rhombus;whiteSpace=wrap;html=1;" vertex="1" parent="1">
          <mxGeometry x="614.4699999999999" y="780" width="150.53" height="50" as="geometry" />
        </mxCell>
        <mxCell id="akGsYw7yySem8ZPhfsrw-341" value="高优先级打断低优先级的饥饿问题处理" style="text;html=1;strokeColor=none;fillColor=none;align=center;verticalAlign=middle;whiteSpace=wrap;rounded=0;fontColor=#1F5AFF;" vertex="1" parent="1">
          <mxGeometry x="760.0000000000001" y="700" width="130.53" height="20" as="geometry" />
        </mxCell>
        <mxCell id="akGsYw7yySem8ZPhfsrw-342" value="高优先级插队" style="text;html=1;strokeColor=none;fillColor=none;align=center;verticalAlign=middle;whiteSpace=wrap;rounded=0;fontColor=#1F5AFF;" vertex="1" parent="1">
          <mxGeometry x="1178.14" y="780" width="90" height="20" as="geometry" />
        </mxCell>
        <mxCell id="akGsYw7yySem8ZPhfsrw-343" value="优先级相同的任务，则将新旧任务都放在一起执行" style="text;html=1;strokeColor=none;fillColor=none;align=center;verticalAlign=middle;whiteSpace=wrap;rounded=0;fontColor=#1F5AFF;" vertex="1" parent="1">
          <mxGeometry x="110.00000000000006" y="760" width="160" height="40" as="geometry" />
        </mxCell>
        <mxCell id="akGsYw7yySem8ZPhfsrw-352" value="" style="edgeStyle=orthogonalEdgeStyle;rounded=0;orthogonalLoop=1;jettySize=auto;html=1;" edge="1" parent="1" source="akGsYw7yySem8ZPhfsrw-344" target="akGsYw7yySem8ZPhfsrw-351">
          <mxGeometry relative="1" as="geometry" />
        </mxCell>
        <mxCell id="akGsYw7yySem8ZPhfsrw-344" value="scheduler调度任务" style="rounded=0;whiteSpace=wrap;html=1;" vertex="1" parent="1">
          <mxGeometry x="1450" y="1060" width="180" height="30" as="geometry" />
        </mxCell>
        <mxCell id="akGsYw7yySem8ZPhfsrw-354" value="" style="edgeStyle=orthogonalEdgeStyle;rounded=0;orthogonalLoop=1;jettySize=auto;html=1;" edge="1" parent="1" source="akGsYw7yySem8ZPhfsrw-351" target="akGsYw7yySem8ZPhfsrw-353">
          <mxGeometry relative="1" as="geometry" />
        </mxCell>
        <mxCell id="akGsYw7yySem8ZPhfsrw-351" value="performConcurrentWorkOnRoot" style="rounded=0;whiteSpace=wrap;html=1;" vertex="1" parent="1">
          <mxGeometry x="1450" y="1139" width="180" height="30" as="geometry" />
        </mxCell>
        <mxCell id="akGsYw7yySem8ZPhfsrw-357" value="" style="edgeStyle=orthogonalEdgeStyle;rounded=0;orthogonalLoop=1;jettySize=auto;html=1;" edge="1" parent="1" source="akGsYw7yySem8ZPhfsrw-353" target="akGsYw7yySem8ZPhfsrw-356">
          <mxGeometry relative="1" as="geometry" />
        </mxCell>
        <mxCell id="akGsYw7yySem8ZPhfsrw-353" value="flushPassiveEffects" style="rounded=0;whiteSpace=wrap;html=1;" vertex="1" parent="1">
          <mxGeometry x="1450" y="1205" width="180" height="30" as="geometry" />
        </mxCell>
        <mxCell id="akGsYw7yySem8ZPhfsrw-359" value="" style="edgeStyle=orthogonalEdgeStyle;rounded=0;orthogonalLoop=1;jettySize=auto;html=1;entryX=1;entryY=0.5;entryDx=0;entryDy=0;" edge="1" parent="1" source="akGsYw7yySem8ZPhfsrw-356" target="akGsYw7yySem8ZPhfsrw-53">
          <mxGeometry relative="1" as="geometry">
            <mxPoint x="1080" y="1303" as="targetPoint" />
          </mxGeometry>
        </mxCell>
        <mxCell id="akGsYw7yySem8ZPhfsrw-362" value="false" style="edgeLabel;html=1;align=center;verticalAlign=middle;resizable=0;points=[];" vertex="1" connectable="0" parent="akGsYw7yySem8ZPhfsrw-359">
          <mxGeometry x="-0.0478" y="2" relative="1" as="geometry">
            <mxPoint x="1" y="1" as="offset" />
          </mxGeometry>
        </mxCell>
        <mxCell id="akGsYw7yySem8ZPhfsrw-361" value="" style="edgeStyle=orthogonalEdgeStyle;rounded=0;orthogonalLoop=1;jettySize=auto;html=1;" edge="1" parent="1" source="akGsYw7yySem8ZPhfsrw-356" target="akGsYw7yySem8ZPhfsrw-360">
          <mxGeometry relative="1" as="geometry" />
        </mxCell>
        <mxCell id="akGsYw7yySem8ZPhfsrw-363" value="true" style="edgeLabel;html=1;align=center;verticalAlign=middle;resizable=0;points=[];" vertex="1" connectable="0" parent="akGsYw7yySem8ZPhfsrw-361">
          <mxGeometry x="-0.5916" y="5" relative="1" as="geometry">
            <mxPoint x="1" y="1" as="offset" />
          </mxGeometry>
        </mxCell>
        <mxCell id="akGsYw7yySem8ZPhfsrw-356" value="shouldTimeSlice" style="rhombus;whiteSpace=wrap;html=1;" vertex="1" parent="1">
          <mxGeometry x="1460" y="1270" width="160" height="65" as="geometry" />
        </mxCell>
        <mxCell id="akGsYw7yySem8ZPhfsrw-366" value="" style="edgeStyle=orthogonalEdgeStyle;rounded=0;orthogonalLoop=1;jettySize=auto;html=1;" edge="1" parent="1" source="akGsYw7yySem8ZPhfsrw-360" target="akGsYw7yySem8ZPhfsrw-365">
          <mxGeometry relative="1" as="geometry" />
        </mxCell>
        <mxCell id="akGsYw7yySem8ZPhfsrw-360" value="renderRootConcurrent" style="whiteSpace=wrap;html=1;" vertex="1" parent="1">
          <mxGeometry x="1670" y="1400" width="150" height="40" as="geometry" />
        </mxCell>
        <mxCell id="akGsYw7yySem8ZPhfsrw-367" style="edgeStyle=orthogonalEdgeStyle;rounded=0;orthogonalLoop=1;jettySize=auto;html=1;exitX=0;exitY=0.5;exitDx=0;exitDy=0;entryX=0.75;entryY=0;entryDx=0;entryDy=0;" edge="1" parent="1" source="akGsYw7yySem8ZPhfsrw-365" target="akGsYw7yySem8ZPhfsrw-60">
          <mxGeometry relative="1" as="geometry" />
        </mxCell>
        <mxCell id="akGsYw7yySem8ZPhfsrw-365" value="workLoopConcurrent" style="whiteSpace=wrap;html=1;" vertex="1" parent="1">
          <mxGeometry x="1670" y="1480" width="150" height="40" as="geometry" />
        </mxCell>
      </root>
    </mxGraphModel>
  </diagram>
</mxfile>
